<svg version="1.1" id="Layer_1" xmlns="http://www.w3.org/2000/svg" xmlns:xlink="http://www.w3.org/1999/xlink" x="0px" y="0px"
	 width="100%" viewBox="0 0 304 432" enable-background="new 0 0 304 432" xml:space="preserve">
<path fill="#000000" opacity="1.000000" stroke="none" 
	d="
M185.240265,416.320374 
	C174.314728,419.436188 163.679214,421.621368 152.675720,422.434418 
	C144.728500,423.021698 136.835449,424.448059 128.825089,423.977875 
	C106.442566,422.664124 84.192436,420.603729 62.691532,413.528625 
	C57.238220,411.734161 54.115540,408.322296 52.114704,403.188995 
	C45.103210,385.200287 37.744907,367.285522 33.509972,348.417053 
	C30.504253,335.025299 28.022161,321.507629 28.115044,307.554932 
	C28.195673,295.442871 28.094931,283.415161 29.760450,271.357697 
	C32.529652,251.310165 37.646572,231.973862 45.656605,213.400681 
	C50.017693,203.288437 55.141357,193.569336 61.090927,184.303268 
	C62.151386,182.651688 62.416759,181.164154 62.270016,179.196304 
	C60.679474,157.867050 66.370277,145.651123 87.042442,136.300018 
	C91.074425,134.476135 95.228050,134.724442 99.313286,135.093918 
	C102.518250,135.383774 104.120209,134.404572 105.387222,131.550186 
	C109.753799,121.713028 117.254005,115.363129 127.507103,112.094543 
	C135.370895,109.587646 142.601334,111.197769 149.506027,115.102852 
	C151.733154,116.362465 153.581955,117.175941 155.615799,114.779694 
	C165.582382,103.037239 180.936295,102.472191 194.319046,109.318314 
	C195.044464,109.689415 195.836395,109.930504 196.591507,110.229790 
	C198.432205,108.705681 197.702759,106.736786 197.711395,105.026726 
	C197.781937,91.029015 197.469208,77.022232 197.877701,63.035870 
	C198.147980,53.780685 198.762314,44.511929 203.777237,36.091358 
	C213.028381,20.557684 231.179443,19.523037 242.128128,33.959457 
	C250.323532,44.765545 250.854904,57.467808 251.264160,70.056595 
	C252.774734,116.522583 252.191727,163.007339 251.999817,209.487045 
	C251.968460,217.082611 253.279816,223.629410 260.782776,228.209625 
	C267.330017,232.206436 270.249359,238.987396 270.188324,247.004257 
	C270.056488,264.328308 268.849579,281.541626 266.869202,298.763153 
	C263.522461,327.866058 254.249298,354.678833 238.167679,379.190338 
	C225.502289,398.494873 207.781082,410.469879 185.240265,416.320374 
M126.511932,413.946808 
	C145.053055,414.652863 163.228546,412.227325 181.174454,407.682617 
	C200.532181,402.780365 216.714142,393.278564 228.525589,376.677856 
	C245.838638,352.344818 254.525162,324.797485 258.251038,295.691132 
	C260.241852,280.139099 261.154877,264.369202 261.247711,248.597122 
	C261.281769,242.814789 259.276825,238.685928 255.087570,235.188736 
	C240.900589,223.345474 226.735809,211.475601 212.530930,199.653885 
	C207.950912,195.842270 205.494125,196.458923 203.987732,202.182037 
	C199.385452,219.667084 202.580093,235.737717 213.260727,250.331650 
	C216.745895,255.093750 221.311798,258.716705 225.842316,262.372070 
	C228.362595,264.405487 228.826675,266.852631 227.032990,269.382965 
	C225.395599,271.692841 223.077042,271.472839 220.826996,270.059662 
	C219.855835,269.449707 219.003616,268.568298 217.584610,268.735748 
	C216.043045,269.535339 215.595535,271.234650 214.879883,272.697113 
	C211.202530,280.211884 208.779358,288.163483 207.057709,296.316254 
	C206.410751,299.379913 205.027771,301.518005 201.792450,300.944580 
	C198.331848,300.331146 197.761688,297.711395 198.236679,294.451050 
	C199.744217,284.103180 203.734436,274.633820 208.144485,265.290680 
	C208.963593,263.555298 210.614349,261.927582 208.841827,259.842621 
	C207.180267,257.888123 204.998428,257.930298 202.860596,258.481354 
	C187.114670,262.540039 173.107452,269.925568 160.958084,280.746094 
	C140.646423,298.836182 129.767441,321.814484 126.214890,348.486206 
	C125.755142,351.937866 124.639229,354.740417 120.905251,354.123413 
	C117.239281,353.517639 117.131584,350.469696 117.440468,347.061371 
	C118.531052,335.027405 121.752731,323.605804 126.726654,312.679260 
	C138.560440,286.683289 156.942047,267.063751 183.318970,255.444489 
	C188.871521,252.998550 194.615204,250.986481 200.616364,248.639313 
	C196.514236,239.074600 192.683487,229.881851 192.578125,219.694519 
	C192.562958,218.228806 191.368637,217.921753 190.070724,217.894653 
	C179.996002,217.684357 170.641434,215.679169 164.150894,206.404343 
	C162.185974,213.119675 159.496841,217.025314 155.409271,219.590286 
	C144.232651,226.603653 130.613815,222.425415 122.656631,209.498047 
	C121.144463,207.041367 119.796883,204.483383 118.263153,201.777710 
	C109.481743,212.528122 98.194633,212.280441 90.263634,201.567047 
	C84.079163,193.212906 82.142082,183.070328 79.015594,173.453293 
	C78.312065,171.289261 79.449387,169.507431 81.467590,168.529083 
	C83.742180,167.426422 85.600815,168.095932 87.161766,170.070007 
	C88.899551,172.267715 89.129196,174.988800 89.962486,177.495850 
	C92.107544,183.949493 93.394760,190.766418 97.749680,196.283432 
	C99.772530,198.846069 102.447006,201.120819 105.775932,200.132339 
	C109.059792,199.157242 110.328743,195.967819 110.644745,192.608093 
	C111.534561,183.148056 111.249397,173.701874 110.292366,164.263321 
	C109.904655,160.439728 109.176964,156.678345 107.698715,153.134064 
	C104.431679,145.300934 98.183624,142.404236 90.317642,145.378510 
	C85.318604,147.268723 80.718353,150.079788 77.104210,154.119217 
	C70.197670,161.838409 70.686317,171.308395 71.516289,180.628769 
	C71.758591,183.349854 71.529236,185.459839 70.019272,187.594833 
	C64.126389,195.927002 59.598057,205.030380 55.461754,214.301041 
	C45.629730,236.337509 39.874878,259.383148 37.906300,283.497498 
	C36.251698,303.765778 37.678486,323.718994 42.220448,343.435913 
	C46.636032,362.604248 53.253101,381.063721 61.157791,399.087128 
	C62.523258,402.200531 64.333679,403.897369 67.363533,404.822968 
	C86.319176,410.613617 105.708611,413.611511 126.511932,413.946808 
M207.128220,57.887871 
	C207.703873,87.762146 205.075150,117.710350 209.222153,147.502655 
	C210.837280,159.105804 209.705597,170.775375 209.994476,182.410965 
	C210.047440,184.544327 209.684464,186.851715 212.061127,188.149719 
	C219.457001,192.188934 224.972763,198.586655 231.566071,203.614960 
	C234.998886,206.232971 237.729782,210.043457 242.185089,211.305405 
	C243.610458,208.972046 243.625809,206.790909 243.590042,204.639557 
	C242.993042,168.735886 244.713898,132.815842 242.480713,96.916267 
	C241.605942,82.853874 242.621536,68.704865 240.737976,54.651787 
	C239.892426,48.343163 237.804428,42.749336 233.428284,38.142162 
	C225.965073,30.284910 216.717941,31.676950 211.229233,41.134903 
	C208.343384,46.107693 208.493149,51.674286 207.128220,57.887871 
M196.380890,126.307510 
	C195.299805,122.475647 193.313232,119.374939 189.636627,117.487686 
	C183.542084,114.359268 177.009354,114.342049 170.636185,115.560623 
	C163.805054,116.866760 158.395065,123.844482 159.603867,128.870483 
	C162.572388,141.213089 163.298111,153.847855 163.069061,166.380295 
	C162.875107,176.992493 165.214157,186.672607 169.141083,196.242783 
	C172.334702,204.025848 178.172989,207.839828 186.496002,207.999069 
	C190.469925,208.075089 192.779510,206.483963 193.868042,202.788132 
	C194.904785,199.268082 195.962448,195.606018 198.455948,192.924911 
	C202.236389,188.859970 201.979523,184.221985 201.396042,179.379425 
	C201.218201,177.903427 200.863678,176.445480 200.739609,174.966736 
	C199.399643,158.995682 201.225342,142.756195 196.380890,126.307510 
M136.484543,211.154358 
	C147.078918,216.891144 155.108124,212.079926 155.080734,200.340973 
	C155.031570,179.268234 153.864914,158.266769 151.989883,137.286880 
	C151.065399,126.942909 145.609543,121.138687 136.213608,121.014877 
	C124.481194,120.860283 116.219879,127.201782 112.441269,139.052017 
	C111.780495,141.124283 111.859352,142.594299 113.138084,144.509064 
	C117.859848,151.579330 120.404617,159.577957 119.988892,167.999817 
	C119.362221,180.694931 124.206123,191.694839 129.410065,202.653702 
	C130.887863,205.765762 132.785843,208.796585 136.484543,211.154358 
z"/>
</svg>