<svg version="1.1" id="Layer_1" xmlns="http://www.w3.org/2000/svg" xmlns:xlink="http://www.w3.org/1999/xlink" x="0px" y="0px"
	 width="100%" viewBox="0 0 336 384" enable-background="new 0 0 336 384" xml:space="preserve">
<path fill="#000000" opacity="1.000000" stroke="none" 
	d="
M283.482239,201.599258 
	C281.859344,220.689209 276.911835,238.588913 271.147919,256.290039 
	C262.742432,282.103363 253.038300,307.423126 241.556061,332.030060 
	C238.322433,338.959869 234.516968,345.626129 230.887314,352.366730 
	C228.511093,356.779572 224.773605,359.500244 220.236496,361.717255 
	C197.819565,372.670898 173.942337,377.617493 149.280106,377.703796 
	C125.705032,377.786316 102.617432,373.422333 80.301132,365.575714 
	C73.707703,363.257416 67.281120,360.462097 60.677284,358.176605 
	C54.315292,355.974854 50.562187,351.556549 48.326916,345.413940 
	C41.402737,326.386078 35.513786,307.081421 31.603628,287.176147 
	C29.477917,276.354950 26.165628,265.741455 24.488047,254.864685 
	C22.803110,243.940186 21.538458,232.908798 22.503651,221.696442 
	C23.229513,213.264328 23.614067,204.880692 25.518404,196.550125 
	C27.845861,186.368546 30.475121,176.291565 33.601875,166.341019 
	C35.490986,160.329132 37.538292,154.362915 39.671528,148.432663 
	C43.511169,137.758667 50.766544,130.503113 61.514374,126.659843 
	C70.469383,123.457672 79.400139,120.154602 89.135368,121.207138 
	C93.199455,121.646523 93.027077,119.166069 92.911987,116.574623 
	C92.461700,106.435013 93.883606,96.561073 98.913979,87.707695 
	C106.289200,74.727409 117.529564,67.104813 132.653000,66.107529 
	C136.420349,65.859093 138.038605,64.829750 137.917038,60.853508 
	C137.702423,53.834465 140.122131,47.575550 143.987656,41.723969 
	C150.712433,31.544079 166.079559,31.215698 173.767105,39.008778 
	C175.151627,40.412308 176.601013,41.751831 178.052429,43.151745 
	C180.201233,42.423435 180.859604,40.382408 182.048981,38.857849 
	C190.118774,28.513962 200.092926,21.214602 213.763504,22.075411 
	C226.382980,22.870033 235.675125,30.188574 243.063736,40.003021 
	C246.375671,44.402332 249.137375,49.156361 250.938477,54.415695 
	C251.957245,57.390564 253.025833,59.386581 257.004120,57.306034 
	C267.941345,51.586163 278.348999,54.214031 288.081909,60.554974 
	C301.826569,69.509537 307.196289,83.164505 308.215118,98.759979 
	C309.708405,121.618370 302.999908,143.067993 295.951050,164.373291 
	C292.716064,174.151047 289.157196,183.827347 285.492554,193.453461 
	C284.522400,196.001801 284.605865,198.699692 283.482239,201.599258 
M142.813568,367.618866 
	C162.559113,367.968353 181.867737,365.657471 200.788925,359.569397 
	C214.444717,355.175476 224.600876,348.250671 230.523132,334.174194 
	C239.614014,312.566223 249.297211,291.239471 257.035126,269.061554 
	C262.567078,253.206085 267.412384,237.183426 271.265533,220.866791 
	C272.016205,217.687973 273.213379,214.257019 272.261871,210.762939 
	C253.727905,213.911667 248.649673,211.628906 238.877655,195.549347 
	C237.631332,193.498550 236.317596,193.603592 234.341980,193.756088 
	C227.373947,194.294006 220.355759,194.693634 213.621323,192.219681 
	C210.303818,191.000977 207.106491,189.455078 203.108826,187.736542 
	C203.928543,190.588562 204.530350,192.626617 205.099777,194.673676 
	C207.196045,202.209747 209.710587,209.652985 210.840546,217.417877 
	C212.083878,225.961807 211.717239,233.895874 203.907852,239.949860 
	C189.363266,251.225082 168.255737,248.487457 157.740479,233.586349 
	C157.165649,232.771774 156.781204,231.813736 156.158218,231.043762 
	C152.875809,226.986816 151.319855,221.702011 146.827896,217.604309 
	C144.061951,227.432693 142.987274,236.902725 141.573990,246.356323 
	C139.152145,262.556549 140.614227,278.512054 142.976868,294.524597 
	C143.997833,301.444031 145.582535,308.193970 147.552216,314.886230 
	C148.425262,317.852509 148.145142,320.705475 144.746704,321.923859 
	C141.130890,323.220184 139.612335,320.710144 138.475433,317.909607 
	C138.167267,317.150513 138.080399,316.303009 137.875778,315.500214 
	C135.796890,307.344299 134.443726,299.059753 132.972046,290.776978 
	C131.388977,281.867157 131.775650,272.899109 131.231155,264.016907 
	C130.857437,257.920471 131.939667,251.474228 131.899948,245.167297 
	C131.880951,242.151245 134.201736,239.280075 132.552200,235.829163 
	C123.740578,240.722961 114.804276,240.597702 105.940445,237.151428 
	C93.895554,232.468323 85.315834,224.351135 82.825073,211.184860 
	C81.606842,204.745270 81.551613,204.101593 75.025955,204.372452 
	C66.531242,204.725067 58.522461,202.922470 50.762154,199.760406 
	C48.153763,198.697556 45.835503,196.829071 47.323055,193.643234 
	C48.626606,190.851456 50.814690,189.398544 54.245323,191.214127 
	C56.714840,192.521072 59.479271,193.419662 62.216549,194.039047 
	C67.094612,195.142853 72.070686,195.310852 78.066536,195.433334 
	C74.637283,189.651901 70.140656,186.713440 66.171982,183.307114 
	C60.677971,178.591599 55.664032,173.554337 53.188541,166.534012 
	C52.179382,163.672104 53.221954,161.508301 55.917240,160.456177 
	C58.690929,159.373444 61.064007,160.490402 61.948303,163.251999 
	C64.115562,170.020187 69.222115,174.231491 74.422066,178.433914 
	C81.761627,184.365524 88.385109,190.667480 90.148300,200.711349 
	C90.661240,203.633209 90.704414,206.634598 91.562134,209.526352 
	C94.917404,220.838531 102.581703,227.155670 113.845818,230.045547 
	C120.930161,231.863098 129.332123,228.555405 131.253860,221.560638 
	C132.371124,217.493958 133.658234,213.352081 133.681122,208.941406 
	C133.741013,197.400894 130.514343,186.674438 125.875809,176.333710 
	C119.374298,161.839828 111.336060,148.245728 100.701622,136.348175 
	C96.456528,131.598846 90.625641,129.610855 84.565445,130.155701 
	C79.364830,130.623245 74.231476,132.312454 69.111259,133.745056 
	C57.883717,136.886444 50.745140,143.558807 47.133617,154.741898 
	C40.611500,174.937607 34.328407,195.064072 31.876802,216.355972 
	C30.612391,227.337219 31.385708,238.014069 32.998249,248.567749 
	C35.412933,264.371307 39.252670,279.954834 42.992023,295.533752 
	C46.718582,311.059387 51.425388,326.255707 56.587482,341.332123 
	C57.809582,344.901337 59.963764,347.717377 63.703625,349.212311 
	C72.356628,352.671173 80.973648,356.211945 89.960602,358.745880 
	C106.953186,363.537170 124.223053,366.696930 142.813568,367.618866 
M160.885971,107.577736 
	C154.504135,97.182411 147.402298,87.358788 138.505585,78.916504 
	C135.664261,76.220299 132.654633,74.593971 128.616791,75.765381 
	C117.393257,79.021439 107.828102,85.359459 105.043007,96.736877 
	C102.104408,108.741394 97.839027,121.229691 109.518005,132.856827 
	C120.590172,143.879852 127.678070,158.320724 134.127640,172.590515 
	C143.343292,192.980331 155.001205,211.924896 166.880753,230.772629 
	C169.958664,235.655960 174.668167,238.270874 180.376526,237.783340 
	C185.969406,237.305664 191.506790,235.980469 196.683762,233.619781 
	C199.402969,232.379837 201.451965,230.301071 201.724152,227.262192 
	C202.064194,223.465698 202.101654,219.642532 201.171921,215.849136 
	C197.056290,199.057358 192.053131,182.525208 186.724518,166.088486 
	C180.191299,145.936035 172.239578,126.400513 160.885971,107.577736 
M246.883652,73.512810 
	C246.163010,70.442314 245.619263,67.317169 244.690506,64.310966 
	C241.023712,52.442020 235.615189,41.735634 224.431961,35.050098 
	C217.605362,30.969028 210.618591,29.920120 203.028259,33.131737 
	C195.195404,36.445992 190.522232,42.705433 186.104797,49.496799 
	C183.999496,52.733475 183.617218,55.167263 186.301193,58.291748 
	C188.662567,61.040691 190.551300,64.268280 192.264862,67.488754 
	C200.585266,83.126251 201.402786,100.025757 199.554535,117.077759 
	C198.199448,129.579636 198.680069,141.937439 199.887421,154.353760 
	C200.487701,160.527191 201.730682,166.560852 204.218842,172.243790 
	C207.219528,179.097244 211.980667,183.449615 219.990234,184.212433 
	C224.213409,184.614655 228.274445,183.851456 232.377167,184.061722 
	C237.413254,184.319809 240.026306,182.072693 241.574860,177.504562 
	C246.244064,163.730637 249.256439,149.644455 249.572937,135.090057 
	C250.014145,114.799736 250.035049,94.511055 246.883652,73.512810 
M257.265350,153.531219 
	C255.400146,164.516724 252.993683,175.408234 248.042130,185.429626 
	C245.379517,190.818436 247.817184,194.461197 250.902252,197.927139 
	C254.303009,201.747742 258.619354,203.849838 264.092896,202.722656 
	C271.890839,201.116791 275.200500,195.187943 277.589691,188.659943 
	C284.589813,169.533722 291.676331,150.449097 295.975952,130.432678 
	C299.036713,116.183571 300.927277,102.028992 296.877991,87.758797 
	C293.225281,74.885986 285.300201,66.198891 271.633484,63.753532 
	C262.772491,62.168060 254.975815,67.506531 256.405884,74.623459 
	C257.431458,79.727440 257.776947,84.790672 258.174133,89.921875 
	C259.795532,110.868286 259.778351,131.782806 257.265350,153.531219 
M189.949005,107.500343 
	C194.054520,84.057533 180.161682,66.786110 169.644562,48.363800 
	C169.241394,47.657600 168.585678,47.078438 167.986465,46.503895 
	C160.978668,39.784645 152.841049,41.483696 149.455200,50.587921 
	C146.980911,57.241070 146.645920,64.222946 147.254059,71.275993 
	C147.466492,73.739922 148.461075,75.650475 150.067917,77.480080 
	C158.220612,86.763031 165.412949,96.742729 171.549072,107.478897 
	C178.302704,119.295525 183.947906,131.642685 189.949875,144.177353 
	C189.949875,132.284973 189.949875,120.392593 189.949005,107.500343 
z"/>
</svg>