<svg version="1.1" id="Layer_1" xmlns="http://www.w3.org/2000/svg" xmlns:xlink="http://www.w3.org/1999/xlink" x="0px" y="0px"
	 width="100%" viewBox="0 0 320 384" enable-background="new 0 0 320 384" xml:space="preserve">
<path fill="#000000" opacity="1.000000" stroke="none" 
	d="
M207.146713,339.792908 
	C187.017349,341.470428 171.820648,330.055756 167.662491,310.682007 
	C164.993240,298.245361 164.992142,285.753571 165.180161,273.065033 
	C165.328827,263.031189 165.329453,252.846725 164.492981,241.934174 
	C161.183441,246.001831 158.987610,250.095566 155.437485,253.031250 
	C145.229355,261.472656 133.174881,262.049408 120.891312,260.756042 
	C111.825081,259.801453 102.776520,258.285217 94.197853,254.974213 
	C91.356728,253.877640 90.283905,255.078812 89.382538,257.430511 
	C85.985626,266.293152 84.321648,275.280212 86.347672,284.789307 
	C90.485100,304.208221 91.609673,323.985748 92.672737,343.732239 
	C92.945389,348.796722 91.997948,354.081085 90.725388,359.037048 
	C88.977982,365.842255 84.945908,371.615295 77.551041,372.517914 
	C70.171570,373.418640 63.969585,369.840210 59.405407,363.953308 
	C52.298832,354.787170 49.080978,343.859222 46.212177,332.922211 
	C41.488377,314.913239 39.179840,296.558533 37.869598,277.941406 
	C37.049416,266.287415 36.492744,254.646866 37.236767,243.107224 
	C38.333054,226.104050 38.838703,209.049316 40.986534,192.090363 
	C42.130688,183.056290 42.014431,173.755783 44.258129,164.943176 
	C46.674236,155.453415 44.524891,146.151169 44.453407,136.830536 
	C44.325405,120.139496 50.963680,107.782425 63.436050,97.065979 
	C83.145706,80.131134 101.333511,61.515118 119.745163,43.172504 
	C123.637459,39.294807 127.446075,35.269096 131.734924,31.868666 
	C137.968552,26.926294 145.854935,26.353806 153.325333,25.035568 
	C169.263870,22.223038 185.401932,21.386398 201.527863,22.014978 
	C220.087036,22.738405 238.631790,24.039522 256.953308,27.472643 
	C262.502777,28.512516 268.130798,29.136963 273.726990,29.922279 
	C278.090179,30.534569 280.099396,33.100929 280.117523,37.414825 
	C280.200684,57.205326 279.256531,76.841148 275.484009,96.406517 
	C271.890289,115.044533 264.337158,132.179962 257.749115,149.715683 
	C251.586868,166.117889 248.527084,183.280426 245.095520,200.353851 
	C242.223953,214.641174 239.294495,228.919754 236.677185,243.254501 
	C233.882248,258.562103 231.272537,273.875702 229.750122,289.418823 
	C228.772156,299.403442 228.773468,309.578979 225.810898,319.435242 
	C222.846939,329.296112 217.212524,336.144104 207.146713,339.792908 
M75.446777,98.959435 
	C71.305847,102.821609 67.178291,106.698242 63.021099,110.542839 
	C55.088463,117.879036 53.383453,127.124664 54.602100,138.161362 
	C62.365208,127.946609 69.930878,118.543167 75.631859,107.806496 
	C76.889549,105.437897 78.440796,102.776176 81.774048,104.536240 
	C84.878738,106.175629 85.573288,108.605530 83.849594,112.037926 
	C79.707756,120.285591 74.303429,127.666435 68.685669,134.893539 
	C60.275280,145.713303 53.918617,157.334122 52.230030,171.236679 
	C49.865929,190.700958 48.125034,210.250183 47.369251,229.797348 
	C46.103874,262.524567 45.790661,295.329681 54.348003,327.399719 
	C56.954166,337.166687 59.380985,347.078369 65.002930,355.690704 
	C67.694473,359.813873 71.089584,363.520081 76.754066,362.555511 
	C80.347794,361.943542 82.701897,356.865906 82.915596,350.481628 
	C83.289200,339.319824 82.747673,328.187592 81.611275,317.095001 
	C80.730812,308.500671 80.218246,299.771332 78.240891,291.409698 
	C75.350136,279.185669 75.288254,267.421936 80.301208,255.839615 
	C82.960648,249.695038 84.768478,243.346954 86.056885,236.786469 
	C88.090996,226.428894 91.402092,216.517532 97.203514,207.570175 
	C100.162460,203.006699 103.644875,198.831665 107.437660,194.519196 
	C103.225151,191.779266 98.947220,190.215622 95.550209,187.241257 
	C93.199303,185.182831 91.534912,183.047607 94.037949,180.051834 
	C96.287453,177.359482 98.571274,178.067963 100.985054,179.970261 
	C104.543419,182.774582 108.534546,184.673569 112.934799,185.950104 
	C125.286690,189.533524 137.932495,188.757446 150.527176,188.832748 
	C151.085693,188.836090 151.647263,188.329681 152.758636,187.796036 
	C149.314224,183.825623 145.480957,181.071945 141.252075,178.823456 
	C134.931900,175.463043 128.452957,172.371506 122.771629,167.937103 
	C120.346710,166.044403 118.586281,163.781815 120.922409,160.753265 
	C123.206169,157.792618 125.751297,158.594894 128.275497,160.637619 
	C132.828232,164.321960 137.814987,167.346649 143.060532,169.918945 
	C155.932449,176.231079 165.553024,185.220596 168.444778,199.974091 
	C171.606293,216.103836 172.787430,232.473679 174.107086,248.800674 
	C175.380890,264.560303 174.554260,280.399994 174.787857,296.197571 
	C174.955246,307.518555 177.776581,318.485565 187.179688,326.142731 
	C198.776489,335.586273 211.532806,332.403656 216.175064,318.713623 
	C220.249832,306.697144 220.044846,294.121185 221.416016,281.832489 
	C223.343628,264.556793 226.791916,247.599091 229.791367,230.548538 
	C232.161453,217.075607 235.813995,203.827499 238.158920,190.351120 
	C241.062561,173.663712 244.696747,157.148529 251.232880,141.561554 
	C264.175262,110.697350 271.814392,78.916542 271.038727,45.259914 
	C270.925934,40.365158 269.251007,38.237766 264.686829,37.737206 
	C259.071899,37.121407 253.426437,36.648003 247.866684,35.691605 
	C233.408127,33.204418 218.752029,32.732948 204.188446,31.588444 
	C187.079910,30.243937 169.887070,31.423243 153.004883,34.594021 
	C146.028702,35.904274 138.660583,36.687370 133.070694,42.602669 
	C114.770721,61.967945 95.471672,80.335457 75.446777,98.959435 
M94.982384,240.245575 
	C93.444443,244.218307 95.277031,245.844589 99.000916,247.010208 
	C110.827576,250.712097 122.776917,252.600845 135.214615,251.407898 
	C144.579483,250.509689 151.758469,246.530670 155.630447,237.825607 
	C160.270691,227.393265 162.763977,216.664215 160.093979,205.054932 
	C158.694687,198.970657 157.946838,197.723999 151.669052,198.376816 
	C150.226639,198.526810 148.731781,199.000229 147.443344,199.673599 
	C136.037003,205.634888 130.114288,215.329590 128.753433,227.906372 
	C128.427597,230.917572 128.299316,234.034302 124.542465,234.025528 
	C120.297737,234.015610 120.084572,230.624435 119.767517,227.250717 
	C119.288521,222.153961 121.458549,217.569107 122.412003,213.100311 
	C118.564178,209.055466 112.322250,211.769760 109.543442,206.588837 
	C100.821747,216.240311 97.566124,227.666092 94.982384,240.245575 
M131.164230,198.276047 
	C128.055405,197.857986 124.956711,197.316299 121.834587,197.060333 
	C119.258263,196.849106 117.014297,197.541107 116.013786,200.727127 
	C119.552025,201.734268 122.801994,203.098969 126.165451,203.491669 
	C129.449814,203.875137 131.620407,201.952209 131.164230,198.276047 
z"/>
</svg>