<svg version="1.1" id="Layer_1" xmlns="http://www.w3.org/2000/svg" xmlns:xlink="http://www.w3.org/1999/xlink" x="0px" y="0px"
	 width="100%" viewBox="0 0 400 384" enable-background="new 0 0 400 384" xml:space="preserve">
<path fill="#000000" opacity="1.000000" stroke="none" 
	d="
M346.432068,358.525635 
	C332.061340,367.905853 316.308929,371.421967 299.830994,372.236237 
	C287.017303,372.869446 274.208954,372.119720 261.453400,370.966583 
	C256.522217,370.520752 251.670334,368.943634 247.447815,366.154175 
	C223.596191,350.397278 200.609543,333.654205 184.468430,309.357910 
	C182.425461,306.282745 179.916901,305.097809 176.177231,304.998627 
	C169.406631,304.819092 162.642670,304.079071 155.895859,303.380615 
	C143.885208,302.137207 136.295395,294.776459 132.777924,284.032135 
	C129.103958,272.809753 122.834251,264.809387 112.378532,259.226593 
	C107.394157,256.565216 103.385094,251.780792 100.177803,246.876266 
	C98.167473,243.802124 95.778206,242.854630 92.262337,243.018570 
	C86.776550,243.274368 81.269722,243.065979 75.771881,243.081039 
	C72.634018,243.089630 69.761543,242.104050 69.450531,238.746918 
	C69.105461,235.022156 72.081490,233.468582 75.295486,233.319138 
	C80.725143,233.066681 86.175041,233.249878 91.833015,233.249878 
	C92.099800,227.354523 91.187729,222.385986 92.210480,217.480560 
	C94.004318,208.876785 98.826508,202.636841 106.871239,199.152786 
	C109.623039,197.961014 111.130318,196.238937 111.844398,193.444687 
	C112.336250,191.520020 112.975670,189.593063 113.845810,187.812073 
	C117.459259,180.416122 120.590019,173.169250 121.894257,164.658524 
	C123.846146,151.921463 132.901596,145.474152 145.775162,143.429199 
	C154.605042,142.026550 163.399948,141.105621 173.546280,141.510864 
	C167.343094,134.284103 161.651001,127.652779 155.990692,121.058464 
	C152.245285,122.764297 150.440750,125.714836 147.931763,127.835182 
	C145.879120,129.569870 143.718765,131.875717 141.127609,129.024963 
	C138.945435,126.624191 139.143036,123.585678 141.381882,121.359268 
	C143.723160,119.030991 146.594055,117.235275 149.619949,114.909706 
	C145.069016,109.977852 141.038330,107.365112 137.079391,104.789970 
	C122.421288,95.255440 107.564034,86.025742 92.951904,76.422401 
	C83.415733,70.155060 74.833328,62.805103 69.709267,52.226669 
	C69.129868,51.030518 68.486023,49.816906 68.194519,48.537899 
	C66.338455,40.394386 66.607964,41.236717 58.059902,41.177521 
	C52.395618,41.138294 46.730789,41.152611 41.066330,41.175129 
	C38.430222,41.185608 36.325932,40.441536 36.275795,37.388199 
	C36.226097,34.361374 37.914623,32.784382 40.947575,32.769390 
	C48.111362,32.733986 55.275330,32.715824 62.439190,32.723454 
	C64.928108,32.726105 66.772316,32.288185 67.815994,29.436676 
	C71.814026,18.513433 79.679001,15.203300 90.344841,19.958725 
	C97.634697,23.208948 104.941971,26.504227 111.891571,30.403042 
	C116.314194,32.884190 120.796356,32.772865 125.421860,32.718014 
	C128.670624,32.679485 131.113297,33.490562 131.220627,37.243961 
	C131.285049,39.496395 132.781082,40.437527 134.463669,41.238758 
	C152.933182,50.033672 171.437561,58.756023 189.860260,67.647697 
	C192.478439,68.911354 194.207855,68.444138 196.004623,66.484383 
	C197.353195,65.013474 198.756378,63.562817 200.303238,62.310673 
	C202.477234,60.550896 205.193222,60.220211 207.176392,62.085026 
	C209.267197,64.051064 208.643509,66.673157 206.865250,68.819763 
	C205.605652,70.340263 204.223709,71.759415 202.880142,73.241737 
	C203.236221,73.862839 203.367599,74.442543 203.721176,74.658600 
	C224.870560,87.581619 241.156876,106.051056 258.805084,122.959618 
	C269.971680,133.658234 281.640747,143.896454 290.004181,157.175644 
	C301.989105,176.204910 312.604034,196.020187 323.555450,215.637039 
	C339.241913,243.735611 352.734894,272.857513 363.158783,303.346100 
	C364.827179,308.226074 366.806793,313.062866 367.836548,318.084869 
	C369.967621,328.477783 365.622742,337.296661 359.996368,345.588165 
	C356.491272,350.753540 351.779480,354.729279 346.432068,358.525635 
M357.548096,329.895813 
	C359.331726,325.740753 359.629730,321.422241 358.131622,317.212708 
	C351.608368,298.882599 345.160950,280.524750 337.195404,262.740967 
	C325.807617,237.316772 311.977325,213.181931 298.467743,188.877258 
	C289.805023,173.292480 281.254791,157.574020 268.447693,144.853149 
	C256.870422,133.353851 245.047775,122.098915 233.221115,110.854233 
	C224.178665,102.256744 215.481049,93.249245 204.902237,86.412621 
	C196.328110,80.871567 196.339661,80.800987 188.474716,87.338531 
	C186.499084,88.980721 184.202972,90.042976 182.158936,88.341499 
	C179.795746,86.374359 180.372101,83.540802 181.682632,81.040146 
	C182.577179,79.333183 184.875076,78.562790 185.030975,76.019043 
	C184.282150,75.536766 183.511353,74.913643 182.641281,74.498650 
	C165.066345,66.116028 147.390961,57.937817 129.930588,49.323616 
	C120.028618,44.438412 110.412254,39.307705 98.746742,41.070004 
	C94.897324,41.651535 93.019058,39.239803 94.081734,35.498722 
	C94.904549,32.602039 93.442993,31.455961 91.339005,30.533937 
	C89.363220,29.668102 87.346672,28.820215 85.265739,28.283834 
	C79.564461,26.814276 76.783310,28.955496 76.225334,34.797440 
	C75.294235,44.545795 79.304771,52.248566 85.914497,58.949310 
	C95.753563,68.923859 108.141457,75.275940 119.731003,82.758759 
	C130.499298,89.711342 141.912384,95.727539 151.717926,104.069328 
	C154.526321,106.458488 156.284454,106.702484 158.685455,103.936775 
	C160.601715,101.729439 163.521179,100.510567 165.722244,102.636635 
	C167.897354,104.737625 167.745193,108.157288 165.347168,110.280045 
	C161.931442,113.303658 163.364548,115.320709 165.676392,118.115822 
	C175.682419,130.213593 186.637360,141.351944 198.478516,151.640961 
	C200.677383,153.551605 202.094086,155.720078 199.825958,158.510406 
	C197.628723,161.213516 195.385788,160.543869 192.867294,158.766037 
	C189.887054,156.662277 187.692719,153.275345 184.022552,152.369522 
	C168.707077,148.589554 153.629135,149.963211 138.973495,155.450317 
	C134.345108,157.183212 131.841568,161.130463 131.074387,166.185928 
	C129.346359,177.573227 134.007507,187.195129 138.709991,197.043335 
	C142.128204,204.201920 147.669128,208.246857 154.440964,211.495346 
	C167.333405,217.679962 181.122650,220.823502 194.994705,223.548615 
	C203.124359,225.145645 210.117752,221.847229 216.504044,217.122223 
	C215.126709,213.868881 212.750107,212.634445 210.344711,211.463638 
	C203.424271,208.095108 196.070724,205.998199 188.626907,204.197723 
	C181.885239,202.567093 179.076599,199.448090 177.675720,192.869476 
	C176.538147,187.527374 175.092865,182.227158 171.554352,177.782425 
	C169.762650,175.531860 168.857040,172.972794 171.505188,170.702545 
	C174.477402,168.154480 176.891937,170.051422 178.802475,172.245636 
	C182.468872,176.456497 185.084412,181.428772 186.009735,186.869583 
	C186.964447,192.483261 189.864929,194.940887 195.251678,196.237717 
	C204.647186,198.499634 213.984299,201.442123 221.389236,208.029404 
	C224.497070,210.794067 226.241882,209.844421 228.226440,207.286469 
	C232.597397,201.652695 235.295242,195.341568 236.203323,188.213165 
	C236.590561,185.173462 238.379684,182.509720 241.759720,183.111862 
	C245.239471,183.731735 246.545502,186.681946 245.650436,190.043793 
	C244.542084,194.206787 243.253830,198.350159 241.662933,202.350739 
	C237.893051,211.830780 231.225143,219.056580 222.435852,225.180252 
	C231.072784,225.129227 236.510437,223.044525 244.844009,216.659073 
	C247.286041,214.787903 249.595764,214.099426 251.875671,216.621826 
	C254.169876,219.160034 253.332825,221.518570 251.057343,223.573349 
	C247.588089,226.706070 243.893219,229.380554 239.505020,231.286438 
	C234.120453,233.625122 228.237473,233.896790 222.892517,235.709106 
	C222.131927,241.910233 220.612778,243.182617 214.861374,242.796799 
	C213.370712,242.696793 211.872452,242.656570 210.378403,242.669678 
	C203.724762,242.728027 197.071274,242.877090 190.417953,242.864838 
	C187.434586,242.859314 185.044357,241.603821 185.029099,238.262772 
	C185.015198,235.211380 187.201904,234.053207 189.985245,233.692612 
	C191.148331,233.541916 192.544235,234.076279 193.863953,232.632538 
	C174.712250,230.326462 157.359146,224.034012 141.036926,214.653107 
	C134.543411,210.921066 127.883247,207.537903 120.275894,206.410095 
	C111.889519,205.166794 103.706314,209.478958 101.958809,217.414948 
	C100.582764,223.663971 99.641190,230.422882 106.002045,235.226791 
	C106.624352,235.696747 107.338249,236.548401 107.355743,237.239456 
	C107.561584,245.367508 114.228157,248.633148 119.400085,252.651398 
	C129.435837,260.448547 141.029724,265.713867 152.294159,271.475281 
	C165.436325,278.197113 178.272018,285.654694 186.976547,297.864105 
	C199.966049,316.083771 215.134903,332.011871 233.218170,345.098694 
	C241.651428,351.201874 249.391525,358.957733 260.126129,360.801086 
	C270.073792,362.509399 280.205078,362.913269 290.350311,362.963837 
	C303.923492,363.031525 317.253662,361.820038 329.923248,356.729279 
	C342.429016,351.704285 352.309265,343.699310 357.548096,329.895813 
M166.037811,290.398071 
	C157.895142,284.590912 149.084320,280.036041 139.502502,275.433136 
	C144.272232,291.500183 156.102753,298.375916 170.606964,293.990997 
	C169.158615,292.845612 167.875214,291.830688 166.037811,290.398071 
M125.293282,197.590820 
	C127.983566,198.416412 128.270248,196.948273 127.514389,195.014526 
	C126.714470,192.968094 125.579895,191.052475 124.480522,188.858231 
	C120.490578,194.623840 120.550911,195.587402 125.293282,197.590820 
z"/>
<path fill="#000000" opacity="1.000000" stroke="none" 
	d="
M105.662613,169.977005 
	C103.453712,171.478683 101.532600,171.603271 100.050980,169.710480 
	C98.451324,167.666916 98.350471,165.032150 99.925766,163.212250 
	C106.106346,156.071976 112.680344,149.279846 119.969185,143.247803 
	C121.571091,141.922119 123.935356,141.425171 125.321442,143.412750 
	C127.092194,145.951920 126.858353,148.828857 124.628632,151.138245 
	C120.483154,155.431870 116.221565,159.613617 111.995911,163.829483 
	C110.001167,165.819626 107.977737,167.781036 105.662613,169.977005 
z"/>
<path fill="#000000" opacity="1.000000" stroke="none" 
	d="
M85.478966,189.997650 
	C79.087303,196.604248 72.912521,202.896942 66.691101,209.143173 
	C64.914970,210.926392 62.682701,213.198761 60.280159,211.151443 
	C57.751072,208.996277 57.851742,205.265274 59.900261,203.005020 
	C65.590988,196.726105 71.710541,190.825745 77.827126,184.949066 
	C79.652237,183.195541 82.316322,183.376923 84.436829,184.398666 
	C86.616142,185.448761 86.331810,187.645935 85.478966,189.997650 
z"/>
<path fill="#000000" opacity="1.000000" stroke="none" 
	d="
M187.001648,40.502182 
	C176.372070,41.644749 166.083694,40.987980 155.806396,41.141342 
	C153.161636,41.180809 151.065475,39.892879 151.106247,37.114433 
	C151.144943,34.477005 153.110397,32.867779 155.733353,32.838459 
	C165.359879,32.730862 174.993011,32.605530 184.613647,32.862091 
	C188.832718,32.974606 189.819870,36.103943 187.001648,40.502182 
z"/>
<path fill="#000000" opacity="1.000000" stroke="none" 
	d="
M36.930157,225.627838 
	C39.207958,223.712662 41.610683,223.119064 43.634106,224.686737 
	C46.362556,226.800674 44.574738,229.889175 44.407757,232.676285 
	C45.467731,233.248810 46.539104,233.704941 47.472088,234.358627 
	C49.077633,235.483505 50.046833,237.068115 49.583523,239.061981 
	C49.036453,241.416321 47.342957,242.819244 44.975224,242.971573 
	C41.826984,243.174118 38.656197,242.999481 35.501350,243.133789 
	C32.383564,243.266525 30.169676,242.411407 28.766129,239.257599 
	C27.345003,236.064285 28.252834,233.947189 30.615236,231.840881 
	C32.722286,229.962204 34.642185,227.873657 36.930157,225.627838 
z"/>
<path fill="#000000" opacity="1.000000" stroke="none" 
	d="
M212.499451,41.070473 
	C209.492310,40.247910 208.745255,38.341995 209.292114,35.967331 
	C209.876724,33.428654 211.895355,32.755413 214.263504,32.759361 
	C219.251770,32.767673 224.243134,32.853512 229.227142,32.704258 
	C231.995682,32.621353 233.442932,33.819275 234.462799,36.297256 
	C235.400620,38.575897 235.488647,40.554825 233.554581,42.165081 
	C230.723495,44.522186 229.123672,48.700878 224.571396,48.554901 
	C223.155289,48.509487 221.727646,47.565823 221.658051,46.215420 
	C221.332199,39.892120 216.689667,41.327152 212.499451,41.070473 
z"/>
<path fill="#000000" opacity="1.000000" stroke="none" 
	d="
M156.630981,233.035278 
	C158.558136,233.261581 160.108963,233.260132 161.481674,233.753922 
	C163.678833,234.544250 165.148010,236.216339 164.888870,238.674744 
	C164.658112,240.864182 163.091034,242.631210 161.023361,242.680771 
	C151.069412,242.919266 141.106537,242.975555 131.151123,242.820236 
	C128.813766,242.783768 127.285080,240.780502 127.074615,238.421890 
	C126.871613,236.146896 128.527145,234.801132 130.371307,233.868347 
	C132.534271,232.774292 134.924118,233.091919 137.235138,233.074707 
	C143.548096,233.027710 149.861526,233.040573 156.630981,233.035278 
z"/>
</svg>