<svg version="1.1" id="Layer_1" xmlns="http://www.w3.org/2000/svg" xmlns:xlink="http://www.w3.org/1999/xlink" x="0px" y="0px"
	 width="100%" viewBox="0 0 352 368" enable-background="new 0 0 352 368" xml:space="preserve">
<path fill="#000000" opacity="1.000000" stroke="none" 
	d="
M292.159027,232.047333 
	C279.999176,263.857178 264.634460,293.387207 242.584900,319.136444 
	C233.844223,329.343689 222.525818,334.595886 209.755264,337.648407 
	C189.351349,342.525452 168.739563,345.666595 147.731964,345.166992 
	C121.624847,344.546112 96.370331,339.614807 72.242165,329.329193 
	C68.141701,327.581207 65.892853,324.730835 64.936577,320.566132 
	C60.409012,300.848297 53.349213,281.863495 48.077686,262.363495 
	C45.663345,253.432587 43.821896,244.395737 42.519039,235.188049 
	C40.417336,220.334702 39.304794,205.474167 40.027004,190.518997 
	C40.802883,174.452545 42.156765,158.426117 43.723351,142.407532 
	C44.968208,129.678619 46.711662,117.084251 50.130032,104.779106 
	C52.711758,95.485657 55.735271,86.289886 61.624687,78.421997 
	C69.202042,68.299141 79.165939,64.044708 91.726601,66.660767 
	C95.221863,67.388733 97.224281,66.383430 98.629349,62.887489 
	C103.327393,51.198292 110.234428,41.583656 123.236908,37.915276 
	C128.019043,36.566101 129.385544,36.483944 142.008392,40.322998 
	C148.479706,24.848005 162.536652,21.465300 177.134140,19.227894 
	C186.138779,17.847721 197.942001,25.001883 202.286484,34.036636 
	C203.431274,36.417343 204.528946,38.820702 205.848587,41.641914 
	C229.923019,23.919130 247.013321,34.126446 261.532349,55.905987 
	C263.466705,53.162994 264.946625,50.806499 266.677917,48.652027 
	C276.553192,36.363087 288.309418,27.563213 305.070740,27.970148 
	C315.758545,28.229631 324.934021,36.404888 327.134277,46.894985 
	C330.185791,61.443268 325.614258,74.484680 320.101013,87.427246 
	C315.548279,98.114952 310.031372,108.376442 307.007050,119.723099 
	C304.110748,130.589523 303.862885,141.701294 303.117889,152.770355 
	C302.749512,158.243347 302.925049,163.764328 303.065491,169.258194 
	C303.615753,190.788254 299.899597,211.563889 292.159027,232.047333 
M55.723831,257.671997 
	C61.632248,277.019135 68.305038,296.137756 73.231285,315.776306 
	C73.946831,318.628845 75.223930,320.528717 77.957962,321.648682 
	C98.574783,330.094299 120.082390,334.684692 142.268295,335.499176 
	C153.170563,335.899384 164.080032,335.633453 175.083237,334.337189 
	C188.664078,332.737213 201.825623,329.783905 214.960770,326.427307 
	C220.647263,324.974182 225.548996,321.882812 229.928726,317.771881 
	C238.864944,309.384064 246.275375,299.822998 253.046661,289.672577 
	C266.620026,269.325684 276.770874,247.276138 285.246002,224.450073 
	C289.392578,213.282059 292.442780,201.680084 293.006805,189.702820 
	C293.851471,171.765274 293.959625,153.790863 294.948212,135.863388 
	C295.335785,128.833893 296.680969,121.831856 298.561859,114.910355 
	C301.957764,102.413879 308.552643,91.357742 313.397217,79.528587 
	C316.748840,71.344841 319.472321,62.784664 318.522430,53.938725 
	C317.182007,41.456165 312.431458,36.061783 299.294403,37.620399 
	C287.853363,38.977795 279.843262,45.996498 273.584259,54.938728 
	C268.796326,61.779205 265.382965,69.192566 266.944214,78.226044 
	C268.270050,85.897629 268.404572,93.746529 268.382843,101.581474 
	C268.365234,107.928963 267.012543,114.166344 267.151611,120.470421 
	C267.354645,129.674042 265.943085,138.675232 264.134186,147.604980 
	C261.812347,159.066742 255.502792,167.478226 243.767715,170.473511 
	C233.428116,173.112656 224.837463,169.282471 217.594177,161.893768 
	C216.694122,160.975632 215.873367,159.311584 214.382187,160.195663 
	C211.047501,162.172699 206.910599,162.416626 203.836166,164.465134 
	C177.088135,182.287430 165.644135,210.952103 171.319748,242.006927 
	C173.237854,252.502090 176.288437,262.714539 180.001526,272.716766 
	C180.991653,275.383942 181.081787,277.859863 178.083328,278.973419 
	C175.091171,280.084625 172.462051,279.359772 171.305786,275.904358 
	C171.094376,275.272644 170.893250,274.637299 170.671310,274.009277 
	C166.677841,262.710205 163.411560,251.252167 161.458084,239.375076 
	C157.799316,217.129944 163.156281,197.194870 175.724258,178.827255 
	C179.648163,173.092606 185.038315,168.637192 190.048157,162.728683 
	C187.220200,162.363907 185.787994,160.669693 183.047775,161.138885 
	C180.734406,171.836456 175.361496,180.376572 163.796783,183.342484 
	C151.947296,186.381424 143.585587,180.834824 136.441391,171.556732 
	C128.876938,178.857147 120.592361,179.679932 111.667526,174.762405 
	C107.176704,172.287949 103.653999,168.859711 101.023056,164.471313 
	C98.103050,159.600769 95.654602,154.498810 93.635727,149.202133 
	C92.586693,146.449951 90.947624,145.502609 87.910088,145.758621 
	C82.944168,146.177139 77.928291,146.146713 72.937065,146.070724 
	C69.605194,146.020004 66.289291,145.508865 63.227188,144.011536 
	C61.122398,142.982315 60.408588,141.235840 60.900330,139.036545 
	C61.355145,137.002396 62.743355,135.938263 64.828239,135.851425 
	C67.000435,135.760941 69.112770,136.154083 71.260475,136.471497 
	C75.895699,137.156555 80.600525,137.633041 85.607254,136.148514 
	C83.240402,131.369308 79.771675,128.434998 76.688362,125.225937 
	C74.409798,122.854431 72.481377,120.213303 75.204529,117.476883 
	C78.023804,114.643875 80.961105,116.276627 83.457832,118.763588 
	C92.189247,127.460884 98.807518,137.510468 103.397667,148.964890 
	C105.942467,155.315277 108.802971,161.562012 114.740097,165.663086 
	C122.058617,170.718414 127.611626,169.295700 131.323639,161.312607 
	C132.872513,157.981598 133.743866,154.533264 133.904144,150.750565 
	C134.695984,132.063873 128.712189,115.418114 118.967262,99.888985 
	C113.710800,91.512512 107.754219,83.702545 98.859848,78.771004 
	C85.905167,71.588181 74.537529,74.729210 66.999130,87.411255 
	C64.601669,91.444565 62.725025,95.712143 61.285187,100.130989 
	C55.862602,116.772835 53.563705,133.984680 52.217342,151.362350 
	C51.550030,159.975464 50.836823,168.586716 49.996017,177.184311 
	C48.647148,190.977005 48.722389,204.834915 49.777927,218.568375 
	C50.765133,231.412827 52.441494,244.281357 55.723831,257.671997 
M209.632339,90.773666 
	C206.600067,75.291000 202.030746,60.222290 197.123199,45.262138 
	C194.735733,37.984200 191.376160,30.855984 182.823227,29.489273 
	C173.156097,27.944521 163.894775,29.925085 155.973618,36.028656 
	C150.917755,39.924389 149.317993,46.730526 152.398346,51.642181 
	C156.755432,58.589634 159.832123,66.104813 163.000900,73.590340 
	C172.875229,96.916168 181.721985,120.540100 183.308228,146.185806 
	C183.427444,148.113068 183.880295,149.856598 185.632599,150.887711 
	C192.241226,154.776443 199.338562,156.657806 206.578491,153.424591 
	C213.181854,150.475693 214.430405,144.132217 214.864822,137.538956 
	C215.283936,131.178070 213.916306,124.962616 213.735184,118.657600 
	C213.471909,109.492195 211.483505,100.564865 209.632339,90.773666 
M253.425217,62.151268 
	C252.835068,60.956532 252.306366,59.726574 251.645096,58.572582 
	C245.826385,48.418110 238.174866,41.356941 225.373718,42.276031 
	C214.905716,43.027607 209.148407,51.024498 211.892746,60.946682 
	C214.280411,69.579353 216.362015,78.306541 218.271133,87.059082 
	C220.425018,96.933846 221.825729,106.935486 222.947357,116.993568 
	C224.148804,127.767319 225.232681,138.486740 222.521606,149.161499 
	C221.802170,151.994186 222.941025,154.021255 224.641388,155.954742 
	C229.994995,162.042496 237.022797,162.475372 243.926376,160.381683 
	C251.151810,158.190323 254.821579,151.956039 255.584381,144.852066 
	C257.589569,126.177612 259.674225,107.467201 258.711639,88.625504 
	C258.262207,79.827492 256.863525,71.158745 253.425217,62.151268 
M173.897278,149.529266 
	C174.497589,142.114105 172.476364,134.983658 171.211334,127.823738 
	C168.624466,113.182365 163.644272,99.214928 157.755554,85.598526 
	C153.143692,74.934601 149.575851,63.757713 142.670517,54.184769 
	C136.118729,45.101955 124.693794,44.049953 116.719574,51.729084 
	C111.784302,56.481731 108.837784,62.389427 106.395103,68.630249 
	C105.670380,70.481842 105.671516,71.997787 107.618820,73.375046 
	C116.499313,79.655914 122.965919,88.118195 128.325455,97.408257 
	C135.506943,109.856483 141.243744,122.771683 142.619736,137.448303 
	C143.236115,144.022629 142.472351,150.368607 142.302902,156.825928 
	C142.057510,166.178284 147.068405,172.691422 154.995728,174.061386 
	C163.524109,175.535217 170.437408,171.343536 173.199890,162.914078 
	C174.527237,158.863800 173.691986,154.646652 173.897278,149.529266 
z"/>
</svg>