<svg version="1.1" id="Layer_1" xmlns="http://www.w3.org/2000/svg" xmlns:xlink="http://www.w3.org/1999/xlink" x="0px" y="0px"
	 width="100%" viewBox="0 0 256 416" enable-background="new 0 0 256 416" xml:space="preserve">
<path fill="#000000" opacity="1.000000" stroke="none" 
	d="
M176.628952,52.184769 
	C189.516617,50.682251 201.480743,60.687878 203.438995,74.686165 
	C205.146118,86.889221 205.082321,99.236916 206.565872,111.373466 
	C209.069397,131.854431 208.471619,152.470688 210.680603,172.946854 
	C211.961670,184.821472 211.850784,196.862137 212.021484,208.833008 
	C212.092178,213.791306 212.999039,218.221634 215.365921,222.653229 
	C221.875229,234.840805 227.480621,247.485870 233.512115,259.910583 
	C241.065750,275.470947 239.508133,290.559021 234.492310,306.315796 
	C226.919785,330.104279 215.049454,351.857574 203.935318,373.996582 
	C200.725021,380.391357 197.573898,386.818939 194.556259,393.306213 
	C192.575882,397.563629 189.304260,399.875763 184.881012,401.145386 
	C164.332336,407.043457 143.403030,410.618317 122.017723,409.885040 
	C102.275711,409.208130 82.700317,406.712372 63.672966,400.972839 
	C59.427891,399.692352 56.631634,397.291260 54.959721,392.928680 
	C48.427326,375.883453 41.936394,358.814880 37.632587,341.058716 
	C34.170761,326.776306 31.078735,312.433990 29.403381,297.733002 
	C28.457253,289.430847 28.521814,281.194153 27.929150,272.943848 
	C26.870094,258.201050 30.180519,244.273026 34.693417,230.450165 
	C37.950745,220.473038 38.937149,210.102097 40.179813,199.698593 
	C42.196644,182.813812 41.099331,165.791641 43.155148,148.985306 
	C44.922852,134.534332 46.571953,119.946091 52.945007,106.493904 
	C58.662678,94.425125 66.907562,91.430840 78.881248,97.171371 
	C79.604790,97.518257 80.395065,97.725945 81.395882,98.085098 
	C84.583626,92.150658 83.478401,85.606583 84.891533,79.556541 
	C87.082375,70.176888 90.128731,61.332333 97.079277,54.374699 
	C102.465729,48.982738 108.819199,46.294090 116.561172,48.515736 
	C118.912758,49.190548 120.103851,48.536297 120.946442,46.018013 
	C123.548409,38.241428 128.290009,32.387554 136.381287,29.547049 
	C148.850967,25.169474 160.644577,31.524290 163.452072,44.398869 
	C164.291245,48.247120 164.982819,52.127563 165.797455,56.275551 
	C169.485336,54.852695 172.850571,53.554329 176.628952,52.184769 
M41.414791,315.092407 
	C42.674587,318.531311 42.976452,322.216766 43.688770,325.749664 
	C48.039673,347.328827 54.946339,368.062500 63.286396,388.369324 
	C64.124451,390.409821 65.093536,392.032135 67.567139,392.759552 
	C79.988693,396.412354 92.675095,399.174835 105.527550,399.717407 
	C130.595154,400.775635 155.690002,400.902222 180.028687,392.927917 
	C182.833420,392.009003 184.749207,390.888580 186.042679,388.359802 
	C190.742599,379.171265 195.473770,369.998627 200.225143,360.836578 
	C210.567932,340.892639 220.888275,320.978394 226.991455,299.150604 
	C230.453171,286.769989 229.930191,275.034332 224.846939,263.229675 
	C219.242371,250.214432 212.408295,237.803955 206.590897,224.907043 
	C204.841583,221.028885 202.036148,218.749374 198.251831,217.633957 
	C183.803818,213.375427 170.367035,206.764755 156.943268,200.118423 
	C153.327164,198.328049 149.535202,197.088791 145.608902,196.370560 
	C139.991638,195.343002 137.343185,197.795456 137.823044,203.514923 
	C138.712250,214.113617 143.254211,222.544418 152.566360,228.185791 
	C157.577606,231.221634 162.915680,233.537827 168.267471,235.836105 
	C171.504150,237.226105 173.052536,239.284851 173.216721,243.044846 
	C173.713867,254.430923 178.789948,263.419250 188.413208,269.704376 
	C191.052948,271.428436 193.664795,273.267822 191.431488,276.880920 
	C189.180450,280.522675 186.292801,278.970734 183.659485,277.338287 
	C174.630417,271.741119 168.775055,263.711029 165.748489,253.576447 
	C165.284134,252.021500 165.265991,250.228500 163.358337,249.594986 
	C161.835541,249.809402 161.023468,250.940598 160.130646,251.893951 
	C138.496658,274.995239 128.409531,301.873718 133.539551,333.665283 
	C134.127548,337.309113 134.040680,340.850281 129.871155,341.669495 
	C125.141418,342.598816 125.051598,338.222229 124.039711,335.190125 
	C123.936607,334.881195 123.930962,334.531555 123.923843,334.199890 
	C123.739525,325.615143 122.605736,317.180359 123.602837,308.413239 
	C125.512207,291.624878 131.069626,276.493652 139.944763,262.351379 
	C144.740982,254.708725 150.988098,248.268250 157.564835,241.722931 
	C156.518555,240.907532 155.968369,240.239868 155.264801,239.965591 
	C140.334503,234.145035 132.114288,223.136703 128.568222,207.617691 
	C125.594612,194.603989 134.541595,184.496841 147.512695,187.396576 
	C149.135178,187.759293 150.774765,188.084808 152.355606,188.587418 
	C158.079758,190.407333 158.557922,190.095123 158.600235,183.955444 
	C158.746033,162.793625 159.310867,141.622757 158.884872,120.472084 
	C158.406296,96.710915 158.916031,72.868858 154.931885,49.274849 
	C153.686569,41.900089 151.251068,38.275291 145.655823,37.257805 
	C140.356094,36.294048 134.746384,39.256725 131.659866,44.798241 
	C128.648727,50.204422 127.861740,55.954247 128.865601,62.089386 
	C130.350418,71.163940 129.579254,80.282585 129.429901,89.432678 
	C128.959778,118.232674 129.550491,147.047714 128.054214,175.836639 
	C127.725914,182.153229 127.931969,188.496307 127.679192,194.818680 
	C127.556328,197.891571 126.076538,200.783340 122.733383,200.681625 
	C119.057724,200.569809 117.993248,197.455704 118.104713,194.161682 
	C118.340744,187.186188 118.849602,180.216949 118.957497,173.240662 
	C119.294998,151.419449 119.496422,129.596130 119.759140,107.773727 
	C119.771149,106.776123 119.826813,105.775444 119.928978,104.783073 
	C121.312515,91.344139 121.577766,77.907661 119.489487,64.518936 
	C118.359886,57.276703 111.407654,54.684826 105.540924,59.257965 
	C101.108292,62.713219 97.707344,67.010002 96.246918,72.533440 
	C94.553169,78.939331 93.578468,85.441284 92.924576,92.076126 
	C91.261024,108.955772 90.142174,125.866585 89.721771,142.800339 
	C89.349785,157.783737 89.798042,172.788040 89.914940,187.782867 
	C89.983711,196.603973 90.112633,205.424622 90.214180,214.245468 
	C90.250885,217.434570 88.448235,219.588013 85.553291,219.740845 
	C82.452431,219.904572 80.963562,217.481689 80.747902,214.464264 
	C80.664902,213.302765 80.699936,212.132095 80.698418,210.965591 
	C80.665016,185.300278 80.644638,159.634964 80.595734,133.969681 
	C80.582153,126.842415 80.904869,119.745827 79.016457,112.680130 
	C77.537628,107.146912 75.296913,104.262054 69.971092,103.574638 
	C64.931160,102.924118 62.910568,106.425125 61.167450,110.169609 
	C57.631927,117.764465 55.884380,125.957176 54.496525,134.075546 
	C51.386047,152.270508 51.112312,170.773453 50.205681,189.161484 
	C49.349602,206.524124 46.799732,223.442322 41.645737,240.017197 
	C37.927582,251.974503 35.082565,264.201080 36.696373,276.756134 
	C38.301205,289.241333 38.441135,301.903168 41.414791,315.092407 
M168.409363,194.510880 
	C168.899704,195.894531 170.097763,196.491776 171.276581,197.133331 
	C179.188156,201.439133 187.442123,204.970428 196.013718,207.699356 
	C201.426239,209.422501 202.513550,208.708282 202.351425,202.735687 
	C201.958817,188.272797 201.414642,173.807800 200.568771,159.364899 
	C199.295212,137.618729 197.766464,115.886833 196.230743,94.157028 
	C195.704056,86.704796 195.302887,79.198563 193.333115,71.945084 
	C191.598938,65.559204 185.107361,60.412830 179.522949,60.640743 
	C173.509903,60.886143 169.443695,64.866379 168.083344,72.394905 
	C166.622620,80.478920 168.219162,88.607956 168.193527,96.722443 
	C168.091400,129.045517 168.212006,161.369278 168.409363,194.510880 
z"/>
</svg>