<svg version="1.1" id="Layer_1" xmlns="http://www.w3.org/2000/svg" xmlns:xlink="http://www.w3.org/1999/xlink" x="0px" y="0px"
	 width="100%" viewBox="0 0 490 306" enable-background="new 0 0 490 306" xml:space="preserve">
<path fill="none" opacity="1.000000" stroke="#000000" stroke-linecap="round" stroke-linejoin="round" stroke-width="7.000000"
	d="
M244.500000,238.000000 
	C245.377609,235.968765 246.782394,234.341949 248.505905,233.007629 
	C257.420013,226.106400 267.196472,221.155197 278.491821,219.445999 
	C281.381897,219.008682 283.526001,217.037430 284.990051,214.494263 
	C287.009369,210.986526 290.411316,209.593628 294.002319,208.507675 
	C306.900848,204.607010 320.166412,202.767029 333.479797,200.859085 
	C353.009796,198.060242 371.508789,192.006332 388.552704,181.586197 
	C405.429321,171.268311 421.006927,159.359573 436.116760,146.638672 
	C445.137238,139.044388 448.629211,129.398422 449.947601,118.493668 
	C451.820984,102.998871 451.730591,87.408905 449.351959,72.022881 
	C447.365814,59.175449 444.467163,46.438194 440.503632,33.998848 
	C438.941833,29.097277 436.780823,26.278391 430.522583,25.738413 
	C408.206085,23.812880 385.917847,21.949169 363.500610,22.523634 
	C348.612122,22.905165 333.815399,24.551815 318.990936,25.900362 
	C305.189484,27.155846 291.506195,29.297676 278.041626,32.193504 
	C256.990662,36.720924 236.219345,42.212742 216.406143,51.295246 
	C196.505112,60.418011 177.248444,70.647148 157.941345,80.889450 
	C138.187500,91.368767 118.697960,102.220100 99.983604,114.474968 
	C76.750809,129.688675 55.207882,146.876678 36.462700,167.466034 
	C33.388916,170.842224 32.126358,175.020966 30.604008,179.039398 
	C29.275814,182.545334 33.167080,188.557724 37.507175,190.483841 
	C43.973141,193.353409 50.764385,193.520020 57.485134,191.936890 
	C67.248161,189.637115 76.295204,185.525467 85.030334,180.553299 
	C100.589088,171.697052 116.111580,162.722885 132.113403,154.726944 
	C138.182724,151.694153 144.199738,148.042252 151.009949,146.545288 
	C151.769302,146.378372 152.819092,146.071182 153.500000,147.000000 
"/>
<path fill="none" opacity="1.000000" stroke="#000000" stroke-linecap="round" stroke-linejoin="round" stroke-width="7.000000"
	d="
M258.500000,154.500000 
	C257.985016,160.456757 252.942139,162.583679 248.968933,165.457047 
	C239.565643,172.257446 230.233551,179.201233 220.445816,185.414642 
	C205.400681,194.965546 191.522598,206.107330 178.249405,217.783508 
	C170.068390,224.980179 161.769760,233.269470 161.405121,245.997284 
	C160.967590,261.270294 172.734329,268.341034 185.499741,268.322876 
	C192.388351,268.313080 198.944626,265.770355 205.081100,262.136993 
	C208.484390,260.121948 211.938766,257.712830 216.011047,257.069946 
	C217.473038,256.839111 217.761459,255.913574 218.606277,255.112015 
	C224.102875,249.896698 229.259705,243.980637 237.500000,243.000000 
"/>
<path fill="none" opacity="1.000000" stroke="#000000" stroke-linecap="round" stroke-linejoin="round" stroke-width="8.000000"
	d="
M255.500000,151.500000 
	C247.749557,153.304504 240.858139,150.124985 234.033661,147.415237 
	C226.141632,144.281616 218.353836,140.885803 210.895462,136.685638 
	C208.029053,135.071426 206.793549,132.857574 204.700562,130.539612 
	C196.982941,128.231888 189.611038,132.257172 182.037903,134.151535 
	C174.861588,135.946655 167.826019,138.613876 161.070969,141.657501 
	C157.517441,143.258606 153.975983,144.743668 154.056335,151.005692 
	C154.161896,159.232224 153.295410,167.310043 155.377426,175.531036 
	C157.805084,185.116760 161.951233,193.890854 166.585632,202.453659 
	C169.501801,207.841721 171.675430,213.795425 176.500000,218.000000 
"/>
<path fill="none" opacity="1.000000" stroke="#000000" stroke-linecap="round" stroke-linejoin="round" stroke-width="8.000000"
	d="
M299.000000,114.500000 
	C290.037933,128.477020 278.996704,140.631409 266.493805,151.492859 
	C260.981689,156.281296 257.968811,155.519089 255.576141,148.474136 
	C254.732971,145.991501 252.811142,144.506638 251.444962,142.538193 
	C247.093506,136.268433 241.718369,130.570847 238.252991,123.869179 
	C235.590851,118.720833 232.138519,113.601997 231.500000,107.500000 
"/>
<path fill="none" opacity="1.000000" stroke="#000000" stroke-linecap="round" stroke-linejoin="round" stroke-width="8.000000"
	d="
M224.500000,145.000000 
	C218.920364,153.767731 213.314682,162.551239 205.933334,169.933334 
	C203.000763,172.866196 203.119736,175.738358 204.521957,178.990540 
	C206.263672,183.030045 208.166672,187.000000 210.000000,191.000000 
"/>
<path fill="none" opacity="1.000000" stroke="#000000" stroke-linecap="round" stroke-linejoin="round" stroke-width="8.000000"
	d="
M237.000000,123.500000 
	C230.529419,125.807213 223.755829,126.013229 217.005371,126.565659 
	C212.828430,126.907486 208.361954,127.017570 205.500000,131.000000 
"/>
<path fill="none" opacity="1.000000" stroke="#000000" stroke-linecap="round" stroke-linejoin="round" stroke-width="8.000000"
	d="
M268.500000,223.500000 
	C270.576843,230.462387 265.779480,234.357437 261.399200,237.874451 
	C257.674316,240.865250 252.550369,242.889313 248.110535,240.309769 
	C243.160202,237.433640 240.670700,239.516159 237.920181,242.720871 
	C240.029907,250.098953 238.875885,254.248627 232.953018,257.924286 
	C228.179108,260.886902 222.443130,262.424408 218.000000,257.500000 
"/>
</svg>