<svg version="1.1" id="Layer_1" xmlns="http://www.w3.org/2000/svg" xmlns:xlink="http://www.w3.org/1999/xlink" x="0px" y="0px"
	 width="100%" viewBox="0 0 288 368" enable-background="new 0 0 288 368" xml:space="preserve">
<path fill="#000000" opacity="1.000000" stroke="none" 
	d="
M84.600060,60.700134 
	C89.214928,60.642445 88.483971,57.524097 88.632164,54.944481 
	C89.453239,40.651226 96.082565,30.006990 109.484154,24.785204 
	C120.456291,20.510029 131.039886,22.308491 140.199646,30.232574 
	C141.807755,31.623739 143.053894,33.498989 145.475006,34.230030 
	C154.221252,24.242720 164.233521,16.898321 178.655579,19.520872 
	C192.359665,22.012861 201.088608,30.363707 206.248276,43.381557 
	C212.755112,40.509396 218.867935,37.959427 225.844818,37.563389 
	C244.808243,36.486946 263.696533,48.605682 266.397644,69.231903 
	C267.809082,80.009743 265.592468,90.439301 265.844543,101.067970 
	C266.104889,112.045914 267.590668,122.959846 267.207916,133.952744 
	C266.508331,154.045395 266.283905,174.175964 262.545898,194.025467 
	C262.143921,196.160004 262.621246,197.931610 263.404480,199.802933 
	C269.886108,215.288849 268.823029,230.361511 260.375641,244.764694 
	C245.880539,269.479431 233.207443,295.182709 219.174271,320.145050 
	C217.787964,322.611053 216.119461,324.921844 214.787766,327.414612 
	C208.018433,340.086121 196.080139,344.673096 183.176346,347.837311 
	C165.334427,352.212524 147.206329,354.564423 128.878036,353.795258 
	C114.818077,353.205261 100.773331,352.060760 86.814262,349.636963 
	C76.026566,347.763916 65.294724,345.768982 54.624527,343.337433 
	C49.744476,342.225403 46.330593,339.753143 43.905128,335.283539 
	C34.524799,317.997681 30.456669,299.430176 29.002295,279.947815 
	C27.580505,260.902008 26.043282,241.890549 25.885349,222.773590 
	C25.747442,206.080978 27.387806,189.676086 31.861567,173.560669 
	C36.517422,156.789337 41.468842,140.079651 45.404724,123.137123 
	C47.494816,114.140053 48.269051,104.729767 48.650768,95.465355 
	C49.490620,75.082184 63.790543,60.780766 84.600060,60.700134 
M142.196564,234.685654 
	C132.621628,247.252670 126.342842,261.143280 125.010277,277.066956 
	C124.762589,280.026703 123.303680,282.204987 119.925690,282.013916 
	C116.415215,281.815369 115.560921,279.396393 115.795776,276.411011 
	C116.397667,268.760223 117.996719,261.320129 120.781448,254.154312 
	C128.947281,233.141464 143.487946,217.150513 160.888580,203.458481 
	C166.549652,199.003937 172.411606,194.804657 179.324677,189.633682 
	C164.836548,190.467575 152.115692,189.244537 140.682236,182.774246 
	C129.327179,176.348358 120.991585,167.565659 121.295158,153.172302 
	C121.382408,149.035187 123.867706,145.741440 124.534889,141.990723 
	C118.325691,137.291977 118.132851,137.083633 115.576210,139.449997 
	C105.305748,148.956024 91.426804,144.610474 84.308151,137.080002 
	C75.098961,127.338043 71.574921,114.577095 65.460350,103.201118 
	C64.164322,100.789917 65.935913,98.979622 68.223778,98.261307 
	C71.459892,97.245277 73.661301,98.699150 75.011467,101.711853 
	C78.075340,108.548477 81.012444,115.449654 84.328163,122.163048 
	C86.701691,126.968758 89.679420,131.566711 94.947327,133.672424 
	C104.145073,137.348984 112.187012,134.394241 111.991051,123.247444 
	C111.947357,120.761711 111.575882,118.281792 111.356430,115.799095 
	C110.636375,107.653091 108.409821,99.779793 106.469337,91.907631 
	C104.912674,85.592522 103.756348,78.682686 97.850449,74.382172 
	C84.644737,64.766151 61.277351,71.687134 58.801563,90.700142 
	C57.898010,97.639023 57.594891,104.603584 56.735744,111.521568 
	C54.537628,129.221161 49.309559,146.197449 44.226254,163.212845 
	C39.079342,180.441162 34.968113,197.896484 35.051727,216.020493 
	C35.157646,238.978806 37.064770,261.835907 39.102303,284.691772 
	C40.506084,300.438446 44.318626,315.391022 51.541241,329.490814 
	C53.058266,332.452332 55.234921,333.994659 58.289879,334.820099 
	C76.246239,339.671722 94.585953,342.797302 113.071243,343.661652 
	C137.599243,344.808502 162.116226,344.533569 186.138092,337.393921 
	C196.135193,334.422607 203.052170,329.031525 208.312714,320.350098 
	C219.976730,301.101074 229.366257,280.626160 240.631409,261.171143 
	C245.130661,253.400909 250.156418,245.931107 253.859146,237.709641 
	C256.821960,231.131058 259.260223,224.156616 258.621857,217.066116 
	C257.782928,207.747360 254.177963,199.044083 248.879456,191.198013 
	C241.044922,179.596603 233.914322,167.569580 226.808365,155.512604 
	C218.074722,140.693909 209.552689,137.481781 192.876221,141.543137 
	C182.707886,144.019516 172.453064,145.926407 161.916763,146.405914 
	C154.870422,146.726593 147.993454,145.664993 141.036346,145.330841 
	C133.106552,144.949966 128.868896,150.366745 131.131332,157.870178 
	C134.736725,169.827576 143.972275,175.959290 155.277771,178.698135 
	C168.855057,181.987335 182.397919,180.539658 195.440750,175.445755 
	C198.365814,174.303375 200.677597,174.337143 202.186356,177.344437 
	C203.806396,180.573547 201.755859,182.495499 199.261490,183.718826 
	C196.900162,184.876907 194.281158,185.546371 191.729980,186.270325 
	C189.061676,187.027557 187.776978,188.112350 188.826752,191.277161 
	C190.068192,195.019791 190.328812,199.090637 191.598282,202.820541 
	C194.557236,211.514374 196.039612,221.331100 206.514740,225.002548 
	C209.586594,226.079208 211.546127,228.103455 210.439651,231.378174 
	C209.247971,234.905045 206.057495,234.405380 203.235214,233.781677 
	C201.971039,233.502274 200.792603,232.749939 199.629135,232.113708 
	C192.640198,228.291870 189.137939,221.731293 185.804535,214.906235 
	C183.627823,210.449448 183.523727,205.299484 180.840103,200.348114 
	C166.307175,210.087997 153.074417,220.492218 142.196564,234.685654 
M199.001892,65.526474 
	C199.441788,58.135723 198.254288,51.013657 195.782867,44.034489 
	C191.128036,30.889502 176.775940,24.755281 164.095444,30.613222 
	C155.912842,34.393295 149.491943,43.280224 150.656693,49.931587 
	C153.284698,64.938843 156.308075,79.876915 158.928879,94.885345 
	C160.688766,104.963684 163.995346,114.776253 164.137634,125.137329 
	C164.194870,129.304871 167.342712,130.317383 170.563354,130.707977 
	C173.351044,131.046051 176.318222,131.260239 179.020126,130.673294 
	C185.028397,129.368088 192.181488,129.651764 195.011200,122.457283 
	C196.389816,118.952171 197.214630,115.118462 197.620789,111.361145 
	C199.231644,96.458359 199.097809,81.484085 199.001892,65.526474 
M256.343933,67.143616 
	C254.470703,57.227383 247.917282,51.548794 238.902161,48.377613 
	C228.596756,44.752567 218.968948,46.164898 210.242279,52.967274 
	C208.551208,54.285435 208.318741,55.867096 208.562378,57.824760 
	C209.980835,69.221817 208.552094,80.706238 210.072495,92.174126 
	C211.600800,103.701500 213.387329,115.127655 216.612411,126.265862 
	C218.972794,134.417786 224.441040,138.016983 233.030777,138.083694 
	C235.862732,138.105698 238.702194,137.921356 241.525955,138.067871 
	C246.486160,138.325256 248.840820,135.524124 249.867859,131.184418 
	C250.780396,127.328522 251.367767,123.393135 252.344894,119.555527 
	C255.175125,108.439857 255.938095,96.999939 257.425751,85.698105 
	C258.187592,79.910309 258.642365,73.754662 256.343933,67.143616 
M107.251442,70.308968 
	C109.948120,73.535988 111.923203,77.158722 113.228279,81.154572 
	C117.723961,94.919212 119.924667,109.169174 122.092537,123.418472 
	C123.032730,129.598282 127.004288,133.609573 133.241516,133.890244 
	C137.393066,134.077042 141.569824,134.039734 145.720871,133.824524 
	C152.160568,133.490677 155.313156,129.512451 154.489090,123.211517 
	C153.714844,117.291519 152.517990,111.465538 151.320679,105.613838 
	C147.570160,87.283905 144.023560,68.902130 140.935226,50.450512 
	C138.990692,38.832752 128.295074,28.215950 113.093323,33.217407 
	C103.219513,36.465935 95.238724,51.106979 98.149323,61.153465 
	C99.483047,65.757126 104.477531,66.338547 107.251442,70.308968 
M234.607224,148.591415 
	C239.451279,160.588181 246.168518,171.478622 254.511963,181.790131 
	C255.925980,167.674698 258.730011,153.776001 257.246857,138.450180 
	C251.624466,147.494171 243.578415,148.334641 234.607224,148.591415 
M205.079559,123.487465 
	C204.171005,125.664284 202.067215,127.468430 202.828735,130.398407 
	C204.392807,130.768204 206.233109,131.451111 207.048203,130.003876 
	C208.395020,127.612541 206.967468,125.358856 205.079559,123.487465 
z"/>
</svg>