<svg version="1.1" id="Layer_1" xmlns="http://www.w3.org/2000/svg" xmlns:xlink="http://www.w3.org/1999/xlink" x="0px" y="0px"
	 width="100%" viewBox="0 0 288 416" enable-background="new 0 0 288 416" xml:space="preserve">
<path fill="#000000" opacity="1.000000" stroke="none" 
	d="
M45.943756,399.220825 
	C36.679420,398.057007 35.200714,390.577911 33.072300,384.106628 
	C27.825768,368.154907 25.142824,351.735352 23.704517,334.959198 
	C22.732981,323.627350 22.972694,312.354095 22.664377,301.055420 
	C22.247086,285.763184 21.400293,270.484985 21.667601,255.171448 
	C21.987669,236.835327 24.122002,218.919418 30.729824,201.588531 
	C35.461479,189.178406 36.718601,175.879639 39.045109,162.853745 
	C43.315285,138.945419 46.165134,114.565155 59.267811,93.187508 
	C61.575520,89.422379 64.570526,86.276825 68.063049,83.733574 
	C72.497650,80.504295 77.454514,78.821625 83.352859,81.485222 
	C84.184059,74.073288 84.876030,67.183418 86.678909,60.456467 
	C88.716431,52.854015 91.167542,45.525013 95.673607,38.940289 
	C102.147110,29.480536 110.499725,26.344925 121.674568,29.797262 
	C123.764145,30.442814 125.351219,30.734505 127.158188,29.182678 
	C134.743408,22.668467 143.369232,20.456226 152.626633,24.757530 
	C163.122528,29.634289 167.708298,38.892899 169.076126,49.910732 
	C171.756729,71.502892 169.101807,93.021851 167.722092,114.530014 
	C167.152481,123.409760 165.261185,132.204727 163.895142,141.557785 
	C169.624619,141.288498 175.237839,140.774490 180.652008,142.363831 
	C196.924698,147.140656 205.799835,159.120819 210.915329,174.333252 
	C214.397202,184.687637 217.398636,195.236664 217.113846,206.373749 
	C217.075714,207.865463 217.024673,209.666321 218.656937,210.321701 
	C227.306168,213.794373 232.687332,221.430954 239.785843,226.873016 
	C246.530167,232.043533 253.251724,237.122787 260.601837,241.438156 
	C274.955353,249.865356 278.089294,257.288483 273.724243,273.998352 
	C269.662323,289.547943 264.890533,304.912415 260.408447,320.351746 
	C258.331848,327.504852 254.857376,334.077423 249.813354,339.399109 
	C236.994492,352.923584 225.360687,367.589844 211.329620,379.946655 
	C195.519684,393.870026 177.414734,402.803436 156.468124,406.579437 
	C142.644455,409.071442 128.791824,410.281647 114.895279,410.088043 
	C93.786057,409.794006 72.900757,407.070099 52.575253,400.964539 
	C50.515137,400.345673 48.414661,399.861176 45.943756,399.220825 
M67.656029,97.172707 
	C65.817284,100.711761 63.766087,104.158157 62.175388,107.805397 
	C53.869911,126.848709 50.987434,147.297485 47.514244,167.503067 
	C45.575283,178.783157 43.884483,190.037506 40.376091,200.962372 
	C35.857819,215.031952 31.026846,229.147003 31.117659,244.099930 
	C31.317585,277.019836 29.774963,309.973358 33.831852,342.829437 
	C35.631680,357.405945 38.619526,371.532654 43.538521,385.333191 
	C44.580124,388.255432 46.491379,389.674164 49.078167,390.492737 
	C69.260414,396.879517 90.073395,399.752747 111.107895,400.897034 
	C123.871979,401.591431 136.537628,400.084900 149.226990,398.190582 
	C171.477432,394.868927 190.784698,386.065063 207.294800,370.741455 
	C219.902863,359.039520 230.983688,345.925995 242.663162,333.371460 
	C247.072159,328.632141 250.236130,322.843414 252.058228,316.469604 
	C256.479126,301.004883 261.806152,285.732941 265.093079,270.032623 
	C267.440552,258.819702 267.217865,255.818756 256.617889,249.766296 
	C253.872421,248.198654 251.169617,246.547928 248.516495,244.828445 
	C238.690628,238.460327 230.030838,230.648956 221.413254,222.791016 
	C218.891708,220.491745 216.278671,218.889847 213.055771,221.540558 
	C206.927811,226.580566 205.424408,233.900452 205.648331,240.917984 
	C205.900726,248.827820 209.645142,255.718872 216.155930,261.063141 
	C221.659302,265.580505 221.490921,269.926544 216.781403,275.178650 
	C210.426971,282.265198 204.181305,289.384979 201.898026,299.062378 
	C201.271820,301.716492 199.242050,303.594696 196.284134,302.331451 
	C193.741394,301.245544 191.984756,299.505096 193.081696,296.042664 
	C194.755554,290.759094 196.740906,285.628601 200.086288,281.236267 
	C202.363098,278.246948 202.473648,276.178864 200.049561,273.029541 
	C189.749802,259.648346 183.243576,244.770538 183.667587,227.473694 
	C183.705948,225.908829 183.464081,224.466293 182.166779,223.426895 
	C170.266190,213.892090 166.585648,199.812683 161.619568,186.423355 
	C160.622406,183.734848 161.101242,181.796646 163.726471,180.714203 
	C166.370819,179.623901 168.755432,180.242966 170.129181,182.862518 
	C171.047241,184.613129 171.509872,186.599899 172.206604,188.469711 
	C175.797836,198.107498 178.454971,208.228058 186.792831,215.321548 
	C191.017838,218.915955 198.472061,220.430008 202.606659,217.984146 
	C207.648697,215.001465 208.240784,210.010178 207.773544,204.839966 
	C206.936279,195.575027 205.383087,186.387772 202.476990,177.559830 
	C197.965240,163.854324 190.056107,153.376663 174.802917,150.394684 
	C168.646713,149.191147 161.563644,152.570740 160.314606,157.969330 
	C157.884491,168.472641 155.470963,178.986786 153.432343,189.569977 
	C152.679688,193.477325 152.399567,197.495331 151.206879,201.317413 
	C150.510101,203.550354 148.926437,205.178284 146.445160,204.934280 
	C144.164337,204.710007 143.158676,202.830063 142.714035,200.763153 
	C142.062332,197.733826 143.025085,194.824936 143.554688,191.893921 
	C146.297348,176.715179 150.578217,161.838791 153.286621,146.697403 
	C156.614609,128.092163 159.305939,109.328781 160.088196,90.345581 
	C160.657318,76.534645 161.740875,62.732140 159.588516,49.003559 
	C158.432053,41.627186 155.021454,35.475185 147.554932,32.482590 
	C142.608139,30.499912 138.442734,32.605835 134.440338,35.105385 
	C130.761871,37.402649 132.779434,40.686073 133.206024,43.694477 
	C133.556290,46.164471 133.859665,48.652161 133.980743,51.141880 
	C135.127228,74.716049 131.568665,97.948334 128.617004,121.202591 
	C126.797272,135.539246 124.358467,149.798950 122.098877,164.077576 
	C120.462006,174.421188 118.758369,184.756607 116.872398,195.056824 
	C116.372742,197.785736 115.471100,201.100128 111.659058,200.529556 
	C107.904274,199.967575 107.228867,196.943771 107.666267,193.639618 
	C108.167900,189.850235 108.698120,186.063461 109.294388,182.287964 
	C112.095467,164.551743 115.319756,146.871399 117.638023,129.072784 
	C120.319641,108.484505 123.841942,87.974571 124.711647,67.178558 
	C125.003578,60.198021 125.421043,53.203182 124.128677,46.247429 
	C123.016571,40.261917 120.398514,38.134216 114.326904,37.960026 
	C108.811356,37.801781 105.138062,40.393429 102.675247,45.021545 
	C97.603256,54.552818 95.352455,64.936256 93.675972,75.475670 
	C92.260025,84.377197 92.961235,93.179794 93.674622,102.169716 
	C94.889557,117.479980 90.807556,132.546234 88.588867,147.635345 
	C86.029961,165.038239 82.196243,182.253311 78.935181,199.553543 
	C77.826569,205.434860 75.098579,209.030579 72.210945,207.840958 
	C67.038574,205.710129 68.776756,201.321289 69.555298,197.505493 
	C72.238907,184.352722 75.281235,171.268295 77.713097,158.070526 
	C79.756836,146.979126 81.012741,135.744934 82.854912,124.613274 
	C84.354820,115.549889 84.575668,106.466263 83.677528,97.377983 
	C83.389114,94.459526 82.264030,91.346695 78.909119,90.358627 
	C75.490738,89.351868 72.716385,90.805565 70.502556,93.411179 
	C69.641541,94.424561 68.879593,95.522118 67.656029,97.172707 
M193.196915,236.090225 
	C194.161057,239.699051 195.125214,243.307861 196.089355,246.916687 
	C196.858414,240.877457 196.371643,234.995438 197.559967,229.052734 
	C190.928955,227.931488 193.789566,232.757660 193.196915,236.090225 
z"/>
<path fill="#000000" opacity="1.000000" stroke="none" 
	d="
M116.140366,357.975037 
	C115.871597,364.008270 116.842995,369.429596 118.272995,374.729767 
	C119.254044,378.365936 118.095451,380.909424 114.798134,381.815552 
	C111.280525,382.782227 109.610092,379.971802 108.990425,377.090424 
	C100.890869,339.428375 115.488754,300.281036 155.708008,281.886597 
	C161.463318,279.254333 167.449005,277.250641 173.704636,276.112427 
	C176.790115,275.551025 179.125809,276.384674 179.720703,279.660797 
	C180.282654,282.755615 178.903595,284.535034 175.613861,285.276398 
	C145.461411,292.071106 125.815742,310.101868 117.869347,340.179932 
	C116.395592,345.758301 115.782715,351.629364 116.140366,357.975037 
z"/>
</svg>