<svg version="1.1" id="Layer_1" xmlns="http://www.w3.org/2000/svg" xmlns:xlink="http://www.w3.org/1999/xlink" x="0px" y="0px"
	 width="100%" viewBox="0 0 448 288" enable-background="new 0 0 448 288" xml:space="preserve">
<path fill="#000000" opacity="1.000000" stroke="none" 
	d="
M126.374084,168.893555 
	C127.228279,163.888763 130.950150,160.736603 132.557129,156.212128 
	C114.336075,145.289337 115.128708,129.210495 121.060364,112.179749 
	C114.405777,112.179749 108.116547,111.814865 101.882988,112.249107 
	C84.145294,113.484734 66.424164,116.312340 48.645142,114.849625 
	C37.051033,113.895752 27.165731,108.926239 22.904676,96.723907 
	C20.193254,88.959244 22.837341,82.348694 27.316927,76.217705 
	C33.864220,67.256760 43.618347,63.076591 53.652966,59.928043 
	C82.323761,50.932049 111.643051,45.144154 141.723557,43.680538 
	C144.400436,43.550289 146.151306,42.882614 146.686432,39.969681 
	C149.001892,27.365665 159.077881,24.110508 169.939163,24.499327 
	C177.911911,24.784742 185.823471,25.848297 193.836197,25.943478 
	C203.605255,26.059526 212.422073,22.657877 221.470917,19.946062 
	C232.209381,16.727888 242.963318,17.564665 253.531570,20.394386 
	C268.295654,24.347565 283.290833,27.100903 298.312531,29.720938 
	C323.680542,34.145550 347.366028,42.795345 369.307404,56.408737 
	C387.768402,67.862732 404.314606,81.842010 421.527374,94.947174 
	C427.081116,99.175568 426.745148,105.922272 427.828888,111.776901 
	C432.899200,139.167557 435.220917,166.844559 433.918701,194.678833 
	C432.859650,217.316025 429.172852,239.540176 419.914246,260.511139 
	C418.007599,264.829712 415.033264,268.004120 410.701508,269.898376 
	C402.568817,273.454773 393.993011,275.013092 385.266754,276.521301 
	C372.560028,278.717468 359.854919,279.543274 347.044983,279.164764 
	C328.891724,278.628326 311.157379,275.360626 293.493103,271.186768 
	C276.196686,267.099854 260.592590,258.608917 243.811432,253.252289 
	C241.684113,252.573212 239.625443,252.388000 237.467178,252.262009 
	C226.916229,251.646133 216.170822,252.426804 206.421188,246.753632 
	C203.900436,245.286835 200.510208,246.071686 197.561020,246.599930 
	C188.238678,248.269714 179.329590,246.877258 170.866394,242.872086 
	C157.916550,236.743607 152.126907,226.008057 153.763031,211.796341 
	C153.911224,210.509048 153.782730,209.189911 153.782730,207.915695 
	C126.725204,201.863235 123.597191,185.287018 126.374084,168.893555 
M345.780426,189.006607 
	C342.599945,188.062119 339.404175,187.166061 336.241455,186.165359 
	C313.447906,178.953323 293.318115,167.516342 277.003632,149.669479 
	C271.245331,143.370331 266.921967,136.139587 261.789520,128.521439 
	C261.267273,134.036713 259.900665,138.534943 257.698059,142.989059 
	C258.644775,143.611343 259.398285,144.273102 260.273590,144.657455 
	C278.794250,152.790604 280.469421,179.529099 265.364685,189.698029 
	C263.082947,191.234146 263.875519,192.796814 264.619110,194.831009 
	C267.312866,202.200211 267.267029,209.423935 262.757050,216.231979 
	C257.507294,224.156693 249.942810,229.225952 241.581055,233.202530 
	C235.664032,236.016464 229.569138,238.456345 222.880325,241.354980 
	C224.162354,241.641815 224.759171,241.916550 225.339035,241.884460 
	C240.311707,241.056213 253.748672,246.328461 267.080505,252.197327 
	C285.611237,260.354828 305.266510,264.459656 325.129547,267.537292 
	C337.493164,269.452942 350.028381,268.891754 362.508148,268.948273 
	C377.106110,269.014374 391.174133,266.052246 405.040405,261.826813 
	C408.268707,260.843048 410.421295,258.699402 411.752106,255.617355 
	C418.452759,240.098953 422.306030,223.660400 423.457336,207.046677 
	C424.367065,193.919128 425.173737,180.673294 424.365662,167.274719 
	C423.323120,149.989365 421.330414,132.911194 419.083954,115.797234 
	C418.080170,108.150223 416.246124,101.682365 408.970795,97.035263 
	C400.731171,91.772240 393.485138,84.973854 385.666351,79.028122 
	C360.832397,60.143322 333.724274,46.206226 302.693512,40.565483 
	C286.200897,37.567474 269.638153,34.904800 253.395721,30.567402 
	C242.672104,27.703760 231.738861,26.674475 220.888306,30.299397 
	C207.669830,34.715382 194.345032,37.392273 180.277954,34.786743 
	C175.433304,33.889412 170.320068,34.173077 165.342056,34.325691 
	C157.091385,34.578636 153.576950,41.146828 157.759903,48.296627 
	C158.755844,49.998974 160.066940,51.561588 161.438202,52.991817 
	C166.746368,58.528271 173.353287,62.123764 180.437820,64.686859 
	C190.046249,68.163071 199.782211,70.491470 210.143143,67.347321 
	C219.945435,64.372696 229.397446,65.244331 238.504990,70.596275 
	C249.164261,76.860085 260.682495,81.341560 272.658905,84.351776 
	C279.493439,86.069618 286.245331,89.447884 293.545593,87.719055 
	C297.195190,86.854767 299.620697,87.566864 300.515594,91.079895 
	C301.392639,94.522629 299.010101,96.166168 296.057800,97.206024 
	C290.365143,99.211090 284.874725,97.729317 279.400665,96.300659 
	C273.345734,94.720421 267.329071,92.993660 261.562561,91.404251 
	C260.514679,92.361870 260.469360,93.174095 260.615204,94.021652 
	C262.604584,105.586281 265.997986,116.661575 271.969269,126.854111 
	C285.820496,150.497177 306.558167,165.603943 331.876587,174.872421 
	C338.714569,177.375641 345.829498,179.126511 352.830078,181.179306 
	C355.430237,181.941757 356.140411,183.828217 355.834656,186.195374 
	C355.525299,188.590393 353.843964,189.549393 351.574554,189.505829 
	C349.911285,189.473892 348.250946,189.290115 345.780426,189.006607 
M159.869064,64.695877 
	C156.513748,62.184456 153.251984,59.432774 151.166412,55.840210 
	C149.282761,52.595482 146.700455,51.834400 143.645142,52.632168 
	C136.646469,54.459572 129.437347,54.083931 122.353584,55.048401 
	C99.408760,58.172386 76.785316,62.625713 54.804348,69.997696 
	C47.539650,72.434143 40.355103,75.098564 35.192307,81.320374 
	C29.932831,87.658691 30.936068,96.240326 37.613220,101.017822 
	C42.701923,104.658798 48.518627,105.899582 54.580647,105.870964 
	C68.554085,105.804993 82.417328,103.985748 96.330910,102.953842 
	C111.836723,101.803841 127.297722,101.887970 142.583130,97.153687 
	C161.496674,91.295670 181.417038,92.536369 201.046921,92.766068 
	C204.285812,92.803963 206.307785,94.837822 206.445923,97.607018 
	C206.601257,100.720947 204.045166,102.261742 201.042603,102.178391 
	C196.070236,102.040359 190.997330,100.835068 186.159485,101.494141 
	C175.288376,102.975136 164.287369,102.636986 153.466095,104.278809 
	C140.882965,106.187950 130.015106,109.699341 126.984360,124.819611 
	C124.920815,135.114594 129.111694,144.666946 139.108505,148.373962 
	C143.371872,149.954926 147.843109,150.821350 152.239517,150.866379 
	C173.874466,151.088043 195.558777,151.628738 217.104034,149.450562 
	C224.904037,148.662003 232.972656,148.081894 240.424011,144.740829 
	C249.504547,140.669281 253.199997,134.760254 251.615173,126.015785 
	C250.185333,118.126472 243.412415,113.190666 233.800964,113.163658 
	C221.140533,113.128090 208.479355,113.246246 195.819565,113.152275 
	C188.988937,113.101570 182.196945,113.271362 175.431534,114.324615 
	C172.736633,114.744156 170.802414,113.436920 170.311310,110.738785 
	C169.822098,108.051155 171.390747,106.215706 173.745453,105.315491 
	C175.088669,104.801987 176.676666,104.878799 178.160431,104.791130 
	C187.286407,104.251945 196.413025,103.334625 205.541428,103.310562 
	C222.092072,103.266930 239.184143,100.170494 254.641129,111.262085 
	C253.562988,107.149529 251.881058,103.792458 251.964111,100.479645 
	C252.217987,90.353752 248.095963,83.777824 238.227554,81.012589 
	C237.918381,80.925957 237.660263,80.667686 237.368042,80.508331 
	C229.017792,75.954842 220.452850,74.059044 210.996155,77.153969 
	C207.130920,78.418961 202.881180,78.701218 198.675888,78.423492 
	C184.699677,77.500488 172.081863,72.754135 159.869064,64.695877 
M195.162231,195.784256 
	C209.390427,193.829514 223.613525,191.836594 237.848877,189.935394 
	C245.473083,188.917145 253.117188,187.631485 259.275024,182.752304 
	C266.177032,177.283508 269.124756,169.292557 263.969574,160.176163 
	C259.682861,152.595596 251.500824,150.044754 242.885162,153.794388 
	C237.333694,156.210449 231.394852,157.210617 225.545044,157.908218 
	C213.567825,159.336548 201.512238,160.481720 189.462784,160.824249 
	C177.561874,161.162537 165.599579,162.315567 153.700516,159.653641 
	C149.299469,158.669083 144.480301,158.507690 140.593628,162.330994 
	C133.195343,169.608658 132.477554,182.508667 139.142776,190.523132 
	C144.372498,196.811539 151.482224,198.680496 159.126602,198.921875 
	C170.932419,199.294601 182.461288,196.086380 195.162231,195.784256 
M166.613876,227.796097 
	C172.001816,234.810471 179.681824,237.760559 187.956268,237.748245 
	C208.549133,237.717621 227.310318,230.814209 244.799194,220.389984 
	C249.766983,217.428894 254.136963,213.616226 256.460388,207.810120 
	C257.783356,204.504089 257.846527,201.650497 255.932999,198.886108 
	C253.934952,195.999634 250.723740,196.752426 248.119934,197.416885 
	C237.173538,200.210297 225.922043,201.356949 214.813126,202.719803 
	C199.546814,204.592697 184.278519,207.052612 168.831573,207.255920 
	C166.141754,207.291321 164.653091,208.276306 163.543747,210.787491 
	C160.828888,216.933151 163.015045,222.100021 166.613876,227.796097 
z"/>
</svg>