<svg version="1.1" id="Layer_1" xmlns="http://www.w3.org/2000/svg" xmlns:xlink="http://www.w3.org/1999/xlink" x="0px" y="0px"
	 width="100%" viewBox="0 0 464 288" enable-background="new 0 0 464 288" xml:space="preserve">
<path fill="#000000" opacity="1.000000" stroke="none" 
	d="
M432.415466,269.503906 
	C422.688477,274.988708 412.212158,277.198639 401.925751,279.833435 
	C389.800903,282.939178 377.312286,283.665741 364.866669,284.052460 
	C334.941467,284.982361 306.958038,277.611694 280.377411,264.054962 
	C272.558502,260.067108 264.340759,256.762146 255.659897,254.860229 
	C253.285767,254.340073 251.130402,254.518417 248.819717,255.234116 
	C233.138412,260.091187 217.249023,259.640625 201.619431,255.596817 
	C189.539459,252.471375 181.046021,240.179153 182.036652,228.632294 
	C182.370270,224.743454 183.884796,220.955933 184.930267,216.844147 
	C180.141083,215.438904 175.252090,214.504791 170.774979,212.601669 
	C153.858322,205.410751 148.571442,187.602921 158.507690,172.042633 
	C159.825607,169.978729 161.296204,168.012329 163.080521,165.448410 
	C151.917297,165.448410 141.347183,165.251389 130.794159,165.588791 
	C128.198898,165.671768 125.531319,166.158875 122.879295,166.161743 
	C104.717651,166.181381 86.528236,166.774124 68.405151,165.938263 
	C58.209278,165.468048 47.889263,165.868881 37.727726,163.408142 
	C24.986986,160.322830 15.206328,149.067902 15.851055,136.735794 
	C16.234943,129.392914 20.300768,123.922531 25.708435,119.477409 
	C32.884560,113.578606 41.663414,111.521072 50.559254,109.966637 
	C52.357109,109.652489 54.233799,109.747528 55.782032,108.294197 
	C55.958851,105.831757 53.828804,104.262611 53.163071,102.064346 
	C50.019440,91.683968 56.503609,79.437309 67.814651,74.134644 
	C80.826965,68.034409 94.935486,66.364571 108.794144,63.793415 
	C134.487030,59.026699 160.484863,59.102753 186.472092,59.840183 
	C193.601501,60.042496 200.728439,60.983570 207.808502,61.940895 
	C210.499695,62.304783 212.409103,61.841515 214.661484,60.274918 
	C232.421707,47.922241 250.567017,36.161133 269.288177,25.296730 
	C277.164490,20.725887 285.473755,20.386572 293.843536,22.891911 
	C311.515839,28.181814 329.432648,32.593910 346.931549,38.536354 
	C366.929657,45.327507 382.943787,57.632511 397.239655,72.620354 
	C409.759125,85.745834 421.521393,99.570206 434.984467,111.827644 
	C442.106201,118.311615 444.445068,127.816147 446.759338,136.780624 
	C450.211945,150.154633 451.571320,163.984894 451.049683,177.723923 
	C450.441315,193.747513 448.975830,209.734299 445.773804,225.582855 
	C443.441772,237.125381 440.905304,248.592361 438.019867,259.995483 
	C437.115784,263.568329 436.054749,267.088440 432.415466,269.503906 
M68.033249,85.520638 
	C59.067116,93.987480 60.427486,102.289734 71.580536,107.225723 
	C73.256325,107.967377 75.014565,108.354210 76.777878,108.824348 
	C82.839508,110.440498 89.061440,109.530235 95.142113,110.358627 
	C116.604927,113.282570 138.274200,113.100433 159.832840,114.503731 
	C182.393463,115.972260 205.072708,115.610260 227.699142,116.093201 
	C229.346725,116.128372 231.034988,116.354408 232.619019,116.797020 
	C235.229294,117.526382 237.190689,119.051140 236.856079,122.117638 
	C236.515778,125.236115 234.318237,126.170113 231.521133,126.167633 
	C227.021637,126.163643 222.503693,126.400246 218.025803,126.081734 
	C198.293686,124.678169 178.506897,124.420670 158.756165,123.499947 
	C143.156860,122.772758 127.490746,122.426903 111.883461,121.661880 
	C102.948990,121.223930 93.906761,120.941902 85.064415,119.786148 
	C74.896164,118.457085 64.861008,117.962456 54.744221,119.186775 
	C47.980221,120.005348 41.152489,121.037048 35.171787,124.568893 
	C29.509172,127.912895 24.865095,132.438782 25.331198,139.634796 
	C25.816183,147.122345 31.417608,150.661880 37.567020,153.429504 
	C38.016212,153.631653 38.527206,153.699905 39.012512,153.817856 
	C46.285927,155.585892 53.756111,156.529404 61.149189,156.578873 
	C96.936264,156.818436 132.727768,157.153854 168.492111,155.008865 
	C182.930969,154.142883 197.444321,155.732376 211.904388,154.063370 
	C215.637436,153.632507 219.574326,153.435379 223.272476,154.922729 
	C224.937363,155.592300 226.109375,156.614670 226.216888,158.554398 
	C226.314819,160.321167 225.959641,161.916138 224.415039,162.952591 
	C222.644150,164.140884 220.575500,163.945312 218.591156,163.906693 
	C207.628296,163.693268 196.734314,163.473465 185.740463,164.836502 
	C177.492645,165.859085 171.490753,169.425598 167.115433,175.815598 
	C160.217758,185.889359 161.561935,199.613846 173.989975,204.068436 
	C179.491226,206.040222 185.238602,207.270462 190.984680,207.517426 
	C214.465408,208.526642 237.843964,206.247147 261.218079,204.507812 
	C273.700195,203.578995 279.293976,197.083313 280.242401,184.352036 
	C280.423737,181.918076 279.807495,180.743774 277.635315,179.757294 
	C271.473602,176.959000 264.912018,175.743393 258.304138,175.456711 
	C239.498657,174.640793 220.764648,176.174881 202.053131,177.924774 
	C198.700928,178.238281 196.415512,176.512802 195.962418,173.361313 
	C195.568161,170.618973 197.636337,169.128296 200.255188,168.861618 
	C207.844604,168.088791 215.325912,166.625534 223.065109,166.863297 
	C236.052673,167.262314 249.066910,167.225525 262.058258,166.902603 
	C269.485504,166.718002 276.115845,169.044922 282.628937,171.936569 
	C286.165863,173.506851 289.244720,176.078125 290.018890,180.195923 
	C292.330627,192.492142 283.609589,207.067917 271.780579,211.472168 
	C264.994354,213.998871 257.956390,214.273834 249.406967,214.488937 
	C264.489471,221.650757 270.321838,231.522720 262.375000,246.568497 
	C272.044617,250.358475 281.271820,253.681931 290.014893,258.115906 
	C312.380981,269.458710 336.256226,274.468658 361.174377,274.604858 
	C368.428650,274.644501 375.684021,273.418121 382.948364,272.906067 
	C397.323029,271.892792 411.053497,268.258087 424.390839,262.955872 
	C426.385773,262.162781 427.313568,260.724518 428.048462,258.627167 
	C435.882019,236.270935 439.138367,212.953415 441.369446,189.613693 
	C443.105774,171.449829 442.042480,153.086014 436.667969,135.368973 
	C434.700897,128.884476 432.937439,122.007202 427.513519,117.348694 
	C413.295380,105.137024 401.812408,90.335495 388.810303,76.978065 
	C377.312073,65.165657 364.645081,55.119301 348.886688,49.433830 
	C332.293121,43.447060 315.112030,39.447155 298.315094,34.160416 
	C289.056793,31.246424 279.846252,29.308767 270.909607,34.999088 
	C254.614395,45.374897 238.367188,55.826027 222.089859,66.229935 
	C218.816971,68.321854 218.485229,71.187889 219.823853,74.493233 
	C221.735672,79.213936 225.638107,81.660713 230.187302,83.220177 
	C241.902939,87.236313 253.854950,86.654343 265.636200,84.043205 
	C276.904388,81.545776 279.446472,77.725082 279.834534,65.829887 
	C279.899414,63.842598 279.894165,61.773888 280.451691,59.900650 
	C281.255127,57.201271 283.076813,54.852108 286.171051,55.356064 
	C288.898804,55.800327 290.041809,58.179520 290.224487,60.959541 
	C290.490082,65.001350 289.284088,68.897766 289.149139,72.873932 
	C289.016541,76.780922 284.249939,80.524498 288.046021,84.370033 
	C290.929962,87.291580 294.694336,89.345169 298.074951,91.773811 
	C298.479248,92.064262 298.938843,92.276611 299.364349,92.538879 
	C307.048248,97.274933 315.211761,100.987518 323.676575,104.092377 
	C326.506500,105.130371 329.043060,106.933037 327.784302,110.374069 
	C326.541260,113.772202 323.736267,114.463486 320.405151,113.006004 
	C316.288940,111.205002 312.073151,109.618340 308.023682,107.681320 
	C302.420166,105.000931 296.931610,102.080276 291.126984,99.126740 
	C289.367004,104.384705 290.735077,108.939110 291.106781,113.503242 
	C292.305298,128.221268 296.784180,141.993622 304.596008,154.375198 
	C323.368683,184.129364 351.053558,198.505539 385.847595,199.936081 
	C389.044220,200.067490 392.804382,199.697510 392.845398,204.247345 
	C392.886993,208.864944 389.103912,209.403564 385.684662,209.157410 
	C374.953522,208.384781 364.260742,207.573578 353.882935,204.111389 
	C331.597229,196.676559 313.604889,183.369736 300.316467,164.245789 
	C288.831848,147.717789 281.728546,129.337967 281.718567,108.773613 
	C281.716309,104.107330 281.763733,99.439659 281.664581,94.775261 
	C281.602661,91.861794 280.437653,89.570709 277.058777,90.788231 
	C265.067505,95.109085 252.637543,95.677467 240.137375,95.102615 
	C226.715256,94.485359 213.654404,87.648155 209.396057,74.459656 
	C208.779800,72.551064 207.922638,71.352440 205.621933,71.221565 
	C195.326950,70.635902 185.050781,69.522346 174.750931,69.258865 
	C148.386230,68.584427 122.214867,70.578735 96.349838,75.973160 
	C86.763054,77.972572 76.907127,79.129250 68.033249,85.520638 
M252.092010,242.602249 
	C259.193481,235.195328 257.139099,227.346283 246.760742,223.596283 
	C231.783249,218.184509 216.289230,215.717575 200.323212,216.289368 
	C197.009369,216.408035 195.034378,218.117020 193.686859,220.758942 
	C188.354523,231.213470 194.242615,244.561447 205.577148,247.517075 
	C215.029999,249.982040 224.710327,249.615463 234.279495,248.699280 
	C240.319229,248.121033 246.611862,247.458923 252.092010,242.602249 
z"/>
</svg>