<svg version="1.1" id="Layer_1" xmlns="http://www.w3.org/2000/svg" xmlns:xlink="http://www.w3.org/1999/xlink" x="0px" y="0px"
	 width="100%" viewBox="0 0 288 400" enable-background="new 0 0 288 400" xml:space="preserve">
<path fill="#000000" opacity="1.000000" stroke="none" 
	d="
M73.599838,379.586243 
	C65.459961,377.436523 58.001373,374.601898 50.663387,371.416351 
	C47.255306,369.936798 45.024090,367.520935 43.805191,363.970001 
	C37.258186,344.897217 32.026745,325.440735 29.194563,305.507782 
	C27.447334,293.210693 26.122267,280.804474 25.651333,268.304443 
	C24.871756,247.612030 26.123020,227.067245 29.010372,206.645294 
	C30.609148,195.337311 32.751305,184.055573 35.905113,173.016479 
	C36.629597,170.480621 37.192478,167.788757 37.183388,165.170929 
	C37.123852,148.027328 37.958160,130.920776 39.771763,113.892029 
	C42.414131,89.081665 46.476112,64.532028 55.656654,41.132378 
	C57.798817,35.672359 60.813080,30.794415 64.854210,26.421513 
	C75.001724,15.440916 93.326599,19.931248 98.113380,34.734570 
	C101.195038,44.264729 102.353523,54.184906 100.331039,64.219910 
	C100.298141,64.383163 100.245781,64.549522 100.251816,64.712608 
	C100.825638,80.207703 97.447395,95.424141 97.011780,110.847122 
	C97.003059,111.155800 97.173180,111.469536 97.349220,112.101906 
	C105.144836,110.325409 112.974396,109.483658 120.790810,113.912834 
	C127.197197,103.628014 135.060913,95.435966 147.662979,93.453499 
	C160.679321,91.405861 169.620743,97.649734 176.984894,107.611305 
	C177.895767,107.093033 178.649445,106.774948 179.275681,106.291725 
	C196.564789,92.951042 214.318268,97.991249 227.267502,112.182968 
	C236.900604,122.740364 242.192596,135.337723 241.080490,150.038620 
	C240.911652,152.270645 241.081345,154.288345 243.040161,155.885315 
	C250.064926,161.612427 253.725739,169.528549 256.148163,177.882172 
	C261.017426,194.673523 266.634247,211.190536 272.962219,227.474625 
	C280.906830,247.919037 277.520935,266.850769 265.922485,284.989655 
	C248.584946,312.103912 229.394470,337.810730 209.041763,362.730560 
	C200.868118,372.738342 189.862030,375.809174 178.389938,378.818420 
	C156.866043,384.464294 135.021271,387.446899 112.780457,386.042084 
	C99.686501,385.215027 86.696259,383.180450 73.599838,379.586243 
M116.201385,376.020660 
	C120.020821,376.228455 123.843178,376.656830 127.659203,376.606476 
	C145.693146,376.368500 163.191498,372.721039 180.699738,368.683777 
	C191.801300,366.123871 199.860107,360.023254 206.463287,351.243011 
	C209.262695,347.520660 212.356918,344.021362 215.210449,340.338043 
	C229.796906,321.509766 243.881561,302.330200 256.996460,282.426178 
	C268.840027,264.451630 270.875946,245.875076 262.476471,225.977615 
	C256.784027,212.492813 251.946533,198.690994 248.397064,184.443298 
	C246.869858,178.313095 244.554276,172.383759 240.823639,167.139206 
	C238.183472,163.427612 235.197281,161.682083 230.205292,162.908768 
	C224.595901,164.287170 218.708450,164.787292 212.911316,165.098724 
	C198.139435,165.892258 183.735229,163.725235 169.733337,158.916382 
	C166.609131,157.843399 163.438690,157.354950 160.923843,160.150803 
	C158.123764,163.263763 157.701355,166.908752 158.898132,170.884201 
	C165.495148,192.798203 190.923325,205.304184 211.714127,197.004593 
	C212.948425,196.511841 214.212799,196.084396 215.485077,195.698807 
	C218.341843,194.833023 219.987244,196.538223 221.011108,198.746613 
	C222.068802,201.028030 221.330902,203.064713 218.970642,204.149887 
	C216.107376,205.466324 213.217239,206.666565 210.087158,207.368408 
	C200.302917,209.562347 200.143478,209.930695 202.307419,220.007690 
	C202.411713,220.493378 202.627106,220.954071 202.761444,221.434601 
	C206.348663,234.266541 212.648590,245.759506 220.340912,256.515320 
	C222.263336,259.203339 224.096786,261.622162 220.500717,264.047302 
	C217.069641,266.361206 214.610733,264.534515 212.571808,261.602722 
	C206.756744,253.241287 201.539886,244.552246 197.774460,235.051651 
	C195.627838,229.635513 194.617538,229.232712 189.884750,232.365326 
	C180.647751,238.479263 172.540848,245.869934 165.624741,254.520294 
	C150.582962,273.333923 139.572769,294.228058 133.429886,317.585663 
	C132.566956,320.866852 131.564697,324.106659 127.311478,323.048950 
	C123.338364,322.060944 123.887001,318.861420 124.582199,315.743073 
	C127.942505,300.670380 133.963516,286.684082 141.649246,273.354431 
	C142.613693,271.681763 144.223450,270.259064 144.099060,267.544495 
	C127.787766,269.148193 120.692467,258.917755 115.967186,245.543335 
	C112.704498,236.308670 109.175003,227.167450 105.707275,218.006226 
	C100.412468,204.018097 95.120903,190.028198 89.702667,176.087753 
	C88.535461,173.084671 89.626755,171.155823 92.051773,169.872665 
	C94.753822,168.442917 96.580658,170.280396 97.768433,172.362213 
	C99.079292,174.659729 100.026176,177.181320 100.980194,179.663483 
	C109.622574,202.149261 118.113998,224.693924 126.900063,247.123230 
	C131.337616,258.451508 134.959564,259.837341 147.010696,257.004852 
	C151.434494,255.965118 153.022461,253.880310 152.985367,249.440201 
	C152.844315,232.558868 149.121124,216.262512 144.975510,200.076736 
	C140.609879,183.031998 135.005142,166.347946 128.888382,149.846024 
	C126.462448,143.301254 124.359650,136.605606 121.471413,130.269623 
	C114.728607,115.477814 102.567917,117.165680 93.594391,126.697029 
	C89.516617,131.028305 87.530182,136.691147 86.499336,142.427628 
	C85.068604,150.389313 83.518929,158.355927 83.617561,166.547287 
	C83.679390,171.681107 81.033783,174.710754 77.616226,173.985214 
	C72.600433,172.920395 73.562317,168.970047 74.174271,165.572830 
	C74.676895,162.782623 75.021614,160.031631 75.175987,157.190826 
	C75.765472,146.343124 77.379982,135.632187 83.041618,126.133446 
	C85.629494,121.791679 86.483215,117.172226 87.026344,112.426643 
	C88.480324,99.722450 89.544113,86.976753 90.722061,74.244896 
	C91.599648,64.759613 91.778961,55.314648 91.700447,45.837376 
	C91.668190,41.943367 90.414696,38.127300 88.044746,35.140400 
	C83.195992,29.029425 78.320732,27.630974 71.849007,32.693676 
	C67.301514,36.251099 65.191551,41.304714 63.308868,46.521721 
	C55.998260,66.779755 51.829086,87.850510 49.578007,109.094246 
	C47.691635,126.896179 46.127502,144.845322 46.309757,162.833344 
	C46.346745,166.483673 46.538403,170.067978 45.491814,173.716034 
	C38.675518,197.475266 36.329689,221.960388 34.440590,246.457703 
	C33.377571,260.242645 35.327271,274.035278 36.626835,287.744965 
	C38.606873,308.633331 42.970310,329.133667 49.166252,349.200958 
	C51.228374,355.879730 52.249184,362.883972 60.705227,365.805145 
	C78.443367,371.932861 96.468643,375.835999 116.201385,376.020660 
M135.818451,109.311333 
	C132.436050,111.968964 130.549622,115.698402 128.588211,119.378250 
	C127.834213,120.792831 127.758751,122.106400 128.480820,123.637108 
	C136.517136,140.673309 141.856964,158.716095 147.746094,176.525513 
	C153.152039,192.873749 157.573959,209.539764 160.130768,226.634842 
	C160.669128,230.234482 165.254059,233.043915 168.828064,232.234024 
	C174.561569,230.934738 178.893402,224.973404 179.856079,217.057571 
	C180.998001,207.667892 180.225555,206.273483 173.547745,202.418182 
	C160.275986,194.755981 151.668594,183.592422 149.621140,168.166214 
	C148.293991,158.167023 155.304199,147.513718 166.905167,148.953049 
	C169.504379,149.275528 172.088959,149.715759 174.830078,150.124084 
	C175.123154,149.281738 175.510422,148.684937 175.511978,148.087112 
	C175.537750,138.278336 174.865051,128.397110 171.604996,119.203796 
	C165.289032,101.392906 150.838470,97.421112 135.818451,109.311333 
M224.263596,123.262749 
	C221.536224,118.996895 218.086899,115.398026 213.907318,112.571449 
	C205.762589,107.063316 197.251480,106.122475 188.555481,111.191368 
	C184.095200,113.791252 180.501221,116.833656 182.149124,123.095871 
	C184.481842,131.960526 184.222031,141.192780 185.200409,150.252380 
	C185.475693,152.801529 186.614426,153.629990 188.906158,153.963715 
	C201.475800,155.793991 214.003540,155.857422 226.598175,153.966949 
	C230.630188,153.361725 231.940704,151.576004 231.994720,147.781006 
	C232.119934,138.987198 229.438187,131.124374 224.263596,123.262749 
M188.496582,220.466492 
	C189.855347,222.320724 191.898819,221.254776 191.896927,220.159088 
	C191.890457,216.399582 192.788467,212.376617 190.451920,208.859818 
	C188.815552,212.419296 188.600388,216.088150 188.496582,220.466492 
z"/>
</svg>