<svg version="1.1" id="Layer_1" xmlns="http://www.w3.org/2000/svg" xmlns:xlink="http://www.w3.org/1999/xlink" x="0px" y="0px"
	 width="100%" viewBox="0 0 390 370" enable-background="new 0 0 390 370" xml:space="preserve">
<path fill="none" opacity="1.000000" stroke="#000000" stroke-linecap="round" stroke-linejoin="round" stroke-width="8.000000"
	d="
M111.750000,117.000000 
	C108.421455,116.581673 107.206985,113.790764 105.487579,111.509361 
	C92.863625,94.759277 80.367279,77.896912 65.483414,63.016590 
	C61.174278,58.708469 56.103249,55.241337 49.988976,54.606121 
	C39.669697,53.534058 31.874523,61.797443 32.504276,72.499748 
	C32.641682,74.834808 33.006310,77.169960 32.961880,79.499275 
	C32.883533,83.606758 35.685043,86.336349 37.538746,89.477135 
	C42.396122,97.707130 46.422630,106.374031 51.404018,114.558418 
	C62.062923,132.070938 74.243202,148.417236 87.511032,163.990601 
	C93.947113,171.545059 100.402733,179.087280 107.029716,186.473343 
	C112.679794,192.770584 116.071869,200.494827 120.321396,207.606720 
	C130.855484,225.236282 143.254318,241.382538 157.082413,256.424255 
	C165.848892,265.960144 175.052383,275.146576 185.014053,283.483215 
	C200.316345,296.289307 216.398590,307.972839 233.963531,317.566772 
	C238.673004,320.139069 243.029709,323.363647 247.999100,325.502106 
	C249.838058,326.293457 251.590729,326.225555 253.511398,325.531555 
	C282.543335,315.041077 306.512939,297.153351 326.909241,274.418579 
	C338.908295,261.043762 348.996155,246.205521 357.074066,230.037018 
	C360.337158,223.505722 360.092651,216.614456 359.294891,210.024826 
	C357.863556,198.201248 357.678314,186.251755 355.863556,174.521103 
	C353.438477,158.845184 351.983673,143.038254 348.703949,127.457069 
	C346.635986,117.632851 344.685669,107.901634 339.951080,99.026100 
	C333.897552,87.678101 323.896271,80.646614 312.482819,75.538361 
	C295.557922,67.963371 279.641388,58.528751 263.497681,49.504124 
	C259.756653,47.412819 255.553040,46.569862 251.479752,45.583618 
	C244.197906,43.820496 240.439133,48.759575 236.994492,53.996380 
	C228.865616,66.354553 217.688934,75.649918 205.307587,83.183769 
	C201.644592,85.412651 197.561844,87.635155 193.489807,89.477455 
	C181.102722,95.081696 183.949463,108.157883 193.020157,113.465546 
	C204.745544,120.326576 217.088562,121.944717 230.000000,117.000000 
	C237.305511,118.472130 241.646194,112.472542 246.192139,109.086655 
	C250.841812,105.623520 254.365753,99.751129 256.993866,93.997200 
	C257.691742,92.469315 258.547943,91.233780 260.500000,91.500000 
"/>
<path fill="none" opacity="1.000000" stroke="#000000" stroke-linecap="round" stroke-linejoin="round" stroke-width="7.000000"
	d="
M137.000000,164.000000 
	C129.152695,154.871292 121.527916,145.644424 116.392647,134.549683 
	C113.988983,129.356583 113.846252,123.745552 112.278328,118.418083 
	C111.352287,115.271591 114.998680,112.159424 116.556656,109.028191 
	C119.993011,102.121735 126.417419,98.974915 133.507523,98.792282 
	C137.632828,98.686020 142.042145,101.087929 145.962280,103.074448 
	C159.726151,110.049294 173.346832,117.307724 186.996429,124.506767 
	C202.540894,132.705185 217.318100,142.176880 231.388138,152.650284 
	C235.656586,155.827606 240.291412,157.703888 245.065933,158.676224 
	C247.409012,159.153397 248.220551,159.853104 248.988281,161.505447 
	C251.566818,167.055054 254.080429,172.610931 253.531616,179.002716 
	C253.329254,181.359711 253.604752,183.515442 255.415268,185.574509 
	C257.804321,188.291565 257.629425,192.214706 258.330627,195.535767 
	C261.349274,209.832733 267.111877,223.018280 273.546387,235.976959 
	C274.262512,237.419174 275.278625,239.087540 277.500000,238.500000 
"/>
<path fill="none" opacity="1.000000" stroke="#000000" stroke-linecap="round" stroke-linejoin="round" stroke-width="7.000000"
	d="
M151.000000,157.000000 
	C174.333328,168.333328 197.608398,179.789841 221.056610,190.880310 
	C225.025909,192.757706 229.157944,194.703796 234.001770,194.644577 
	C238.527695,194.589233 242.167465,193.018539 244.901337,189.913132 
	C247.367340,187.112000 250.220352,184.879501 253.000000,182.500000 
"/>
<path fill="none" opacity="1.000000" stroke="#000000" stroke-linecap="round" stroke-linejoin="round" stroke-width="8.000000"
	d="
M242.000000,46.500000 
	C236.301590,38.746246 229.622086,31.965157 220.468445,28.585470 
	C207.493500,23.794899 194.606674,21.734449 181.921890,30.385477 
	C174.205536,35.648048 171.960190,43.208008 170.517242,51.502998 
	C170.230942,53.148853 170.166656,54.833332 169.999985,56.500000 
"/>
<path fill="none" opacity="1.000000" stroke="#000000" stroke-linecap="round" stroke-linejoin="round" stroke-width="8.000000"
	d="
M199.500000,84.500000 
	C196.673874,78.315384 190.945099,74.703621 186.396072,70.102753 
	C182.918839,66.585884 178.010864,64.464951 174.614090,60.891548 
	C169.457581,55.466927 162.699997,56.216919 156.475266,55.143417 
	C152.788025,54.507519 148.815231,55.781006 145.548737,57.588097 
	C136.470703,62.610233 130.550858,75.393730 132.019043,85.997368 
	C132.574982,90.012512 134.088013,93.874222 134.000000,98.000000 
"/>
<path fill="none" opacity="1.000000" stroke="#000000" stroke-linecap="round" stroke-linejoin="round" stroke-width="8.000000"
	d="
M238.000000,116.500000 
	C242.948990,122.686775 247.897980,128.873550 253.428848,135.787750 
	C253.016586,142.969711 252.129501,151.348801 248.000000,159.000000 
"/>
<path fill="none" opacity="1.000000" stroke="#000000" stroke-linecap="round" stroke-linejoin="round" stroke-width="7.000000"
	d="
M247.500000,109.999992 
	C251.833344,114.166656 255.464554,120.159592 260.635468,122.147614 
	C274.530365,127.489662 288.047119,134.684601 303.500000,135.000000 
"/>
<path fill="none" opacity="1.000000" stroke="#000000" stroke-linecap="round" stroke-linejoin="round" stroke-width="8.000000"
	d="
M32.250000,217.000000 
	C32.641460,227.167694 32.420597,237.360489 33.500000,247.500000 
"/>
<path fill="none" opacity="1.000000" stroke="#000000" stroke-linecap="round" stroke-linejoin="round" stroke-width="8.000000"
	d="
M32.500000,110.500000 
	C32.500000,118.333336 32.545723,126.167145 32.463215,133.999619 
	C32.445740,135.658600 33.058701,137.422531 32.000000,139.000000 
"/>
<path fill="none" opacity="1.000000" stroke="#000000" stroke-linecap="round" stroke-linejoin="round" stroke-width="8.000000"
	d="
M32.250000,165.000000 
	C32.706444,174.333328 32.596333,183.666672 32.250000,193.000000 
"/>
<path fill="none" opacity="1.000000" stroke="#000000" stroke-linecap="round" stroke-linejoin="round" stroke-width="7.000000"
	d="
M133.500000,341.500000 
	C124.356201,342.924591 115.202209,343.788208 106.000000,342.000000 
"/>
<path fill="none" opacity="1.000000" stroke="#000000" stroke-linecap="round" stroke-linejoin="round" stroke-width="7.000000"
	d="
M37.500000,268.500000 
	C38.337582,277.263916 42.305077,285.004852 45.484467,293.006165 
	C45.930271,294.128143 46.166668,295.333344 46.500000,296.500000 
"/>
<path fill="none" opacity="1.000000" stroke="#000000" stroke-linecap="round" stroke-linejoin="round" stroke-width="7.000000"
	d="
M61.250000,316.000000 
	C66.286873,323.109772 73.243134,327.980225 80.500000,332.500000 
"/>
<path fill="none" opacity="1.000000" stroke="#000000" stroke-linecap="round" stroke-linejoin="round" stroke-width="7.000000"
	d="
M198.500000,266.500000 
	C197.019821,273.785278 195.464066,281.043243 191.000000,287.250000 
"/>
<path fill="none" opacity="1.000000" stroke="#000000" stroke-linecap="round" stroke-linejoin="round" stroke-width="7.000000"
	d="
M175.500000,315.750000 
	C169.353745,321.591156 163.539902,327.831238 156.000000,332.000000 
"/>
<path fill="none" opacity="1.000000" stroke="#000000" stroke-linecap="round" stroke-linejoin="round" stroke-width="7.000000"
	d="
M202.750015,229.000000 
	C202.500015,234.500000 202.250015,240.000000 202.000015,245.500000 
"/>
</svg>