<svg version="1.1" id="Layer_1" xmlns="http://www.w3.org/2000/svg" xmlns:xlink="http://www.w3.org/1999/xlink" x="0px" y="0px"
	 width="100%" viewBox="0 0 288 416" enable-background="new 0 0 288 416" xml:space="preserve">
<path fill="#000000" opacity="1.000000" stroke="none" 
	d="
M194.509644,400.723083 
	C171.231567,409.880127 147.592285,415.675110 122.813995,415.063263 
	C108.277794,414.704315 94.205818,411.580444 80.664757,405.931885 
	C69.769341,401.386932 63.627216,392.556488 57.832699,383.066833 
	C46.297806,364.176178 38.664955,343.712891 36.448692,321.847839 
	C33.742332,295.147675 35.052540,268.777710 52.912018,246.278122 
	C58.077415,239.770737 64.225601,234.476395 71.766701,231.036560 
	C75.173775,229.482452 76.784348,227.867386 76.625061,223.677109 
	C76.154961,211.310257 77.099731,199.057861 82.531166,187.582199 
	C87.003540,178.132904 93.941422,171.832413 104.346718,169.474960 
	C111.809677,167.784119 111.748787,167.616974 111.816277,159.965637 
	C112.041077,134.474106 110.484535,109.120872 107.145042,83.821045 
	C105.276649,69.666191 104.580956,55.359314 108.593346,41.241013 
	C111.507225,30.988033 118.359818,24.029884 128.791351,23.248682 
	C134.822571,22.797014 140.625122,24.792152 144.410965,30.320944 
	C150.362610,39.012589 153.085083,48.937508 155.279968,59.027729 
	C157.847397,70.830513 160.175888,82.685081 162.661285,94.505989 
	C163.448151,98.248428 163.461731,102.076584 163.967026,105.851379 
	C165.458588,116.994194 166.880386,128.156860 167.784424,139.389771 
	C168.268845,145.409027 169.050064,151.464096 169.265045,158.222443 
	C172.708908,155.942169 175.547638,154.063187 178.385651,152.183090 
	C179.459976,151.471390 179.795837,150.398941 179.894440,149.183823 
	C180.942093,136.271347 182.221771,123.372528 182.972290,110.442947 
	C183.444977,102.299644 185.209137,94.350723 185.936707,86.300957 
	C186.675186,78.130585 188.799210,70.378029 190.801147,62.551601 
	C192.005157,57.844597 194.231354,53.606716 197.584900,49.944431 
	C207.159332,39.488579 218.429138,44.414322 224.548264,52.127510 
	C229.877914,58.845589 230.923004,67.096840 231.823654,75.110428 
	C232.805222,83.843750 232.980804,92.718452 232.818832,101.518837 
	C232.491837,119.285629 231.430634,137.015945 229.203247,154.674911 
	C227.690033,166.671997 226.566635,178.715515 224.408585,190.628540 
	C224.056808,192.570419 223.907394,194.649231 224.895264,196.517120 
	C232.314957,210.546524 232.792480,226.084717 234.927505,241.315079 
	C236.657715,253.657578 238.083801,265.934814 238.099808,278.450562 
	C238.132141,303.729645 233.286560,327.930359 223.672012,351.231476 
	C218.211197,364.465942 212.474258,377.579956 205.039017,389.858765 
	C202.444946,394.142670 199.606323,398.286926 194.509644,400.723083 
M138.619217,346.874542 
	C139.568207,353.842804 141.947403,360.401489 144.380600,366.942932 
	C145.665192,370.396393 145.897812,373.875885 141.924774,375.389984 
	C138.159622,376.824921 137.309372,373.259399 136.171402,370.767731 
	C127.764542,352.360046 126.580109,332.919556 128.270737,313.148926 
	C128.498962,310.480011 127.994171,309.115692 125.656914,308.111267 
	C116.248055,304.067871 107.884804,298.305420 99.856949,292.052368 
	C97.206001,289.987518 94.831497,289.374176 91.722702,291.136108 
	C84.865814,295.022339 77.113808,295.362244 69.523636,296.109131 
	C66.421356,296.414398 63.582180,295.214050 63.534012,291.627930 
	C63.490791,288.410431 65.961296,287.160675 68.970169,287.035126 
	C69.802574,287.000366 70.662544,287.120636 71.464912,286.953705 
	C76.498009,285.906433 81.894714,286.019867 86.739479,282.511566 
	C82.767792,278.818909 79.093224,275.484100 75.518356,272.045624 
	C73.619919,270.219635 72.130058,268.175781 74.456787,265.585052 
	C76.651199,263.141693 78.925209,262.987518 81.337067,265.294983 
	C82.057243,265.984009 82.912376,266.530670 83.645508,267.207733 
	C91.365257,274.337219 99.570801,280.879272 108.090286,287.007141 
	C116.723557,293.216827 125.271645,299.664276 136.188446,301.527618 
	C140.557831,302.273438 144.644623,301.640961 147.676971,298.374878 
	C150.712982,295.104828 149.545975,291.132568 148.053635,287.566772 
	C146.031418,282.734924 142.551727,278.880463 138.898148,275.188354 
	C129.390717,265.580536 119.106834,256.839508 108.583748,248.397034 
	C103.160751,244.046265 97.907135,239.052185 90.972260,237.282013 
	C80.121567,234.512314 71.864616,240.038712 64.683586,247.114624 
	C52.228477,259.387360 47.002430,274.931183 45.592709,291.996887 
	C42.741108,326.517578 51.573391,357.860260 71.032494,386.404999 
	C74.672737,391.744904 79.431908,395.228546 85.194229,397.793488 
	C97.738373,403.377258 111.025162,405.260773 124.551331,405.615723 
	C145.798035,406.173218 166.118469,401.378540 185.949509,394.183746 
	C189.724503,392.814209 193.148514,391.016602 195.482605,387.353485 
	C204.739716,372.825439 212.222931,357.456146 217.886093,341.201050 
	C223.531311,324.997589 227.133499,308.436249 228.215256,291.208435 
	C229.064545,277.682892 228.473373,264.320251 226.955002,250.932159 
	C225.910904,241.726028 225.117264,232.473495 223.593643,223.344864 
	C222.126328,214.553665 220.561951,205.705383 215.194351,198.100021 
	C207.308624,186.926682 198.552155,176.436722 190.068909,165.736343 
	C184.667694,158.923477 178.561401,159.795578 175.384781,167.924530 
	C169.234009,183.664322 170.751648,198.940002 179.627975,213.290939 
	C183.797821,220.032593 190.610046,221.873154 197.315857,218.463470 
	C200.111130,217.042175 202.727081,215.847321 204.429535,219.464691 
	C206.034271,222.874435 204.105301,224.984360 201.165253,226.723480 
	C195.514038,230.066284 189.607697,230.524582 183.128479,228.286972 
	C178.776703,241.330734 178.095215,254.099030 180.348175,267.002014 
	C180.970459,270.566010 180.075058,272.814392 176.807693,273.388367 
	C173.161835,274.028839 171.439285,271.718201 171.058624,268.163269 
	C170.592194,263.807587 169.929077,259.472961 169.275528,254.561981 
	C163.324066,259.487640 159.607361,265.410065 155.291183,270.834290 
	C152.566788,274.258057 151.774963,277.198975 154.852371,280.953705 
	C156.473572,282.931763 157.283707,285.689606 158.070572,288.216614 
	C161.579605,299.486053 154.458466,309.767365 142.658508,310.221680 
	C139.213608,310.354340 138.430710,311.810883 137.632370,314.857697 
	C134.873779,325.385651 136.944290,335.677216 138.619217,346.874542 
M155.186493,112.149689 
	C153.676788,98.147209 151.466721,84.238083 148.547806,70.478600 
	C146.176575,59.300861 143.795593,48.040249 138.289139,37.805309 
	C137.082336,35.562222 135.853592,33.534008 132.940125,33.098255 
	C125.737602,32.021015 120.532692,35.090076 118.176857,41.980404 
	C114.030083,54.108883 113.912933,66.797028 115.667290,79.045235 
	C118.451180,98.481178 120.238205,117.935982 120.975990,137.511887 
	C121.308273,146.328430 121.128532,155.164612 121.159851,163.991943 
	C121.168350,166.387177 121.289673,168.526688 123.934196,169.830292 
	C130.533768,173.083527 134.726791,178.533890 137.319168,185.310043 
	C144.450760,203.951126 150.304825,222.956604 154.376297,242.527664 
	C155.111526,246.061859 154.523727,249.994431 156.496490,253.454208 
	C165.776810,246.226730 169.599304,240.912521 171.782135,234.526596 
	C174.239227,227.338257 174.647522,221.277969 169.826431,214.253220 
	C160.880844,201.218750 161.858582,185.437515 160.941040,170.500427 
	C159.759308,151.262390 157.681290,132.141052 155.186493,112.149689 
M196.304993,77.842789 
	C194.124786,93.240593 191.322693,108.566940 191.161575,124.193626 
	C191.139511,126.333786 190.423935,128.469803 190.429382,130.606720 
	C190.456924,141.430511 185.799515,153.466843 198.153580,161.219788 
	C198.941803,161.714462 199.350235,162.797989 199.969849,163.580246 
	C205.094788,170.050415 210.227859,176.514130 215.573715,183.251068 
	C218.522186,178.899414 217.205627,174.387329 217.992096,170.256531 
	C221.444992,152.120392 221.911514,133.666122 223.458130,115.354012 
	C224.742126,100.151398 223.912476,84.787338 221.894867,69.587082 
	C221.571686,67.152184 220.831223,64.704582 219.872543,62.436634 
	C218.009430,58.029110 215.607101,53.948849 209.964111,53.966518 
	C204.278625,53.984322 202.087448,58.206951 200.201370,62.579689 
	C198.217209,67.179901 197.464386,72.120628 196.304993,77.842789 
M133.835785,203.519302 
	C131.855270,197.705612 130.038651,191.829025 127.839622,186.099197 
	C126.235260,181.918854 123.430122,178.605927 118.833870,177.436951 
	C108.576645,174.828201 96.788155,180.159653 91.776062,189.635025 
	C86.284210,200.017365 86.062080,211.308502 85.854782,222.675491 
	C85.772003,227.214600 87.770378,227.531921 91.391647,226.947708 
	C90.640617,223.554764 90.952980,220.369553 89.864006,217.323532 
	C88.613312,213.825211 90.134811,211.179840 93.515770,210.385406 
	C96.867638,209.597839 98.062317,212.467697 98.842873,215.080246 
	C99.361916,216.817535 99.576569,218.662003 99.778046,220.475113 
	C100.671753,228.517609 103.973938,234.943283 111.496010,238.785339 
	C113.087509,239.598221 114.397766,240.995895 115.767059,242.204086 
	C124.500557,249.910278 133.196991,257.658569 141.955505,265.336151 
	C143.113602,266.351318 144.170868,268.312134 146.121155,267.183167 
	C147.719727,266.257812 147.791626,264.433411 147.673248,262.709534 
	C147.616257,261.879547 147.645691,261.042419 147.564728,260.215515 
	C145.677200,240.937881 140.326706,222.496078 133.835785,203.519302 
z"/>
</svg>