<svg version="1.1" id="Layer_1" xmlns="http://www.w3.org/2000/svg" xmlns:xlink="http://www.w3.org/1999/xlink" x="0px" y="0px"
	 width="100%" viewBox="0 0 320 384" enable-background="new 0 0 320 384" xml:space="preserve">
<path fill="#000000" opacity="1.000000" stroke="none" 
	d="
M237.654282,48.445534 
	C256.042847,39.135490 278.978363,49.049610 288.772552,68.305870 
	C295.783875,82.090790 296.856628,96.835014 295.574738,111.969734 
	C294.285858,127.187454 291.538879,142.193024 288.891846,157.190521 
	C286.328156,171.716064 283.459259,186.286041 275.182953,198.996399 
	C274.003723,200.807419 273.033600,203.097076 271.337372,204.173294 
	C260.421387,211.099243 261.194489,222.250076 260.215759,232.985153 
	C259.194061,244.191452 256.936493,255.217697 254.663177,266.257874 
	C251.688004,280.706635 248.145844,294.985992 244.029465,309.128967 
	C241.386063,318.211060 238.433212,327.211639 235.685455,336.257080 
	C232.345383,347.252258 225.755615,353.602386 214.536072,356.216003 
	C203.057281,358.889984 191.676117,361.753204 180.011139,363.746277 
	C154.008072,368.189148 127.984543,368.203156 102.031639,364.849274 
	C84.772530,362.618866 67.583458,359.376862 50.921429,353.882935 
	C46.062660,352.280823 43.407600,349.298187 42.048290,344.724701 
	C38.137619,331.566986 34.592087,318.327789 31.489592,304.938629 
	C27.984243,289.810913 25.097090,274.569305 23.225254,259.214508 
	C22.268604,251.367081 20.362087,243.514984 20.954325,235.461426 
	C21.369843,229.810989 19.710833,224.277832 19.895397,218.572556 
	C20.349417,204.537964 22.154903,190.874863 27.695211,177.784058 
	C29.937012,172.487106 29.543903,166.454483 31.158564,160.837799 
	C35.905205,144.326294 47.621426,135.241531 62.913090,129.656509 
	C66.172150,128.466187 69.478416,127.405136 73.009026,126.200569 
	C70.162621,117.150345 68.393547,108.184395 71.875656,99.195717 
	C75.165306,90.703850 80.253105,83.971199 90.271965,83.062492 
	C92.665085,82.845451 93.628464,81.190697 94.583618,79.392433 
	C99.678635,69.800087 105.836952,60.921394 112.528015,52.380882 
	C124.093048,37.619183 139.118057,34.595142 155.281525,44.290932 
	C159.046555,46.549412 160.827560,46.417797 163.569397,42.672039 
	C178.388123,22.427444 211.722275,24.307903 226.819962,46.004135 
	C231.093750,52.145809 231.093750,52.145813 237.654282,48.445534 
M247.359390,255.800949 
	C248.838974,245.995117 250.655930,236.224457 251.683441,226.371475 
	C252.408020,219.423309 254.451904,211.437256 244.450027,208.488449 
	C242.951904,208.046768 241.603119,206.722412 240.455582,205.543289 
	C237.793152,202.807526 234.640121,201.984558 230.935776,202.312302 
	C221.784027,203.122009 213.467194,200.774216 205.992691,195.421936 
	C205.188049,194.845749 204.317810,194.253708 203.098099,195.010468 
	C202.920547,195.283249 202.521896,195.656830 202.410065,196.102386 
	C199.576157,207.392838 192.254410,213.214172 180.597809,213.041336 
	C169.731567,212.880219 160.566177,208.690033 153.335495,200.537445 
	C151.532196,198.504211 149.781952,196.724228 146.518219,196.920715 
	C146.623474,197.792053 146.568542,198.461624 146.792053,199.019684 
	C150.326736,207.844147 153.100342,216.903625 155.378433,226.128387 
	C157.881790,236.265259 154.712738,243.302063 145.360123,248.002060 
	C142.826920,249.275055 140.239532,250.256683 137.319275,250.485397 
	C134.500763,250.706161 132.402695,251.795303 132.291840,255.396164 
	C131.552917,279.400513 131.972336,303.296967 137.843903,326.781708 
	C139.385178,332.946350 138.455933,336.504272 134.874939,336.805420 
	C129.311188,337.273376 129.209503,332.325348 128.446320,328.912262 
	C127.070518,322.759521 126.686943,316.390747 125.447311,310.200653 
	C121.783409,291.904999 122.561707,273.444946 123.378151,255.014481 
	C123.529495,251.597946 122.774452,250.116745 119.780434,249.273239 
	C115.077431,247.948288 110.895805,245.598892 106.916817,242.787628 
	C96.500214,235.427933 89.417366,225.067505 81.909180,215.102829 
	C80.142830,212.758575 78.735008,211.968430 75.383820,212.539062 
	C66.297165,214.086273 57.201805,213.130463 48.389240,210.081894 
	C45.709728,209.154968 44.618465,207.471725 45.087872,204.780060 
	C45.577045,201.975082 47.775360,201.477142 50.030819,201.773911 
	C54.459026,202.356567 58.879932,203.083038 63.244942,204.023468 
	C65.734703,204.559860 68.048721,205.113434 70.511742,203.149185 
	C69.302849,199.787552 66.215355,198.542847 63.810925,196.663498 
	C61.034149,194.493088 58.225739,192.016800 60.942509,188.419968 
	C63.569252,184.942307 66.690140,187.106628 69.221779,189.093887 
	C75.271133,193.842407 80.628235,199.317993 85.370056,205.369781 
	C92.552444,214.536346 98.984970,224.347733 107.943375,231.989914 
	C115.220772,238.198029 123.264580,242.490005 133.280487,241.955566 
	C143.631516,241.403229 148.016541,235.743988 145.652542,225.854309 
	C139.258911,199.106888 126.935844,175.047119 111.849869,152.350388 
	C106.965721,145.002243 100.803314,138.393829 91.699242,135.976410 
	C83.346024,133.758377 75.239693,135.426941 67.233543,138.081573 
	C50.738892,143.550827 39.193676,153.485123 38.152981,174.689758 
	C38.008148,177.640839 37.819244,181.022949 36.348431,183.399567 
	C30.479555,192.882782 29.535769,203.517090 29.448858,214.014893 
	C29.253771,237.579407 32.327953,260.861542 36.684685,284.043060 
	C40.211903,302.810852 44.790581,321.253143 50.281326,339.511414 
	C51.173508,342.478180 52.482018,344.448151 55.673004,345.251251 
	C61.778633,346.787811 67.713371,349.176300 73.886360,350.241791 
	C98.269363,354.450317 122.670113,358.087677 147.622284,357.100037 
	C171.069244,356.172028 193.883057,352.535767 216.234009,345.452637 
	C220.674927,344.045319 223.250122,341.615204 224.935699,337.459259 
	C230.121719,324.672577 234.173859,311.520111 237.495651,298.162445 
	C240.927261,284.363098 243.877609,270.444061 247.359390,255.800949 
M120.143929,57.643085 
	C113.859779,64.828835 108.997856,72.970612 104.109032,81.119171 
	C102.171997,84.347778 102.734703,86.142731 105.952888,87.810478 
	C126.241608,98.324638 136.916977,116.365517 144.071106,137.036865 
	C148.654617,150.280609 150.669785,164.129120 153.234787,177.845688 
	C156.210846,193.760529 164.358124,201.983109 178.309494,203.410477 
	C186.777939,204.276901 193.062546,200.777023 193.642120,194.290298 
	C194.678574,182.689850 194.248749,171.062027 192.919632,159.500198 
	C191.669022,148.621262 190.057724,137.798157 187.798431,127.059296 
	C184.445221,111.120850 180.878693,95.272209 174.037079,80.379562 
	C169.311707,70.093498 163.028122,60.928879 153.844666,54.119476 
	C141.649780,45.077126 131.037552,46.134434 120.143929,57.643085 
M211.107239,187.408005 
	C215.397064,191.142029 220.548080,193.124680 226.043716,193.734207 
	C235.299637,194.760849 245.258652,190.808701 246.111542,177.638428 
	C246.930252,164.996155 245.880737,152.410446 245.825333,139.804443 
	C245.791458,132.104050 244.398666,124.314148 242.801529,116.736145 
	C239.560043,101.355988 235.281891,86.230522 229.662399,71.524048 
	C225.963379,61.843464 221.748108,52.455669 213.781189,45.341850 
	C201.382599,34.270893 180.628265,35.604156 170.912415,48.168671 
	C168.833755,50.856754 166.984924,53.489506 169.980515,57.006302 
	C180.219528,69.026787 186.080368,83.255501 190.376312,98.255211 
	C192.984192,107.360916 195.026962,116.574120 196.796906,125.882774 
	C198.961365,137.266174 201.508270,148.556030 202.268875,160.174118 
	C202.892761,169.704041 203.493896,179.345566 211.107239,187.408005 
M246.560532,93.156578 
	C248.700912,102.514030 251.471832,111.780273 252.841415,121.249214 
	C255.195572,137.525452 256.843414,153.913635 256.059631,170.432587 
	C255.596802,180.187851 254.489136,189.681335 247.075668,197.087021 
	C246.797684,197.364700 246.868759,197.991837 246.789062,198.395950 
	C254.011490,204.767029 258.585876,204.625504 264.673492,197.806335 
	C267.810638,194.292221 270.038269,190.217224 271.746735,185.826797 
	C277.317749,171.510345 279.707001,156.468323 282.156311,141.414246 
	C284.583405,126.496567 287.626404,111.642532 286.666534,96.415955 
	C285.998749,85.822266 283.204773,75.773026 276.982788,67.024971 
	C267.540009,53.748482 250.147842,50.213280 238.290695,58.779278 
	C236.159210,60.319130 235.476471,61.771305 236.525665,64.187698 
	C240.498001,73.336357 243.375290,82.868462 246.560532,93.156578 
M102.042114,130.297943 
	C107.145767,133.515121 111.607704,137.389496 115.479759,142.085144 
	C124.993690,153.622757 131.587708,166.881042 138.363281,180.041870 
	C139.646317,182.534027 141.089203,184.433411 144.282700,184.139740 
	C144.432419,183.372528 144.682632,182.865845 144.595276,182.426239 
	C141.233536,165.509583 138.637299,148.373230 132.236038,132.240250 
	C125.504845,115.275757 114.846802,101.624794 97.688057,93.997543 
	C89.838135,90.508163 82.618256,94.148911 80.322433,102.462936 
	C78.661545,108.477608 79.801567,114.194267 81.246727,120.069397 
	C82.237724,124.098198 83.814110,125.623886 88.213539,125.803055 
	C92.740974,125.987450 97.384247,127.333763 102.042114,130.297943 
z"/>
</svg>