<svg version="1.1" id="Layer_1" xmlns="http://www.w3.org/2000/svg" xmlns:xlink="http://www.w3.org/1999/xlink" x="0px" y="0px"
	 width="100%" viewBox="0 0 352 400" enable-background="new 0 0 352 400" xml:space="preserve">
<path fill="#000000" opacity="1.000000" stroke="none" 
	d="
M61.111832,188.345779 
	C63.002357,180.600616 63.718056,173.068314 63.720360,165.641296 
	C63.728691,138.745834 72.005051,114.938179 89.231735,94.337181 
	C107.605545,72.364388 126.127060,50.499950 147.293961,31.099123 
	C156.005692,23.114262 166.633759,19.155991 178.345963,19.712994 
	C189.351227,20.236376 199.728622,23.909405 209.843750,28.330986 
	C226.458740,35.593834 242.753082,43.612663 259.823517,49.811760 
	C262.947205,50.946125 266.095642,52.119461 269.331268,52.818066 
	C278.493286,54.796238 285.203888,60.029972 290.468567,67.599457 
	C294.933441,74.018990 299.667023,80.254539 304.375092,86.501114 
	C308.104065,91.448654 311.639709,96.585197 313.686371,102.398308 
	C315.472229,107.470688 317.895233,110.876938 323.117096,113.350052 
	C329.359711,116.306595 331.557983,122.925949 332.243652,129.640854 
	C333.650177,143.415771 333.017059,157.178085 332.424042,170.995377 
	C331.835236,184.714813 327.240082,196.565231 319.551941,207.609177 
	C313.522583,216.270248 306.369934,223.973251 298.904419,231.302368 
	C281.409302,248.477814 269.077026,269.146820 257.634827,290.480652 
	C244.929199,314.169983 231.329178,337.250214 212.155731,356.462921 
	C205.330551,363.302094 197.739487,369.294342 190.068787,375.145203 
	C183.448837,380.194611 175.328003,380.989380 167.482544,381.907166 
	C138.081543,385.346405 109.368622,383.134369 82.250740,370.059998 
	C62.021477,360.306824 46.599365,345.226685 34.584209,326.446533 
	C32.640713,323.408813 32.377125,320.135437 33.233856,316.835022 
	C40.460796,288.994385 47.091652,261.006348 53.197033,232.906662 
	C56.366432,218.319672 59.462345,203.670135 61.111832,188.345779 
M155.183029,67.669617 
	C139.859024,85.021698 124.414337,102.269348 109.268547,119.775604 
	C102.925186,127.107574 97.371918,135.088165 96.262749,145.179688 
	C95.896202,148.514603 94.955704,151.418304 90.992142,150.899353 
	C86.777527,150.347534 86.593643,147.008347 87.063286,143.611969 
	C88.279770,134.814560 92.008385,127.105240 97.301018,120.083504 
	C103.626961,111.690872 110.714775,103.950821 117.723152,96.136017 
	C129.066635,83.487297 140.249405,70.694443 151.592453,58.045319 
	C155.262177,53.953033 160.066483,51.758076 165.412613,50.551262 
	C174.718872,48.450504 184.233887,48.458046 193.653809,47.982380 
	C207.225601,47.297058 220.841446,47.531174 234.360397,50.118904 
	C219.749344,43.723621 205.727112,36.074154 190.462997,31.269436 
	C173.941086,26.068798 160.019730,30.352701 148.329147,42.723660 
	C129.230698,62.933605 109.907715,82.939194 92.664207,104.819954 
	C81.831200,118.566254 75.277031,134.111618 74.371124,151.511078 
	C73.087250,176.170395 69.285400,200.419418 64.535255,224.581161 
	C58.633610,254.600082 50.798359,284.165527 43.663647,313.894318 
	C42.539185,318.579681 42.985641,322.393372 45.827942,326.473663 
	C57.879173,343.773834 73.472504,356.712616 92.985420,364.516296 
	C118.368233,374.667511 144.832031,375.575500 171.568115,371.962860 
	C176.568893,371.287170 181.497147,369.893433 185.884445,366.642395 
	C207.949219,350.292175 225.011337,329.758392 238.580780,305.989532 
	C248.565155,288.500458 257.770508,270.569458 268.792938,253.655045 
	C278.337982,239.007721 290.648895,226.850235 302.413361,214.158920 
	C312.269287,203.526505 320.371368,191.983841 322.530396,177.056641 
	C324.644257,162.441681 323.559387,147.798935 323.531952,133.167221 
	C323.526825,130.439697 322.363678,127.648560 321.398010,125.010094 
	C320.664795,123.006622 319.466339,121.116119 316.531647,121.005478 
	C313.627258,132.410263 305.642731,138.399078 294.635040,140.991837 
	C293.444519,141.272247 292.463074,141.781754 291.738708,142.778839 
	C285.516449,151.343750 280.691864,167.798401 287.886017,177.413376 
	C289.765015,179.924667 289.829468,182.411362 287.071747,184.340622 
	C284.148529,186.385666 282.135437,184.620804 280.262299,182.456360 
	C278.798340,180.764709 278.530487,178.156006 276.412384,176.996857 
	C274.593964,177.888168 273.799591,179.398422 272.709137,180.630493 
	C266.080719,188.119690 259.297913,195.480408 251.207901,201.430344 
	C245.486053,205.638550 239.115082,208.299561 232.089554,205.015488 
	C216.447052,197.703506 204.810257,185.665604 194.548080,172.158844 
	C192.839737,169.910385 193.554474,167.620483 195.991974,166.235855 
	C197.836899,165.187836 199.180893,163.913864 199.718674,161.825333 
	C200.876007,157.330582 202.172501,152.869293 203.230774,148.351837 
	C206.586746,134.026245 211.935669,121.020531 225.659271,113.331718 
	C226.598358,112.805588 227.774734,112.076027 227.051453,110.607536 
	C225.957870,109.419289 224.894226,109.895622 223.915939,110.629288 
	C210.748581,120.504410 197.034393,129.746582 192.962860,147.485947 
	C191.106949,155.572006 187.250412,163.094925 183.350632,170.465012 
	C182.122696,172.785675 180.555603,174.847733 177.475098,173.549606 
	C174.302979,172.212830 174.346542,169.509079 175.126450,166.782883 
	C175.532928,165.361954 176.360626,164.058197 177.025360,162.714996 
	C180.279587,156.139389 183.010422,149.342102 184.864685,142.253555 
	C186.805740,134.833145 190.146271,128.308395 195.611649,122.875359 
	C201.063782,117.455475 206.271530,111.781822 212.499649,107.129143 
	C209.088913,107.609772 205.896133,108.682449 202.629623,109.002319 
	C196.509567,109.601646 192.892868,112.637627 190.361267,118.289467 
	C187.030716,125.724976 181.593353,131.832550 174.137909,135.341614 
	C169.655838,137.451218 168.748367,140.752686 169.546295,144.622208 
	C171.697525,155.054565 168.645172,164.923264 166.959656,174.963654 
	C165.699524,182.470261 163.633911,189.981247 163.526093,197.513168 
	C163.288620,214.099930 162.008270,230.722321 164.864059,247.303802 
	C166.121292,254.603577 166.202194,262.107666 167.701767,269.454865 
	C168.891586,275.284363 169.297684,281.288208 169.807922,287.235535 
	C170.033279,289.862213 168.478302,291.837738 165.858749,292.213043 
	C163.504272,292.550385 161.550110,291.392181 161.089630,288.845886 
	C160.000122,282.821198 158.603088,276.805023 158.143082,270.723938 
	C157.318695,259.825684 155.412842,249.072525 154.534943,238.167603 
	C152.627213,214.470734 153.915878,191.166519 159.131302,167.938171 
	C160.809448,160.464066 162.173676,152.664261 160.220062,144.733795 
	C158.289734,136.897781 160.175140,132.856476 167.081879,128.899933 
	C174.849686,124.450127 180.872208,118.636253 184.234482,110.133469 
	C185.742279,106.320457 188.701553,103.439545 192.672607,102.042389 
	C208.167267,96.590843 223.443436,94.299568 237.626480,105.628059 
	C238.661758,106.454971 239.848511,107.097900 240.988647,107.786980 
	C251.649551,114.230331 263.032806,115.859596 275.048767,112.673859 
	C287.567749,109.354744 292.216095,98.133858 284.114319,89.832916 
	C270.269684,75.647957 254.036163,65.121170 234.463806,60.519978 
	C216.046951,56.190430 197.349854,57.924393 178.752884,58.510235 
	C170.276962,58.777241 161.671722,59.790810 155.183029,67.669617 
M209.293213,176.003647 
	C216.049637,182.925873 223.264526,189.251953 231.514771,194.416992 
	C236.798553,197.724899 241.280075,197.201874 246.163864,193.566666 
	C264.123047,180.198868 276.654633,163.304825 280.706055,140.094147 
	C269.367218,137.239655 260.653564,128.382538 250.286331,122.275894 
	C238.215881,115.166016 237.982178,115.824654 226.792175,123.805725 
	C221.252167,127.757042 217.489136,132.732834 215.666748,139.248596 
	C212.899582,149.142303 210.088531,159.023743 207.332901,168.920624 
	C206.665176,171.318787 207.107712,173.544296 209.293213,176.003647 
M295.402649,107.668343 
	C290.288605,117.779015 280.626068,121.196640 269.365204,124.276665 
	C277.632843,129.776962 284.992493,132.535706 294.034119,131.136948 
	C301.788544,129.937332 307.808624,122.272888 307.564148,116.618057 
	C307.173035,107.572174 302.881897,100.151901 296.964233,93.455589 
	C299.271759,98.289963 297.565613,102.650444 295.402649,107.668343 
M274.446747,64.944733 
	C271.183868,62.884205 267.454895,62.316326 263.698608,61.642216 
	C270.773651,65.960236 276.927673,71.555191 284.110229,75.714264 
	C281.464874,71.853149 279.300140,67.671906 274.446747,64.944733 
z"/>
</svg>