<svg version="1.1" id="Layer_1" xmlns="http://www.w3.org/2000/svg" xmlns:xlink="http://www.w3.org/1999/xlink" x="0px" y="0px"
	 width="100%" viewBox="0 0 256 432" enable-background="new 0 0 256 432" xml:space="preserve">
<path fill="#000000" opacity="1.000000" stroke="none" 
	d="
M71.052887,421.137451 
	C63.443039,419.382416 59.132603,414.732910 55.754028,408.237183 
	C45.890850,389.274017 38.393154,369.557159 33.385246,348.729279 
	C28.223551,327.261810 26.536964,305.577423 26.804502,283.636627 
	C26.840778,280.661743 27.308338,277.689636 27.623487,274.721222 
	C28.320215,268.158722 26.465532,261.935516 25.343588,255.577179 
	C22.967482,242.111252 25.867657,230.100555 36.420887,220.670959 
	C40.111031,217.373734 43.578976,215.786118 55.260479,216.244385 
	C53.993778,209.466507 53.842590,202.711502 54.653446,195.969742 
	C55.563503,188.403198 56.010651,180.749069 60.028419,173.895187 
	C70.095543,156.721817 97.653572,154.457275 110.314354,169.827011 
	C111.662712,171.463867 113.021637,173.092026 114.832634,175.275085 
	C116.899971,166.920715 117.109940,158.974731 117.876976,151.138123 
	C119.211372,137.505020 117.945541,123.886078 116.636833,110.322197 
	C115.997192,103.692657 112.102203,97.802612 111.323616,91.129150 
	C110.264099,82.047821 110.329765,73.369675 116.434258,65.467812 
	C119.470779,61.537247 119.044601,55.965656 119.699684,51.066795 
	C121.255013,39.435616 129.453888,30.517948 140.308472,29.023899 
	C159.999390,26.313601 168.491730,31.960258 172.568405,52.008358 
	C174.804443,63.004658 175.884811,74.250214 174.377014,85.639145 
	C173.512695,92.167679 173.853073,98.624908 177.089203,105.033836 
	C185.963440,122.608719 191.891922,141.302399 196.522049,160.429779 
	C201.656143,181.638962 209.971497,201.733276 218.392548,221.786865 
	C224.470688,236.261093 229.475510,250.985153 228.050385,267.090729 
	C227.154236,277.218323 223.898636,286.838928 221.777481,296.698608 
	C220.127365,304.368805 218.893066,312.012512 219.083801,319.852539 
	C219.506302,337.218567 215.443115,353.745544 209.534348,369.874420 
	C204.953156,382.379395 198.936356,394.276428 193.548126,406.439575 
	C189.705429,415.113861 184.168610,420.470612 174.527390,421.653778 
	C164.828705,422.843964 155.243240,425.285858 145.526764,425.907776 
	C136.099091,426.511200 126.676216,427.656799 117.164719,427.323608 
	C101.704437,426.781952 86.394890,425.365784 71.052887,421.137451 
M173.428802,120.069077 
	C169.039948,110.167778 164.539917,100.313759 158.830734,91.087410 
	C154.018890,83.311180 149.675064,75.153191 142.590530,69.057350 
	C136.179733,63.541233 130.169205,64.076424 124.802116,70.428581 
	C122.192726,73.516907 121.297699,77.113708 121.021202,81.034180 
	C120.293205,91.356415 123.974518,100.648407 127.514832,110.008270 
	C134.762558,129.169785 140.329132,148.863693 145.602524,168.629944 
	C149.740570,184.140549 148.845627,199.575653 143.584213,214.739777 
	C142.543808,217.738388 140.593353,219.828415 137.191559,218.718933 
	C133.638596,217.560135 133.181702,214.893845 134.238113,211.469833 
	C135.604843,207.039932 136.916214,202.540115 137.632675,197.973312 
	C139.177078,188.129013 137.816971,178.427505 135.304932,168.863434 
	C133.143845,160.635483 130.957718,152.414124 128.782669,144.189850 
	C127.872826,147.187576 128.126373,150.028534 127.830284,152.811020 
	C126.299034,167.200958 124.049919,181.542801 123.222305,195.968597 
	C122.731133,204.530060 124.525131,212.806152 132.601395,218.728287 
	C141.160172,225.004257 149.576584,231.615967 156.722488,239.620392 
	C169.275116,253.681137 180.217285,269.016571 191.841324,283.812286 
	C195.645645,288.654663 199.737106,293.350677 201.158447,299.575043 
	C204.050964,312.242004 200.919006,324.674805 199.448502,337.149597 
	C199.109467,340.025543 196.434357,341.304321 193.806290,340.952209 
	C190.632248,340.526886 189.579590,337.976257 189.885345,334.984314 
	C190.493851,329.029785 190.669846,322.964508 191.986557,317.163330 
	C194.423477,306.426849 191.304382,297.582001 184.546631,289.391296 
	C178.721725,282.331268 173.259964,274.972290 167.610245,267.766968 
	C159.082458,256.891113 150.986008,245.554306 140.133575,236.830399 
	C127.259209,226.481140 114.926216,215.576569 103.171371,203.983566 
	C101.185532,202.025085 98.639984,200.604492 96.260452,199.079865 
	C84.720955,191.686295 69.786278,202.032089 71.762131,213.748337 
	C72.694855,219.279083 74.115807,224.422058 76.689407,229.312729 
	C84.147537,243.485504 94.506927,255.349945 105.975693,266.374695 
	C113.312164,273.427155 121.207359,279.805603 129.008301,286.308319 
	C130.926285,287.907104 132.986694,289.673004 131.623459,292.642090 
	C130.678268,294.700653 128.694565,295.928589 126.721138,295.161957 
	C122.600212,293.561005 120.977867,296.365967 119.076508,298.817932 
	C116.711525,301.867798 114.831268,305.252686 113.661560,308.906036 
	C105.928238,333.059570 101.883728,357.408112 110.437271,382.279144 
	C111.455322,385.239319 110.262634,387.205231 107.838470,388.505585 
	C105.016159,390.019592 102.892776,388.447937 101.585297,386.144501 
	C100.370132,384.003693 99.658134,381.559326 98.861023,379.202454 
	C95.879272,370.386139 95.449753,361.266205 95.918373,352.083405 
	C97.073448,329.449768 99.784752,307.258301 114.690994,288.680695 
	C114.954460,288.352325 114.887665,287.758972 115.022888,287.031616 
	C113.428375,285.658966 111.793198,284.259796 110.167114,282.850159 
	C95.512825,270.146423 81.803375,256.576080 71.621628,239.881958 
	C68.384422,234.574203 63.895016,230.757996 58.627518,227.749252 
	C49.332493,222.440018 42.029270,224.975937 37.449772,234.658493 
	C32.216930,245.722427 33.748192,256.445648 39.092651,266.772858 
	C46.871243,281.803589 57.107914,295.138489 68.624245,307.497101 
	C70.917969,309.958557 73.611794,312.061249 76.813049,313.088531 
	C80.975075,314.424133 85.436363,315.251038 89.161728,312.165009 
	C92.885315,309.080444 92.146606,304.627045 91.542191,300.502197 
	C91.310013,298.917694 90.449760,297.346069 89.588547,295.945099 
	C80.845963,281.723328 74.386261,266.315887 66.475296,251.666580 
	C64.942436,248.828110 64.030136,246.147049 67.243210,244.354767 
	C70.308563,242.644882 73.075005,243.897095 74.840118,246.935532 
	C76.010643,248.950470 77.093857,251.019196 78.146065,253.099289 
	C82.956139,262.608185 87.601837,272.203674 92.593506,281.615845 
	C95.161255,286.457550 98.482414,290.891266 100.362740,296.116211 
	C102.536980,302.157867 102.854897,308.200836 99.969162,314.044983 
	C95.286331,323.528748 83.199226,326.599457 72.131920,321.194000 
	C64.290199,317.364014 58.580574,311.024963 53.235401,304.401581 
	C47.647678,297.477600 42.360199,290.311279 36.411114,282.559875 
	C35.614529,302.901947 37.905247,322.038116 41.703850,341.133362 
	C46.255127,364.012268 54.699585,385.332275 65.525436,405.855530 
	C67.135750,408.908325 69.208969,410.762665 72.502975,411.650604 
	C87.659576,415.736359 103.026657,417.824707 118.765778,417.821716 
	C131.632156,417.819305 144.288956,415.991028 157.042343,414.911896 
	C178.311356,413.112213 179.574814,413.009247 188.799988,393.867798 
	C200.189468,370.235565 209.132660,345.929169 209.203232,319.046967 
	C209.229172,309.167572 210.607315,299.216461 213.411026,289.546631 
	C215.386719,282.732452 217.363693,275.847687 218.013428,268.735535 
	C219.394577,253.617157 216.113876,239.377914 209.854095,225.648438 
	C202.479935,209.474823 195.560257,193.084473 190.712219,175.956329 
	C185.468506,157.430328 181.118530,138.641586 173.428802,120.069077 
M99.642174,172.713089 
	C96.205788,169.880280 91.977928,169.519272 87.856567,169.356934 
	C80.054115,169.049545 72.624794,170.591797 68.635544,178.123154 
	C65.209587,184.591064 65.027649,191.981400 64.007050,200.482361 
	C79.432777,182.526123 95.061401,184.690582 111.458389,197.424561 
	C109.153511,188.249512 107.340355,179.487656 99.642174,172.713089 
M143.240356,57.962292 
	C152.988754,62.514671 157.359055,72.285469 164.582886,81.197685 
	C164.939819,68.969574 164.326370,58.449894 161.454529,48.115097 
	C159.062637,39.507542 152.388123,35.514950 143.585587,37.540474 
	C134.055618,39.733383 128.988541,46.567120 130.426804,55.532440 
	C134.445114,56.065258 138.719055,55.634846 143.240356,57.962292 
z"/>
</svg>