<svg version="1.1" id="Layer_1" xmlns="http://www.w3.org/2000/svg" xmlns:xlink="http://www.w3.org/1999/xlink" x="0px" y="0px"
	 width="100%" viewBox="0 0 288 368" enable-background="new 0 0 288 368" xml:space="preserve">
<path fill="#000000" opacity="1.000000" stroke="none" 
	d="
M273.171326,201.410782 
	C274.698273,215.719208 269.215118,227.993790 264.247559,240.305161 
	C255.410278,262.207001 246.705353,284.172607 236.187576,305.355469 
	C231.642166,314.509949 225.754608,322.760223 219.522217,330.798950 
	C215.041336,336.578522 208.271255,337.654175 201.845367,338.975739 
	C189.226166,341.570984 176.535965,343.865875 163.814835,345.909760 
	C146.675049,348.663666 129.299469,349.250946 112.106522,347.753967 
	C98.838791,346.598724 85.458817,344.361115 72.961876,339.078552 
	C67.913155,336.944397 63.004944,334.464752 58.102173,332.004120 
	C55.769791,330.833496 54.539471,328.578461 53.422924,326.308533 
	C42.262154,303.619080 31.984650,280.558899 24.262564,256.437103 
	C20.830036,245.714752 17.853416,234.775742 16.394606,223.680450 
	C12.750154,195.961823 13.009881,168.518448 28.267143,143.581146 
	C35.782490,131.297668 46.032345,122.073486 60.476757,118.449402 
	C60.797596,118.368904 61.112915,118.245270 61.411991,118.102379 
	C64.574837,116.591217 69.426979,119.911606 71.225281,115.520996 
	C72.488823,112.436005 72.374527,108.660255 72.627708,105.228493 
	C73.048050,99.531036 74.626030,94.158569 75.838203,88.664749 
	C80.279083,68.537857 105.176208,57.811390 120.489273,66.784660 
	C121.016510,67.093613 121.717873,67.105408 122.668571,67.335800 
	C126.033821,60.570866 129.240189,53.821186 134.669205,48.454346 
	C141.087234,42.109791 148.480209,38.194000 157.654343,38.001232 
	C164.667221,37.853874 170.625565,40.364941 175.819199,44.943130 
	C176.792313,45.800938 177.829758,46.585785 178.984421,47.523624 
	C179.755478,46.812641 180.480118,46.359169 180.916107,45.711411 
	C197.386108,21.241577 232.144104,31.894651 242.977081,55.892387 
	C246.188309,63.006111 248.263702,70.445381 248.143982,78.467873 
	C247.916260,93.727539 248.658997,109.021927 247.910217,124.248360 
	C247.009140,142.572174 253.666138,158.305954 262.242676,173.732056 
	C267.012909,182.311981 271.203400,191.200409 273.171326,201.410782 
M212.174362,324.782104 
	C217.740723,318.114197 222.802170,311.101868 226.712967,303.315277 
	C239.426102,278.002899 250.090744,251.808517 260.373871,225.441986 
	C265.509796,212.273178 264.790833,199.661652 258.624237,186.931656 
	C251.810410,172.865631 243.946426,159.282959 238.647949,144.498627 
	C235.630905,136.080154 232.591110,127.669029 229.464020,119.291008 
	C226.206772,110.564285 219.347900,106.905174 210.520020,106.366417 
	C203.040741,105.909958 195.732285,104.592453 188.526581,102.607452 
	C179.489532,100.117950 171.539459,94.973190 162.678848,92.040955 
	C151.078964,88.202202 142.469101,95.130280 143.761780,107.229866 
	C144.707214,116.079277 149.009689,123.257530 154.680130,129.778000 
	C168.580826,145.762436 186.863373,152.675583 207.306198,154.954269 
	C210.797485,155.343414 213.410156,156.635086 212.984955,160.335602 
	C212.568130,163.963135 209.361450,164.292191 206.388840,163.984787 
	C202.930740,163.627197 199.483124,163.107971 196.058411,162.503357 
	C191.800308,161.751587 190.603806,162.996078 191.549362,167.358597 
	C192.076767,169.791870 192.597900,172.229477 193.014114,174.683395 
	C195.998383,192.277969 201.758682,208.499557 215.554276,220.819382 
	C217.713486,222.747620 219.064728,225.063339 216.821564,227.768539 
	C214.427490,230.655701 211.910309,229.780823 209.449280,227.702744 
	C201.655273,221.121490 195.970505,212.957916 191.917740,203.694794 
	C189.416260,197.977386 187.429626,192.034714 185.086029,185.861740 
	C175.928635,191.443985 167.672729,197.578232 160.046173,204.533981 
	C145.302521,217.980774 135.742447,233.957916 135.871323,254.625961 
	C135.897263,258.784454 135.582199,262.945404 135.411652,267.104706 
	C135.291763,270.028564 133.868103,271.923615 130.859634,271.990082 
	C127.769096,272.058441 126.376755,270.008087 126.238907,267.188782 
	C126.125648,264.872314 126.538246,262.531189 126.439774,260.212799 
	C125.749252,243.956833 129.102097,228.800293 138.331711,215.157730 
	C138.970184,214.214005 140.307526,213.264160 139.386734,211.449081 
	C135.802002,213.393982 131.929581,213.091324 128.131027,212.922684 
	C125.454041,212.803833 123.722389,213.202988 123.163002,216.295883 
	C122.450562,220.235092 119.552132,222.545380 116.100044,224.157745 
	C104.710228,229.477600 93.654320,227.769211 83.065041,222.032257 
	C63.364555,211.359100 56.743023,191.580765 49.267918,172.500000 
	C48.417599,170.329498 50.281292,168.766083 52.047573,167.694656 
	C53.796234,166.633926 55.221058,167.637833 56.557117,168.726151 
	C58.620495,170.406906 59.228954,172.918121 60.108936,175.220276 
	C64.160683,185.820221 68.229736,196.432861 76.166809,204.881424 
	C84.098381,213.324112 93.256081,219.198242 105.590965,217.881943 
	C111.197235,217.283676 114.932076,214.209747 114.121750,210.366241 
	C111.381363,197.367935 108.426407,184.429611 103.245430,172.116684 
	C97.997185,159.643921 91.864464,147.660049 83.971222,136.630920 
	C77.979965,128.259399 70.513992,125.148735 61.474510,127.659142 
	C52.864822,130.050186 45.901379,135.053406 40.370110,142.067307 
	C31.248024,153.634537 26.463875,167.161316 24.503569,181.404938 
	C21.428581,203.747772 24.913490,225.696289 31.082531,247.228668 
	C37.927383,271.119873 48.041435,293.713867 58.521164,316.175354 
	C61.123558,321.753174 64.702126,325.500732 70.384674,328.060303 
	C88.028717,336.007599 106.715515,338.244385 125.699364,338.712555 
	C147.695282,339.254974 169.414017,336.502197 190.826157,331.596008 
	C197.879852,329.979828 205.264862,329.206818 212.174362,324.782104 
M128.438263,99.932320 
	C126.855530,93.464218 125.066223,87.078255 121.953682,81.125252 
	C119.970245,77.331741 116.850304,74.463272 112.892403,73.881554 
	C101.714066,72.238571 90.078224,75.403358 85.650116,88.383652 
	C83.272820,95.352287 82.589226,102.638824 81.342255,109.811218 
	C80.173561,116.533318 81.244545,122.621948 87.636047,126.744522 
	C89.115723,127.698929 90.255203,129.316605 91.284775,130.812454 
	C104.797318,150.444748 114.747375,171.708023 120.322319,194.931168 
	C121.417252,199.492264 123.389015,203.012009 128.492371,203.757477 
	C133.622467,204.506866 137.669968,202.719788 140.517548,198.428970 
	C143.227646,194.345306 143.322723,189.666061 143.176895,184.996689 
	C142.745575,171.186493 140.545929,157.610657 137.969223,144.059235 
	C135.207306,129.533783 132.208527,115.067749 128.438263,99.932320 
M239.746262,82.726151 
	C240.452042,78.448288 238.421249,74.571976 237.874802,70.467323 
	C235.555161,53.042599 219.372360,37.645214 200.441483,42.131088 
	C191.680466,44.207104 183.447189,55.467892 185.261642,64.327927 
	C187.059250,73.105743 188.877045,81.874573 190.039093,90.753914 
	C190.393539,93.462349 192.246933,94.010735 194.099701,94.391273 
	C200.577591,95.721786 207.069214,97.511032 213.619919,97.838043 
	C223.409271,98.326714 230.290436,102.617287 235.069321,110.898216 
	C235.739807,112.060013 235.930573,113.739456 237.584900,114.064644 
	C239.462158,103.950211 240.069092,93.843979 239.746262,82.726151 
M161.840363,48.067635 
	C150.104279,45.975784 142.567810,51.996101 136.545395,61.071064 
	C129.918793,71.056473 129.911835,80.948616 136.863159,91.013153 
	C138.532074,89.416794 140.041000,87.661949 141.845825,86.298897 
	C151.717438,78.843529 161.794174,81.087700 171.908859,85.809776 
	C174.213562,86.885727 176.324844,88.725220 179.126083,88.211388 
	C180.083466,86.240067 179.869888,84.391830 179.521866,82.620384 
	C178.274475,76.271141 177.024399,69.918808 175.573044,63.614208 
	C173.888763,56.297791 170.662216,50.153214 161.840363,48.067635 
M148.423126,136.426651 
	C147.599457,135.787659 147.347702,134.354797 145.918030,134.530945 
	C147.025864,143.694382 149.829453,152.396301 152.486923,161.095886 
	C155.323669,170.382385 159.338959,178.912430 170.245407,181.369431 
	C175.010574,182.442917 183.554626,177.047180 183.195816,172.813004 
	C182.930054,169.676880 182.087708,166.570343 182.029541,163.440826 
	C181.958618,159.624023 179.937729,158.031952 176.687134,156.659271 
	C165.983749,152.139450 156.530136,145.735901 148.423126,136.426651 
M153.166748,184.121368 
	C152.592438,188.947739 152.018112,193.774109 151.317444,199.662292 
	C155.805283,195.914795 159.508698,192.822327 163.759171,189.273041 
	C159.929062,187.161362 156.706467,185.384613 153.166748,184.121368 
z"/>
</svg>