<svg version="1.1" id="Layer_1" xmlns="http://www.w3.org/2000/svg" xmlns:xlink="http://www.w3.org/1999/xlink" x="0px" y="0px"
	 width="100%" viewBox="0 0 368 400" enable-background="new 0 0 368 400" xml:space="preserve">
<path fill="#000000" opacity="1.000000" stroke="none" 
	d="
M173.344147,372.474518 
	C149.627823,381.685211 125.540665,384.925690 100.567017,382.337830 
	C79.021164,380.105194 58.497955,374.464844 38.773602,365.602325 
	C35.421680,364.096283 33.598248,362.076599 32.644875,358.480988 
	C28.240679,341.870941 23.396490,325.359436 20.221779,308.462708 
	C16.784161,290.166748 15.108481,271.772797 16.489561,253.033905 
	C17.736723,236.112030 21.563894,220.087219 28.436684,204.648438 
	C37.673645,183.898849 50.211086,177.905533 75.579872,180.979248 
	C79.378792,181.439514 80.845505,180.658340 82.402382,177.558044 
	C89.353340,163.716217 105.856613,155.918228 120.989830,159.177612 
	C123.793144,159.781403 126.072647,160.255508 127.174332,156.469818 
	C131.200653,142.634369 145.729828,131.298782 162.094467,135.764862 
	C163.015564,136.016251 164.041214,136.345718 165.340576,135.432434 
	C168.157745,123.647224 171.007767,111.528137 172.732864,99.199112 
	C174.965088,83.245964 176.489365,67.185844 179.045990,51.288792 
	C180.742950,40.737148 184.745117,31.037554 195.121445,25.651783 
	C204.341217,20.866306 214.208374,23.191236 220.269379,31.664017 
	C226.256729,40.033817 227.380463,49.854210 227.871109,59.656853 
	C228.837158,78.957703 227.515305,98.196922 224.734924,117.295555 
	C222.585663,132.058990 219.158646,146.662613 217.562180,161.473373 
	C215.746964,178.313721 214.799255,195.301743 216.922668,212.254044 
	C217.374588,215.861908 216.980103,219.517715 218.276230,223.101837 
	C219.221954,225.717041 220.458984,226.690689 223.250183,226.839752 
	C233.962601,227.411804 244.413361,225.297455 254.965942,224.185974 
	C274.248596,222.154984 293.307190,217.153839 312.917603,219.407455 
	C320.489410,220.277588 327.989105,221.629608 335.078094,224.763199 
	C344.442719,228.902725 350.063507,236.137100 352.840942,245.724564 
	C354.245636,250.573563 351.946655,254.508347 348.822662,257.959808 
	C341.844086,265.669830 332.483032,269.171082 322.943176,272.234467 
	C310.627625,276.189209 297.871979,278.387634 285.255981,281.042023 
	C267.927612,284.687805 254.383453,293.003723 244.865494,308.369293 
	C237.425644,320.380035 228.501190,331.405457 218.937515,341.911682 
	C206.295929,355.799103 190.580414,364.872711 173.344147,372.474518 
M217.935699,90.784729 
	C219.684967,83.408005 219.404251,75.868011 219.150162,68.425270 
	C218.856766,59.830467 218.497406,51.164322 215.745010,42.839035 
	C213.932236,37.355862 210.725662,32.926296 204.796906,32.576668 
	C199.039520,32.237137 195.030365,35.967598 192.108887,40.868538 
	C186.742081,49.871696 187.284958,60.063538 186.298035,69.876167 
	C184.048889,92.238647 179.972198,114.254166 174.794907,136.093552 
	C174.179092,138.691254 173.401489,141.388382 175.562714,143.663208 
	C185.529419,154.153793 185.514618,167.036667 184.540756,180.231201 
	C183.217758,198.156174 180.672333,215.905991 177.164734,233.519928 
	C175.090225,243.937317 173.189072,254.411819 170.525818,264.683258 
	C167.586624,276.018921 157.853592,282.570343 147.113541,279.648438 
	C141.480698,278.115967 140.264923,279.856750 138.293030,284.220093 
	C133.650879,294.492096 123.779121,298.501434 114.034073,294.447754 
	C111.019135,293.193634 108.340027,291.132141 104.787399,289.010437 
	C104.410667,289.665588 104.046577,290.422974 103.572807,291.104034 
	C96.381737,301.441437 83.518654,299.511627 76.155426,291.096069 
	C72.551933,286.977539 70.339630,282.153595 69.094612,276.944061 
	C66.907227,267.791473 65.394577,258.462585 62.877052,249.408386 
	C60.611526,241.260483 57.439613,233.347198 52.436687,226.364883 
	C50.669655,223.898697 50.703560,221.622360 53.197540,219.859360 
	C55.604973,218.157532 57.952076,218.728806 59.844067,220.932678 
	C60.599785,221.812973 61.259144,222.788773 61.871498,223.777374 
	C67.364471,232.645447 70.567978,242.404404 73.013550,252.460510 
	C75.202103,261.459778 75.862000,270.823303 79.402382,279.498566 
	C81.867714,285.539581 87.410622,290.128632 91.272552,289.411194 
	C95.880287,288.555206 98.777878,283.227661 98.911957,275.673950 
	C99.127609,263.524719 98.172539,251.529007 96.122032,239.504593 
	C93.768723,225.704437 90.436920,212.265762 84.949928,199.417358 
	C82.601852,193.919067 78.534920,190.585175 72.052780,189.842163 
	C67.310402,189.298569 62.792706,190.110718 58.176266,190.217712 
	C51.209743,190.379211 45.888218,193.423920 41.922832,199.296280 
	C33.352074,211.988708 28.976641,226.305710 26.559025,241.086365 
	C23.258942,261.262207 24.862827,281.496063 28.423721,301.554535 
	C31.000828,316.071320 34.379753,330.437805 38.546329,344.555145 
	C40.043705,349.628601 39.402458,356.059814 46.427528,358.948334 
	C63.768131,366.078278 81.570541,371.588196 100.240959,372.762024 
	C122.031487,374.132019 143.931488,373.747040 164.720291,365.691254 
	C179.627335,359.914673 194.048187,353.270142 205.888336,341.837494 
	C219.428192,328.763611 230.082138,313.498932 240.978592,298.362732 
	C247.832138,288.842499 256.307068,281.377472 267.447266,277.093750 
	C279.902496,272.304382 292.993958,270.069092 305.893188,267.048462 
	C316.405701,264.586761 326.994720,262.379883 336.347961,256.544220 
	C345.225220,251.005585 346.909790,246.023056 337.580902,237.655594 
	C327.518585,228.630325 314.027191,227.646011 301.358673,228.032379 
	C289.713074,228.387558 277.976196,230.062531 266.363312,232.013290 
	C256.249908,233.712158 246.017014,234.768539 235.805313,235.794144 
	C225.888794,236.790131 215.918793,237.730652 206.073669,235.078110 
	C202.911819,234.226196 199.601227,233.067230 200.115814,228.989258 
	C200.671494,224.585724 204.288086,225.057755 207.506516,225.237198 
	C207.766602,225.251694 208.046616,224.908569 208.638641,224.521683 
	C208.638641,223.586868 208.771439,222.433884 208.618484,221.320129 
	C206.717285,207.476562 205.308853,193.700073 206.619247,179.608521 
	C208.005859,164.697327 209.891937,149.858521 212.221069,135.105423 
	C214.498993,120.676590 217.110641,106.322464 217.935699,90.784729 
M119.156654,286.510803 
	C126.303185,286.872925 131.852448,281.984680 131.779739,274.332764 
	C131.672119,263.004242 133.458755,251.776703 132.998688,240.434952 
	C132.681656,232.619446 133.215897,224.771622 132.978409,216.950134 
	C132.645264,205.978043 134.668671,195.043304 133.042526,184.037811 
	C131.855942,176.007263 127.442810,169.765488 120.407585,168.490875 
	C111.098312,166.804260 102.497322,168.694412 95.238144,175.105057 
	C90.481422,179.305771 87.750710,186.151581 89.962959,189.648056 
	C95.112595,197.787140 97.495964,206.886597 100.248421,215.939743 
	C105.883888,234.475464 108.531509,253.440536 108.264404,272.721710 
	C108.196060,277.655884 109.868904,280.593353 113.312599,283.178680 
	C114.896698,284.367920 116.728699,285.226990 119.156654,286.510803 
M143.088806,220.379761 
	C141.721268,233.991089 142.101105,247.650879 141.934738,261.296326 
	C141.863083,267.174683 143.614334,269.406403 149.900131,271.131439 
	C153.245377,272.049530 158.115417,269.443237 160.043472,265.532837 
	C160.771347,264.056610 161.277023,262.432434 161.640610,260.820770 
	C166.983841,237.136169 171.932358,213.360001 174.514603,189.201172 
	C175.497772,180.003021 176.685394,170.722870 174.821747,161.354111 
	C172.971863,152.054352 165.195511,144.608658 155.948624,144.235565 
	C146.915512,143.871094 137.641602,150.843201 135.788773,159.790161 
	C135.176987,162.744339 134.364075,165.903748 136.745499,168.846191 
	C141.568130,174.804993 143.140366,181.926849 143.178680,189.411987 
	C143.229874,199.409622 143.120102,209.408081 143.088806,220.379761 
z"/>
</svg>