<svg version="1.1" id="Layer_1" xmlns="http://www.w3.org/2000/svg" xmlns:xlink="http://www.w3.org/1999/xlink" x="0px" y="0px"
	 width="100%" viewBox="0 0 380 362" enable-background="new 0 0 380 362" xml:space="preserve">
<path fill="none" opacity="1.000000" stroke="#000000" stroke-linecap="round" stroke-linejoin="round" stroke-width="8.000000"
	d="
M187.500000,149.500000 
	C186.902908,147.207123 188.256927,145.530243 189.529999,144.025375 
	C202.186127,129.064865 215.090256,114.336296 228.943710,100.443871 
	C235.153275,94.216835 241.708435,88.571312 249.513611,84.526276 
	C258.907288,79.658020 268.630249,78.386795 279.026276,81.409607 
	C288.184509,84.072495 297.449860,86.491829 306.998596,87.513229 
	C313.992371,88.261345 320.174103,85.766212 325.904236,82.339851 
	C327.585541,81.334526 327.662354,78.308578 328.057465,76.009880 
	C329.138397,69.721191 328.207123,64.171249 322.418884,60.632660 
	C321.287048,59.940716 321.312286,59.121101 321.072388,58.473198 
	C316.206085,45.329758 306.758209,37.998505 293.001007,35.993088 
	C291.049957,35.708687 289.619415,34.566368 288.500946,32.999325 
	C281.920654,23.779842 273.475677,24.501944 263.457184,27.349356 
	C257.665619,28.995401 251.458130,31.523058 245.439621,27.081827 
	C244.013763,26.029648 241.837112,25.584610 239.999374,25.567841 
	C228.608276,25.463879 217.301880,25.653601 205.972092,27.856466 
	C185.237854,31.887856 171.767151,45.912312 158.497543,60.497768 
	C149.843857,70.009583 141.590103,79.933830 132.403183,88.900803 
	C117.726234,103.226372 107.428146,120.347000 98.498810,138.499420 
	C86.346909,163.202972 71.101074,185.856735 53.554977,207.045532 
	C46.765026,215.245117 39.921185,223.370010 32.494438,230.994583 
	C28.036802,235.570923 30.426514,241.160156 31.771748,245.414062 
	C36.935253,261.742188 43.799576,277.533508 53.136673,291.911255 
	C62.952209,307.025696 75.695610,318.580322 93.909966,323.813385 
	C102.754745,326.354553 111.818306,328.265900 120.566078,331.310120 
	C124.602943,332.714935 129.183594,330.817871 133.509888,330.056213 
	C152.495789,326.713562 168.169754,316.145935 184.496445,306.993652 
	C203.178482,296.521088 221.504105,285.345795 240.614838,275.728210 
	C253.525497,269.230835 266.958099,263.237183 281.060760,259.745453 
	C288.473907,257.910034 296.046021,256.453369 302.921234,253.326797 
	C310.748352,249.767349 317.242432,243.915619 322.961121,237.465546 
	C329.627594,229.946472 336.063751,222.219604 342.484283,214.486969 
	C350.952576,204.288055 347.981232,192.328781 334.481079,187.553497 
	C323.727966,183.749893 313.274261,186.743011 303.011505,190.035828 
	C290.864288,193.933258 280.796265,201.914200 269.501404,207.502838 
	C258.469391,212.961456 247.168259,216.883682 234.489746,215.601334 
	C228.548965,215.000458 224.179916,211.671143 222.768356,206.920273 
	C219.825943,197.017075 215.022308,188.095093 210.448975,179.025726 
	C205.420364,169.053558 206.375458,159.224533 211.614136,150.065277 
	C220.715012,134.153427 232.432861,120.185570 247.084106,109.111267 
	C257.564117,101.189850 269.733215,98.189842 283.007843,99.940613 
	C291.798645,101.100029 300.550934,102.986465 309.498840,102.479561 
	C315.467468,102.141441 321.303558,101.135376 325.984680,96.982727 
	C331.297180,92.269958 331.369049,88.768486 326.500000,83.000000 
"/>
<path fill="none" opacity="1.000000" stroke="#000000" stroke-linecap="round" stroke-linejoin="round" stroke-width="8.000000"
	d="
M321.000000,61.500000 
	C315.016144,68.706680 307.183014,69.069885 298.490875,68.740189 
	C290.803192,68.448601 283.797974,66.035461 276.478271,64.611771 
	C275.330627,64.388565 274.114380,64.044609 273.570618,63.436829 
	C268.954254,58.277187 263.674103,60.590294 259.057373,62.629845 
	C249.863647,66.691353 240.850616,71.228073 232.038071,76.069313 
	C221.193924,82.026649 210.843689,88.693207 201.381592,96.862854 
	C193.632736,103.553268 187.180176,111.029579 182.579117,120.040398 
	C180.115067,124.866074 179.117599,130.336624 177.339859,135.444260 
	C173.904587,145.314255 168.920425,154.550629 161.932510,162.440231 
	C159.033859,165.712921 158.963455,168.596161 160.396652,172.537582 
	C163.773727,181.824890 162.941269,191.401169 161.560028,201.008636 
	C160.290680,209.837631 157.867416,218.200806 154.663254,226.562561 
	C148.489914,242.672928 139.303070,256.776672 128.503403,270.002777 
	C127.976784,270.647705 127.499985,271.333313 126.999985,272.000000 
"/>
<path fill="none" opacity="1.000000" stroke="#000000" stroke-linecap="round" stroke-linejoin="round" stroke-width="8.000000"
	d="
M249.000000,30.000000 
	C247.213806,34.899319 242.214630,35.902256 238.423859,37.292362 
	C218.880081,44.459209 200.440155,54.043076 181.578812,62.672256 
	C175.513870,65.446991 170.119629,70.009552 165.549164,75.044624 
	C155.391525,86.234863 145.495789,97.662949 135.502274,109.002007 
	C131.988022,112.989433 128.500000,117.000000 125.000000,121.000000 
"/>
<path fill="none" opacity="1.000000" stroke="#000000" stroke-linecap="round" stroke-linejoin="round" stroke-width="7.000000"
	d="
M291.000031,36.000011 
	C290.666687,36.666676 290.099854,37.311569 290.035339,38.003304 
	C289.180328,47.171879 282.900970,51.804394 275.494751,55.489456 
	C273.246094,56.608307 271.299011,57.965675 270.500000,60.500000 
"/>
</svg>