<svg version="1.1" id="Layer_1" xmlns="http://www.w3.org/2000/svg" xmlns:xlink="http://www.w3.org/1999/xlink" x="0px" y="0px"
	 width="100%" viewBox="0 0 352 400" enable-background="new 0 0 352 400" xml:space="preserve">
<path fill="#000000" opacity="1.000000" stroke="none" 
	d="
M35.595551,221.640594 
	C38.123405,193.185593 46.489414,167.488937 66.099693,146.603287 
	C73.311508,138.922440 82.168839,133.562820 93.504028,134.717087 
	C97.427162,135.116592 98.865509,133.444595 98.698357,129.541351 
	C98.031525,113.970001 112.730652,97.782433 127.794746,95.576881 
	C137.137909,94.208939 137.033432,93.947136 137.106995,84.438736 
	C137.148056,79.128624 136.679459,73.783386 138.191345,68.547729 
	C145.404877,43.567192 171.496658,39.714993 189.272491,54.066002 
	C191.584503,55.932571 193.732697,58.002064 195.994659,60.011223 
	C198.304062,58.870544 198.570999,56.521217 199.539902,54.696262 
	C204.447052,45.453388 210.303558,37.039520 219.609238,31.667509 
	C228.177902,26.720972 234.872147,28.320280 239.891022,36.831852 
	C242.397919,41.083347 244.199600,45.750683 246.306000,50.199745 
	C249.191635,50.484253 251.081116,48.450947 253.450867,47.812519 
	C262.833893,45.284683 271.624481,46.704361 279.642487,52.032688 
	C290.647217,59.345814 299.040283,68.996681 302.472168,81.914917 
	C304.798889,90.673119 304.184143,99.707161 300.881714,108.332375 
	C294.705292,124.463715 289.466125,141.061554 281.879639,156.503677 
	C277.553864,165.308670 278.499115,172.137711 281.814606,180.292130 
	C287.118256,193.336502 292.230896,206.481262 293.992737,220.672409 
	C294.914673,228.098618 294.209534,235.454330 292.634430,242.471970 
	C287.133057,266.982758 278.281586,290.461670 268.956238,313.732666 
	C263.808807,326.577789 257.156799,338.651489 249.798752,350.413940 
	C242.629654,361.874298 231.713150,367.270752 219.649124,371.106110 
	C205.843796,375.495056 191.687622,377.584412 177.164352,378.702362 
	C163.621735,379.744873 150.219635,379.058258 136.887299,378.046661 
	C117.409157,376.568756 98.286858,372.289246 79.389214,367.239960 
	C77.952660,366.856110 76.489288,366.565735 75.029427,366.277283 
	C69.585609,365.201721 65.997864,362.502808 63.976513,356.868927 
	C56.757660,336.748688 49.563602,316.622040 43.833790,296.024170 
	C37.472408,273.155914 33.104500,249.980621 34.992542,226.046219 
	C35.096867,224.723709 35.350765,223.412979 35.595551,221.640594 
M141.939941,296.569489 
	C141.944778,289.100433 142.996841,281.755798 144.571106,274.473877 
	C145.761185,268.969055 146.921204,263.457336 148.176331,257.967346 
	C148.530212,256.419464 148.832138,254.967880 147.300049,253.933792 
	C145.885788,252.979202 144.776001,254.124649 143.628159,254.672760 
	C130.571915,260.907440 117.462997,258.259674 108.233597,246.769608 
	C93.786171,228.783432 82.859901,208.484009 71.113693,188.740204 
	C69.226761,185.568542 71.095467,182.896957 74.834518,182.650314 
	C77.407974,182.480560 78.736122,183.920227 79.937698,185.907852 
	C86.744316,197.167236 93.603119,208.395126 100.464607,219.621262 
	C105.067368,227.151886 109.603523,234.708466 115.604424,241.290909 
	C121.245811,247.478973 128.205902,248.980164 136.062393,247.715103 
	C141.276443,246.875504 144.147522,243.171936 143.100204,238.872437 
	C137.984344,217.870392 131.786224,197.219635 123.095650,177.380096 
	C119.218613,168.529297 115.422501,159.620316 108.979889,152.223679 
	C99.798622,141.682846 88.222420,140.494431 77.146141,148.855499 
	C72.313721,152.503311 68.191368,156.823227 64.875328,161.886856 
	C53.651306,179.026093 47.620903,197.860123 45.089684,218.189255 
	C42.584698,238.307663 44.344055,258.090240 48.764149,277.530212 
	C54.466377,302.609192 62.768997,326.985321 71.707458,351.118286 
	C72.920265,354.392761 74.444611,356.448059 78.121376,357.103271 
	C82.478104,357.879669 86.704903,359.369293 91.003525,360.490356 
	C110.118210,365.475311 129.583115,368.680481 149.250443,369.818207 
	C171.566299,371.109131 193.782593,369.584290 215.277756,362.673279 
	C224.888657,359.583252 234.853668,357.086609 240.734283,347.425476 
	C245.758133,339.171844 250.880417,330.992218 255.106583,322.290802 
	C264.504425,302.941345 270.783936,282.423798 277.546814,262.094147 
	C280.732849,252.516739 283.766235,242.860657 284.705078,232.735229 
	C285.772308,221.224777 283.093628,210.271362 279.265900,199.559433 
	C276.216248,191.025131 272.943542,182.570541 269.723969,173.957809 
	C257.282928,180.984344 245.983536,182.089584 235.271988,170.762100 
	C236.184586,174.709778 237.099564,177.732330 237.553253,180.822586 
	C238.536987,187.523331 239.782379,194.151917 237.175491,200.934128 
	C232.980881,211.847031 218.786560,216.990723 208.662811,215.609665 
	C203.214279,214.866379 198.335754,212.660873 192.732147,210.339844 
	C193.299316,213.047760 193.661362,214.982605 194.112640,216.896378 
	C196.551514,227.239151 199.065491,237.558670 200.503540,248.114929 
	C201.196472,253.201767 199.598419,257.450195 196.136917,260.823151 
	C191.877380,264.973785 186.589493,267.389374 180.639481,268.296265 
	C172.302185,269.566986 164.501907,268.000641 156.838745,263.357635 
	C154.873566,269.953918 153.673599,276.050262 152.756180,282.257935 
	C150.201096,299.546692 150.484177,316.731964 154.313065,333.794281 
	C155.641571,339.714386 154.763824,343.431946 151.028793,343.743622 
	C145.592819,344.197205 145.786636,339.380310 145.071747,336.123352 
	C142.285355,323.428955 141.311600,310.543396 141.939941,296.569489 
M215.573242,130.826950 
	C211.457123,116.619583 207.434998,102.386261 201.894287,88.635429 
	C197.743134,78.333199 192.530716,68.761559 183.863693,61.501804 
	C169.987411,49.878601 149.966064,54.466724 146.794739,72.962250 
	C145.536530,80.300102 146.810287,87.150787 147.754501,94.176483 
	C148.024048,96.181984 149.283051,97.772545 151.220779,98.795914 
	C157.966873,102.358757 161.655136,108.381783 164.102493,115.296982 
	C172.419632,138.797745 179.654312,162.634521 186.440536,186.619904 
	C189.582916,197.726318 197.268295,204.433655 208.642441,206.294937 
	C222.150558,208.505417 231.959412,199.868484 229.376099,188.214569 
	C225.176285,169.268188 221.049149,150.299606 215.573242,130.826950 
M180.641510,200.879074 
	C175.741455,183.996262 171.046860,167.050156 165.870529,150.252487 
	C162.303421,138.676804 159.134918,126.940765 154.253448,115.805542 
	C150.901428,108.159134 144.768463,104.659950 136.595642,104.065826 
	C119.965179,102.856880 107.600449,116.313629 107.031769,133.567474 
	C106.941368,136.310471 107.572166,138.691910 110.193512,140.417908 
	C114.288925,143.114517 117.133354,147.074142 119.845726,151.091507 
	C127.354271,162.212616 132.103073,174.657196 136.855164,187.067017 
	C143.442978,204.270660 149.252136,221.717545 152.397919,239.954636 
	C154.255066,250.721069 161.214081,258.352020 171.705658,259.312622 
	C183.963470,260.434937 194.426315,257.026733 190.117859,240.924927 
	C186.644058,227.942444 183.865707,214.773895 180.641510,200.879074 
M253.439194,170.603607 
	C262.792053,168.662949 269.455261,163.206894 272.989105,154.471802 
	C279.271729,138.942032 285.193909,123.265678 291.191956,107.621933 
	C293.516052,101.560379 295.721436,95.312080 294.729706,88.750076 
	C293.110260,78.034561 287.224640,69.584610 278.839752,63.071926 
	C272.864990,58.431217 266.136627,55.172604 258.089996,56.154781 
	C252.866898,56.792309 248.119385,60.202744 248.294113,64.310280 
	C248.605499,71.630478 246.021194,79.297073 250.598007,86.205559 
	C251.359558,87.355087 250.759277,88.766335 250.560135,90.093361 
	C247.535675,110.248039 242.609894,130.095490 240.760910,150.438034 
	C239.651154,162.647690 242.882523,168.628281 253.439194,170.603607 
M227.973297,140.643539 
	C228.774673,144.046219 229.576050,147.448898 230.685104,152.158005 
	C231.601624,142.318817 233.441818,134.051254 234.823364,125.708389 
	C236.637451,114.753464 240.113678,103.842430 239.503937,92.764709 
	C238.964355,82.961426 238.953629,73.191185 238.739532,63.402439 
	C238.576645,55.955757 236.268799,48.999222 232.727829,42.505547 
	C231.164398,39.638409 228.981888,36.938072 225.156784,39.116657 
	C215.373505,44.688702 210.335190,54.005310 205.659714,63.736042 
	C202.409637,70.500175 206.360001,75.527222 208.756851,81.035339 
	C217.016754,100.017220 222.498901,119.895782 227.973297,140.643539 
z"/>
</svg>