<svg version="1.1" id="Layer_1" xmlns="http://www.w3.org/2000/svg" xmlns:xlink="http://www.w3.org/1999/xlink" x="0px" y="0px"
	 width="100%" viewBox="0 0 256 416" enable-background="new 0 0 256 416" xml:space="preserve">
<path fill="#000000" opacity="1.000000" stroke="none" 
	d="
M130.780899,50.190876 
	C132.196472,44.247807 133.759796,38.840164 137.952621,34.622932 
	C146.208298,26.319212 158.231171,27.328327 165.354233,36.611546 
	C169.321976,41.782539 170.113480,48.155350 172.761124,54.126480 
	C178.401962,51.050022 183.736084,48.372959 190.377884,49.530624 
	C201.564468,51.480457 211.186859,61.750732 212.285568,73.014313 
	C214.147766,92.104691 213.990463,111.236923 214.015991,130.369278 
	C214.060226,163.530731 214.110535,196.692627 213.973724,229.853592 
	C213.926117,241.388824 217.058960,252.586151 217.084106,264.090973 
	C217.125916,283.221313 218.080246,302.444061 213.794434,321.273651 
	C208.892563,342.809845 203.250580,364.157074 193.869461,384.299133 
	C191.279755,389.859467 187.136230,393.230621 181.297958,395.579590 
	C160.186737,404.073395 138.476562,408.661835 115.673744,407.292603 
	C95.529854,406.083008 76.915108,400.033691 59.942654,389.097565 
	C55.008266,385.918121 52.033978,381.155029 49.828457,375.789276 
	C40.206394,352.379883 36.498417,327.939697 36.313152,302.746429 
	C36.196762,286.918671 37.403263,271.161346 37.913300,255.370697 
	C38.627579,233.256622 50.507496,219.446976 72.708694,214.748917 
	C77.353783,213.765961 78.182648,211.607742 78.048241,207.602249 
	C77.815002,200.651031 77.350533,193.716965 79.666473,186.866257 
	C82.581184,178.244370 88.452759,172.969452 96.787819,170.041382 
	C104.001175,167.507370 110.903763,167.367630 117.741806,171.645096 
	C121.687859,174.113525 124.392342,172.101578 125.050041,167.616226 
	C127.234222,152.720490 125.527290,137.716644 126.649193,122.766472 
	C128.253082,101.393410 128.767960,79.939178 129.807877,58.522522 
	C129.936218,55.879570 130.432205,53.254478 130.780899,50.190876 
M104.422005,271.038147 
	C103.197327,266.908752 102.089943,262.740173 100.724831,258.657745 
	C97.343224,248.544815 93.564003,238.615479 87.405861,229.758743 
	C83.154564,223.644501 79.633469,222.166458 72.606369,224.281754 
	C67.318947,225.873383 62.371780,228.330399 57.816238,231.403839 
	C53.250172,234.484390 49.900757,238.795578 49.127487,244.321548 
	C47.863831,253.352005 46.650887,262.435730 46.272640,271.532562 
	C45.767796,283.673981 46.258469,295.853119 46.003696,308.009399 
	C45.590881,327.706238 49.498833,346.679596 55.614662,365.213654 
	C57.450249,370.776398 59.244228,376.883453 64.388344,380.608459 
	C78.616974,390.911896 94.884804,396.038727 112.127686,397.631104 
	C132.930130,399.552185 153.032562,395.872192 172.775970,389.028320 
	C180.640137,386.302277 185.084991,381.747620 188.082977,374.245728 
	C196.495316,353.195435 202.619522,331.500549 206.386124,309.226196 
	C208.513931,296.642914 207.668869,284.296021 200.145401,272.779175 
	C190.867279,258.576233 182.429428,243.797897 174.156021,228.973816 
	C167.891922,217.749969 160.513229,207.814789 149.776443,200.416611 
	C142.383377,195.322418 135.515991,189.467758 128.382950,183.992981 
	C122.534943,179.504501 117.289032,180.202759 114.667511,188.644867 
	C113.001915,194.008621 114.265793,198.638367 114.880562,203.708893 
	C116.099388,213.761597 120.161774,222.228119 127.495224,229.024948 
	C131.770737,232.987579 136.606171,236.130127 142.647720,237.147446 
	C148.974777,238.212845 150.144241,241.484909 146.180984,246.430084 
	C145.111252,247.764816 145.116653,249.147964 145.053772,250.627411 
	C144.675735,259.519806 147.310089,267.666595 151.252014,275.476715 
	C152.400742,277.752655 152.794434,279.942383 150.706848,281.853882 
	C148.605576,283.777893 146.507248,283.404480 144.453476,281.638275 
	C144.199921,281.420258 143.596954,281.608521 143.077087,281.608521 
	C142.777420,282.483490 142.429718,283.246307 142.254898,284.046906 
	C139.454468,296.871002 135.331375,300.863892 122.181267,303.053772 
	C120.107422,303.399078 119.617058,304.645721 118.866669,306.198303 
	C114.408829,315.421722 105.529579,318.368073 96.310875,313.917572 
	C90.981956,311.344940 87.292213,307.125885 84.312622,302.240051 
	C75.205437,287.306183 68.261490,271.202850 59.485699,256.089111 
	C57.654842,252.935989 57.111809,250.098175 60.699467,247.979218 
	C64.614601,245.666870 66.058990,248.794846 67.482994,251.460052 
	C75.171242,265.849701 82.842621,280.248566 90.442596,294.684937 
	C92.416885,298.435120 94.853485,301.776398 98.240883,304.299530 
	C100.834244,306.231262 103.734169,307.710663 107.036613,306.020752 
	C110.145660,304.429840 109.822304,301.406403 109.804565,298.562683 
	C109.746964,289.332184 106.447746,280.721375 104.422005,271.038147 
M174.613266,70.925728 
	C175.224747,79.375717 175.910690,87.876793 176.008743,96.293243 
	C176.369446,127.252953 176.875381,158.232788 175.054474,189.179031 
	C174.860596,192.474136 174.188889,195.538239 170.321152,195.516388 
	C166.381668,195.494156 165.759415,192.198914 165.713562,189.047913 
	C165.662857,185.563675 166.739334,182.199295 166.699509,178.654449 
	C166.303391,143.393463 168.171494,108.087807 164.860962,72.889374 
	C164.026581,64.018166 163.728424,54.998096 160.677887,46.441063 
	C158.945862,41.582619 155.374802,38.236027 150.530746,38.000732 
	C146.310654,37.795753 143.533020,41.424114 141.815521,45.263332 
	C141.146286,46.759319 140.561371,48.359581 140.320068,49.969604 
	C138.819839,59.978817 137.239044,70.026718 137.388092,80.152290 
	C137.679718,99.964905 135.402588,119.704399 135.989136,139.515350 
	C136.023239,140.666840 135.707718,141.824265 135.638672,142.983902 
	C135.026611,153.264603 133.889450,163.519897 134.289566,173.850037 
	C134.374298,176.037476 135.124390,177.655289 136.843781,178.968887 
	C142.790482,183.512085 148.689606,188.117569 154.630478,192.668457 
	C161.912003,198.246323 169.421585,203.736069 174.307968,211.623383 
	C182.543106,224.916061 190.271988,238.522766 198.189117,252.011871 
	C201.318146,257.343048 204.381088,262.713013 208.200806,269.322784 
	C208.200806,267.219757 208.248230,266.733154 208.193863,266.258209 
	C206.760101,253.733002 204.894775,241.239716 203.977966,228.677139 
	C202.781738,212.285629 204.647766,195.873856 204.210464,179.416840 
	C203.423172,149.788223 203.969772,120.124451 203.930771,90.475403 
	C203.922485,84.173538 204.146957,77.874916 202.487564,71.659981 
	C200.473343,64.116066 193.562439,57.982365 186.954254,58.271416 
	C180.944595,58.534286 176.092834,63.254948 174.613266,70.925728 
M133.733521,275.572327 
	C132.913010,264.126556 129.725571,253.118484 127.500084,241.932846 
	C127.254684,240.699448 126.231705,240.030930 125.304092,239.316330 
	C111.371101,228.582993 105.566643,214.035294 104.927391,196.842072 
	C104.687531,190.390869 105.788811,184.376404 108.729317,178.573471 
	C99.347229,177.308167 91.267159,180.934937 89.091652,188.231445 
	C85.520409,200.209152 83.909073,212.237213 93.464363,222.746368 
	C95.010216,224.446533 96.136368,226.561981 97.288147,228.581497 
	C107.689201,246.818756 113.243561,266.789124 117.962494,287.032349 
	C118.647408,289.970490 119.192940,292.651825 122.639732,293.259735 
	C125.979973,293.848816 128.415665,292.277496 130.348846,289.707794 
	C133.310165,285.771454 134.117325,281.282593 133.733521,275.572327 
z"/>
</svg>