<svg version="1.1" id="Layer_1" xmlns="http://www.w3.org/2000/svg" xmlns:xlink="http://www.w3.org/1999/xlink" x="0px" y="0px"
	 width="100%" viewBox="0 0 304 464" enable-background="new 0 0 304 464" xml:space="preserve">
<path fill="#000000" opacity="1.000000" stroke="none" 
	d="
M56.916290,415.944092 
	C47.646759,390.929993 39.370373,365.943970 35.422886,339.915283 
	C31.785473,315.931122 32.887260,292.114868 43.645592,269.600983 
	C49.540363,257.265045 59.338360,250.089142 72.507133,247.189301 
	C82.613098,244.963913 80.853928,246.224548 80.739571,236.687607 
	C80.644676,228.773361 81.728546,221.195084 84.409004,213.708755 
	C88.566505,202.097122 97.042641,196.916428 108.840607,196.870209 
	C114.300217,196.848801 116.679123,192.336288 120.608109,190.139664 
	C121.119720,189.853653 121.135284,188.273514 121.021309,187.336502 
	C119.357506,173.657867 117.588242,159.992035 115.934158,146.312256 
	C114.159119,131.632126 112.558495,116.930626 110.733482,102.256905 
	C109.050728,88.726868 107.202995,75.216988 105.364059,61.706928 
	C104.549065,55.719471 104.342323,49.868507 106.346840,43.974670 
	C111.645439,28.395363 128.389435,24.669994 139.556595,36.831192 
	C146.997406,44.934326 150.150497,55.243366 153.067657,65.461082 
	C158.341888,83.934700 162.421387,102.685715 165.530197,121.673889 
	C167.613403,134.397797 169.535675,147.140106 171.548859,159.867935 
	C173.697479,173.452042 174.830795,187.149567 177.051682,200.707214 
	C177.310120,202.284836 177.013519,204.429840 179.040314,204.906296 
	C181.320312,205.442276 182.685867,203.578278 183.854050,201.994553 
	C187.994522,196.381241 189.146713,189.491135 191.737686,183.211655 
	C201.710464,159.041565 206.791428,133.427856 213.993683,108.438980 
	C216.616501,99.338959 219.745468,90.376686 223.856781,81.808945 
	C226.111298,77.110641 229.139832,72.967552 232.991409,69.417244 
	C242.082657,61.037083 254.494080,62.192177 261.618652,72.299576 
	C268.637939,82.257645 269.242065,93.721893 268.680450,105.308220 
	C267.462738,130.430969 259.502563,154.128510 253.139374,178.174149 
	C248.804108,194.556503 243.231781,210.551559 238.520966,226.807709 
	C235.004486,238.942459 235.805237,251.529373 236.083572,263.976440 
	C236.441162,279.968353 236.147858,295.890442 232.970108,311.636963 
	C232.405228,314.435974 232.644989,317.181152 232.836655,320.024872 
	C235.334488,357.083191 227.181061,391.152710 206.566589,422.631378 
	C200.315308,432.177185 191.844879,434.229736 183.032364,436.852295 
	C167.396240,441.505493 151.190109,443.494446 134.871902,443.140167 
	C111.621964,442.635376 89.141487,437.962982 67.373909,429.640808 
	C60.899250,427.165466 59.897438,421.193695 56.916290,415.944092 
M117.900726,400.361298 
	C116.067657,393.203522 115.595993,385.948151 116.304932,378.601685 
	C116.896210,372.474548 117.675972,366.398254 119.421310,360.451752 
	C120.054436,358.294647 120.560150,355.239166 116.866333,355.335785 
	C107.125984,355.590546 101.769829,349.157532 96.860405,342.342987 
	C84.960808,325.825653 74.645493,308.329956 65.458786,290.163055 
	C63.888222,287.057251 62.816959,283.995300 66.752525,282.110535 
	C70.442802,280.343201 72.190414,283.039459 73.596687,285.925873 
	C79.732727,298.520325 86.864708,310.556427 94.342270,322.381042 
	C99.140610,329.968903 103.700600,337.786926 110.442276,343.923370 
	C112.878571,346.140961 115.821304,347.489685 119.157219,346.475616 
	C122.556816,345.442139 123.394005,342.231628 123.722900,339.308258 
	C124.490143,332.488800 124.131889,325.617920 122.128105,319.040497 
	C115.911324,298.633942 104.655777,280.628113 94.522133,262.102783 
	C92.533485,258.467346 89.326927,255.993240 85.042183,255.460251 
	C72.211731,253.864304 57.855839,260.702576 52.250820,272.651306 
	C43.187305,291.972809 41.159145,312.595703 43.819088,333.212799 
	C47.515511,361.863617 56.781620,389.210236 67.352432,416.057739 
	C68.315926,418.504791 69.682884,420.426666 72.201859,421.430634 
	C89.438744,428.300598 107.489212,431.986816 125.832016,433.522064 
	C143.441284,434.995972 161.017120,433.115845 178.215240,428.866516 
	C183.799515,427.486755 190.291794,426.901581 194.212173,422.514832 
	C206.630127,408.619629 214.213974,392.110382 218.820053,374.085602 
	C221.336975,364.236237 222.276901,354.199463 223.773499,344.211609 
	C225.488083,332.768982 225.609283,321.455627 219.990631,311.192871 
	C206.957916,287.387939 193.375443,263.883759 179.982559,240.276520 
	C177.999420,236.780914 175.670227,233.432770 172.466141,231.001648 
	C159.339050,221.041428 146.267288,210.992569 132.829041,201.464539 
	C125.759827,196.452301 120.147896,199.000107 117.660973,207.287125 
	C113.986610,219.530930 116.807854,230.648300 123.722031,240.884460 
	C131.620193,252.577423 143.150589,259.877106 155.495819,265.999237 
	C162.870911,269.656677 163.286072,271.833069 157.165298,277.258972 
	C158.094467,282.792847 159.773987,288.232269 159.322815,293.968811 
	C159.148300,296.187561 158.442490,298.020538 156.137512,298.433868 
	C153.571869,298.893890 152.002869,297.255829 151.360992,295.002777 
	C150.634766,292.453613 150.335983,289.786102 149.746780,287.193787 
	C148.525040,281.818512 147.717010,276.308777 144.803604,271.418640 
	C146.997238,282.916901 149.742355,294.264954 151.220963,305.888916 
	C152.500687,315.949341 149.863480,332.107483 137.423676,335.300415 
	C135.275391,335.851837 134.481003,337.457306 133.536209,339.382965 
	C131.679642,343.166901 133.076462,347.199829 131.760208,351.110260 
	C128.280685,361.447449 125.319511,371.942719 125.016708,383.043335 
	C124.817108,390.360809 126.312012,397.238861 128.738708,403.988464 
	C129.910034,407.246399 129.949738,410.109283 126.395531,411.494476 
	C122.707466,412.931793 121.417015,409.772919 120.190712,407.276428 
	C119.247635,405.356415 118.764778,403.210327 117.900726,400.361298 
M225.765427,101.300720 
	C220.972229,115.610329 217.531555,130.291077 213.929321,144.920853 
	C209.905212,161.264084 203.671951,176.859695 198.069672,192.666290 
	C195.743362,199.229889 193.574829,206.033569 188.029968,210.819489 
	C184.830246,213.581223 181.332809,215.694305 176.706848,214.289734 
	C170.940689,212.539017 168.016373,208.737167 167.815414,201.429169 
	C167.650696,195.438431 166.451675,189.561203 165.646637,183.702713 
	C163.919937,171.136917 162.098129,158.553894 160.275421,146.001022 
	C158.421600,133.233948 156.084930,120.559998 153.817627,107.887650 
	C151.295502,93.791031 147.816208,79.851753 143.693054,66.110580 
	C141.498459,58.796642 139.488724,51.380001 134.931015,45.031410 
	C131.478012,40.221619 126.312675,37.989143 121.578506,39.309780 
	C117.648094,40.406197 114.675697,45.058189 114.427902,50.823475 
	C114.321243,53.304935 114.407799,55.818146 114.673607,58.288193 
	C115.950195,70.150803 117.521255,81.990776 118.789040,93.839600 
	C119.933624,104.537086 121.682594,115.161201 122.533508,125.906548 
	C123.407013,136.937027 125.535629,147.862534 126.662560,158.880249 
	C127.606117,168.105148 129.573639,177.202606 129.905624,186.506378 
	C129.966309,188.207642 130.979248,189.914749 132.788742,190.929260 
	C144.308716,197.387924 154.127151,206.262283 164.958084,213.708359 
	C174.755493,220.443924 183.746231,227.988571 189.639679,238.705978 
	C197.742310,253.440872 206.094879,268.039398 214.440491,282.639099 
	C217.775299,288.472961 220.575012,294.650299 225.345444,301.087738 
	C226.195740,292.848877 227.376938,285.845428 227.546616,278.817566 
	C227.880386,264.993378 227.754318,251.154449 227.600311,237.324051 
	C227.547455,232.577744 228.285812,227.904190 229.761673,223.599655 
	C237.247040,201.767426 243.239502,179.502533 249.451645,157.303619 
	C255.136780,136.987900 260.418213,116.587196 259.008759,95.135101 
	C258.608582,89.044388 257.293671,83.285110 254.524323,77.913986 
	C251.750641,72.534416 246.682693,71.263268 241.427704,74.313843 
	C238.611008,75.948952 236.585693,78.332893 234.869293,81.045364 
	C231.008698,87.146339 228.657822,93.915749 225.765427,101.300720 
M141.983368,312.314392 
	C142.502579,297.466187 137.489487,283.666290 133.788773,269.632599 
	C132.837311,266.024536 132.065491,262.381378 128.860275,259.556091 
	C114.219048,246.650391 104.399429,231.564514 107.668320,210.748581 
	C108.321991,206.586075 106.410347,205.444824 102.256989,206.743607 
	C96.511002,208.540421 93.890717,213.082520 92.335533,218.366898 
	C89.903854,226.629471 90.096741,235.141525 90.417091,243.631668 
	C90.501610,245.871368 91.313652,247.752090 93.541885,248.925323 
	C97.932800,251.237228 101.204720,254.816452 103.570740,259.091095 
	C108.483788,267.967407 113.307640,276.896973 117.968422,285.907959 
	C124.004074,297.577148 129.727417,309.394135 132.529800,322.364655 
	C132.799988,323.615173 132.506363,325.207611 134.201584,325.655518 
	C136.033463,326.139496 137.477020,325.258850 138.598969,323.925415 
	C141.190735,320.845062 142.010696,317.168793 141.983368,312.314392 
z"/>
</svg>