<svg version="1.1" id="Layer_1" xmlns="http://www.w3.org/2000/svg" xmlns:xlink="http://www.w3.org/1999/xlink" x="0px" y="0px"
	 width="100%" viewBox="0 0 294 446" enable-background="new 0 0 294 446" xml:space="preserve">
<path fill="none" opacity="1.000000" stroke="#000000" stroke-linecap="round" stroke-linejoin="round" stroke-width="8.000000"
	d="
M104.000000,225.500000 
	C99.012657,216.006592 90.389442,210.611923 81.503838,205.493332 
	C72.542282,200.330994 64.710800,204.144211 58.129639,209.654831 
	C48.415321,217.788910 46.106583,229.135849 46.370316,241.502762 
	C46.643078,254.293030 50.526531,266.635284 50.104454,279.503418 
	C49.753445,290.204956 49.495323,300.863922 48.076714,311.510223 
	C46.347420,324.488098 47.746140,337.320648 50.970261,350.007568 
	C55.434063,367.572662 62.575981,384.055878 71.070854,399.962158 
	C74.544624,406.466675 78.897820,411.279785 87.433861,412.857758 
	C100.084351,415.196350 112.532738,418.123322 125.492996,418.666962 
	C131.639542,418.924805 137.820847,420.738373 143.992981,420.379364 
	C153.186722,419.844604 162.313568,418.084473 171.507004,417.647186 
	C177.558807,417.359314 183.174561,415.514709 188.983871,414.414825 
	C194.705658,413.331451 199.654037,410.961609 203.084595,405.553650 
	C212.587708,390.572876 221.229385,375.144562 225.832565,357.955170 
	C228.350662,348.551971 230.367859,338.870361 230.481354,328.999786 
	C230.573318,321.000854 230.711777,312.992767 230.439346,305.002075 
	C230.176559,297.294312 229.475510,289.613098 228.066452,281.987732 
	C226.907272,275.714600 226.469498,269.311829 225.472397,263.004364 
	C223.216675,248.735138 223.040512,234.345291 223.648270,220.006287 
	C224.109436,209.125946 226.024841,198.309494 227.264694,187.473083 
	C228.237991,178.966156 230.112915,170.603806 230.671402,162.011139 
	C231.216370,153.626572 232.748291,145.235245 234.669525,137.039734 
	C235.690659,132.683838 235.747986,128.273132 236.253677,123.971046 
	C237.694458,111.713806 239.372360,99.394936 238.932358,87.002403 
	C238.638245,78.718605 238.302887,70.381050 233.562210,62.960255 
	C231.123810,59.143291 228.079391,56.143921 223.976669,54.560432 
	C214.722824,50.988831 207.958160,56.817329 205.536987,67.008789 
	C203.845215,74.129890 202.722000,81.390244 200.905655,88.475815 
	C200.007248,91.980545 199.921768,95.701981 199.853775,99.007278 
	C199.700317,106.466476 197.844299,113.630020 197.442917,120.996887 
	C197.047119,128.260712 195.458618,135.379227 194.009415,142.501923 
	C191.806747,153.327927 190.029022,164.256592 187.370972,174.967987 
	C185.636230,181.958649 184.542297,189.105865 182.401520,195.969284 
	C181.404465,199.165878 180.780136,202.470840 179.154160,205.580597 
	C177.372940,208.987244 174.349350,210.460052 171.526352,210.206512 
	C169.066513,209.985596 166.833328,210.819717 164.500000,210.500000 
"/>
<path fill="none" opacity="1.000000" stroke="#000000" stroke-linecap="round" stroke-linejoin="round" stroke-width="7.000000"
	d="
M119.500000,205.000000 
	C114.268616,201.039474 116.258934,195.072937 115.612206,189.985733 
	C113.943779,176.861664 112.807983,163.669174 111.509972,150.499023 
	C110.787766,143.171158 110.511826,135.781647 109.423134,128.511505 
	C107.557991,116.056252 107.844727,103.404800 105.585922,90.984375 
	C104.724388,86.247101 104.631081,81.336708 104.550415,76.499161 
	C104.446014,70.238136 102.332520,64.631790 98.408394,60.078957 
	C91.955627,52.592350 82.042816,54.890995 77.455193,61.970966 
	C72.588654,69.481361 70.261124,77.762161 70.086365,86.501724 
	C69.761940,102.725647 70.438866,118.912155 72.889938,135.016754 
	C73.711098,140.412033 73.152771,145.997589 73.404129,151.504379 
	C74.171761,168.322281 74.854866,185.153046 74.500000,202.000000 
"/>
<path fill="none" opacity="1.000000" stroke="#000000" stroke-linecap="round" stroke-linejoin="round" stroke-width="8.000000"
	d="
M169.000000,209.500000 
	C167.536301,206.401596 168.403015,203.209946 168.420013,199.999573 
	C168.561096,173.333649 168.715118,146.664017 168.386246,120.001404 
	C168.267120,110.343025 167.968552,100.645241 167.350113,91.009621 
	C166.654114,80.165680 166.940765,69.320465 166.349747,58.508213 
	C165.995544,52.028431 164.616150,45.427174 160.467667,40.024830 
	C155.948669,34.139984 149.592224,31.947264 142.518631,33.113087 
	C135.320587,34.299431 131.033646,39.366383 128.498672,45.999493 
	C126.096489,52.285183 125.173439,58.919258 125.632866,65.490707 
	C126.276306,74.694183 125.473946,83.833252 125.489357,93.000015 
	C125.523529,113.333298 125.807312,133.672958 125.391724,153.997787 
	C125.115616,167.501068 125.174850,181.000336 124.959534,194.499359 
	C124.899170,198.283951 124.091438,201.773972 121.629082,205.095688 
	C118.777023,208.943115 119.527931,213.905365 119.500000,218.500000 
"/>
<path fill="none" opacity="1.000000" stroke="#000000" stroke-linecap="round" stroke-linejoin="round" stroke-width="8.000000"
	d="
M113.500000,283.000000 
	C112.173943,279.337158 109.390755,276.930603 106.532806,274.462006 
	C99.095024,268.037628 93.174988,260.648224 91.451653,250.508209 
	C90.053032,242.278763 92.254433,235.506119 98.496506,229.996048 
	C103.444984,225.627899 111.324684,224.917679 117.534546,227.414062 
	C126.636787,231.073181 134.601624,236.694534 142.912170,241.647369 
	C151.787598,246.936859 161.081573,251.586334 169.119705,258.357910 
	C173.488693,262.038483 177.583344,265.951447 181.422729,270.071991 
	C188.979919,278.182617 196.179092,286.623749 203.975143,294.524536 
	C208.280487,298.887665 212.461533,303.390839 216.434158,308.056061 
	C217.931686,309.814697 219.515640,310.127563 221.500000,310.000000 
"/>
<path fill="none" opacity="1.000000" stroke="#000000" stroke-linecap="round" stroke-linejoin="round" stroke-width="7.000000"
	d="
M152.500000,290.500000 
	C152.333328,291.666656 152.600876,293.415833 151.934708,293.912415 
	C142.279449,301.109741 137.214279,311.633057 132.698853,322.085907 
	C126.912842,335.480042 124.360909,349.833496 126.639496,364.478302 
	C127.557022,370.375427 127.839645,376.593628 131.000000,382.000000 
"/>
<path fill="none" opacity="1.000000" stroke="#000000" stroke-linecap="round" stroke-linejoin="round" stroke-width="8.000000"
	d="
M59.000000,243.500000 
	C68.254570,252.929657 76.330620,263.457977 86.004105,272.495605 
	C91.116852,277.272278 96.669983,281.448364 103.006180,284.487122 
	C105.635666,285.748199 108.405006,286.180023 110.981911,284.472717 
	C114.223633,282.324951 117.636528,282.925873 120.442993,284.595795 
	C128.763245,289.546631 138.095428,292.288147 146.500000,297.000000 
"/>
</svg>