<svg version="1.1" id="Layer_1" xmlns="http://www.w3.org/2000/svg" xmlns:xlink="http://www.w3.org/1999/xlink" x="0px" y="0px"
	 width="100%" viewBox="0 0 368 400" enable-background="new 0 0 368 400" xml:space="preserve">
<path fill="#000000" opacity="1.000000" stroke="none" 
	d="
M302.162048,248.897079 
	C312.810272,273.697174 325.561188,297.166809 334.281219,322.389313 
	C339.106812,336.347290 343.179962,350.478699 344.410553,365.327820 
	C344.772827,369.699402 343.028900,372.208618 339.728516,374.384979 
	C328.195129,381.990387 315.548645,386.643036 302.061676,389.495911 
	C284.896820,393.126709 267.596741,394.278992 250.098495,394.083740 
	C216.774719,393.711914 187.783249,383.525818 163.666946,359.513733 
	C141.499725,337.442383 115.348900,320.784302 86.220024,309.297852 
	C74.372971,304.626099 65.148407,298.104980 59.187656,286.495361 
	C54.033295,276.456360 47.412113,267.178528 41.629757,257.450989 
	C37.838093,251.072342 35.468899,244.174133 36.093571,236.606613 
	C36.293503,234.184586 35.217300,233.086609 33.315670,231.940292 
	C24.415720,226.575287 21.779716,218.009201 25.724634,208.390594 
	C27.943853,202.979630 31.609850,198.814224 36.059776,195.160004 
	C39.787399,192.098938 43.352608,188.839844 46.983562,185.661362 
	C52.046921,181.228989 54.528996,175.911392 54.084068,168.925110 
	C53.256866,155.936279 59.419319,146.095917 68.825394,137.682281 
	C80.985649,126.805038 93.107971,115.860237 104.763565,104.451042 
	C116.407394,93.053375 129.863083,92.916656 144.170181,96.806213 
	C155.229980,99.812965 165.410995,104.968849 175.692291,111.379799 
	C174.769379,104.115005 173.948517,97.737831 173.155472,91.357193 
	C172.931015,89.551254 171.548004,89.545235 170.228989,89.281700 
	C155.793228,86.397392 141.248276,85.870773 126.578255,86.816063 
	C118.947250,87.307777 111.322990,87.223366 103.759880,85.274223 
	C94.603081,82.914337 88.422806,77.651207 85.584770,68.600548 
	C82.328247,58.215382 87.268845,50.892860 95.011398,45.077793 
	C105.216438,37.413277 117.103035,33.670128 129.577606,31.751486 
	C152.751892,28.187187 175.695160,30.983051 198.605118,34.460922 
	C201.063126,34.834064 203.557159,34.970936 206.014267,35.348850 
	C226.236359,38.459087 234.636032,53.423054 241.218170,70.329651 
	C249.475296,91.538605 254.806107,113.811562 264.744934,134.412994 
	C270.444916,146.228058 276.021759,158.117630 279.013733,171.007858 
	C281.629913,182.278976 284.225037,193.556412 287.000366,204.788818 
	C290.712067,219.810867 295.698242,234.410370 302.162048,248.897079 
M163.850479,171.945847 
	C152.904572,172.672653 142.287415,171.384689 132.216568,166.769653 
	C130.000397,165.754059 127.691147,165.642685 126.526436,167.984619 
	C123.359344,174.352905 120.021744,180.596603 115.116821,186.166107 
	C116.221443,186.836716 116.733437,187.384689 117.307930,187.460800 
	C126.070084,188.621475 134.638580,192.261093 143.746674,189.191299 
	C145.687073,188.537277 148.045013,189.017532 150.201416,189.138718 
	C152.301224,189.256760 153.592575,190.536346 153.900681,192.575638 
	C154.234070,194.782120 153.448868,196.468872 151.203537,197.316818 
	C148.696060,198.263779 146.178909,199.022614 143.451370,199.062912 
	C134.127686,199.200653 124.776802,199.490631 115.728310,196.725952 
	C112.555161,195.756439 111.585175,196.881699 111.118340,199.825607 
	C109.128510,212.373566 107.083733,209.456696 118.792801,215.202606 
	C121.148430,216.358566 123.705025,217.065308 126.368065,217.565994 
	C135.151245,219.217392 136.775055,221.194305 137.138290,230.249863 
	C137.363815,235.871933 139.413971,240.946198 141.403427,246.053574 
	C142.087326,247.809311 143.320801,249.132462 145.220139,249.752869 
	C150.839981,251.588577 156.657501,252.419296 162.449219,251.563324 
	C166.423782,250.975922 170.307617,249.921478 172.396515,245.277740 
	C180.706360,226.804398 191.829758,210.001129 204.009201,193.883636 
	C207.120682,189.766098 210.407593,185.770523 213.794998,181.876434 
	C215.597839,179.803909 217.846100,178.080505 220.680191,180.388733 
	C223.662918,182.818039 222.423798,185.366837 220.685715,187.854568 
	C220.400421,188.262909 220.066925,188.640015 219.734589,189.012711 
	C210.282242,199.612976 202.199417,211.235931 194.816513,223.313416 
	C190.912506,229.699844 186.576141,235.948471 183.668274,243.939255 
	C187.850296,242.271881 190.960602,240.713379 193.698990,238.531525 
	C200.732178,232.927780 207.740219,227.290863 214.677780,221.569580 
	C217.125656,219.550842 219.551270,217.481720 222.471634,220.369705 
	C225.813782,223.674850 223.147217,226.225800 220.750443,228.293564 
	C209.776123,237.761475 198.833954,247.317154 185.663361,253.745865 
	C168.599991,262.074707 151.186890,263.524231 133.759598,255.185455 
	C125.213829,251.096390 117.185844,245.939636 108.783745,241.532593 
	C95.725021,234.683090 83.381485,226.301636 68.393623,223.633148 
	C54.166866,221.100143 43.823635,230.699844 46.165703,244.857590 
	C46.797779,248.678482 48.700356,252.041199 50.759731,255.297989 
	C56.279633,264.027374 62.252003,272.517426 67.123856,281.596649 
	C72.001488,290.686615 78.414452,296.562592 88.384117,300.414520 
	C119.646774,312.493378 147.204224,330.822662 171.360092,354.041412 
	C189.513275,371.490356 210.291458,383.175537 235.907822,383.760956 
	C257.484100,384.254059 279.192596,385.601990 300.535919,380.793549 
	C310.938293,378.450073 320.995697,375.051117 330.301208,369.650452 
	C333.488678,367.800568 335.164825,365.601044 334.794800,361.653564 
	C334.204865,355.360199 332.740417,349.225616 331.166504,343.198822 
	C324.279358,316.826385 312.225159,292.502533 300.738068,267.952942 
	C291.858917,248.977051 283.519257,229.751907 278.431976,209.335510 
	C275.280609,196.688278 272.763031,183.880707 269.497986,171.264908 
	C266.112274,158.182739 260.200806,146.058594 254.534668,133.829315 
	C245.579712,114.501709 239.706543,93.997734 232.737320,73.927734 
	C226.868164,57.025784 217.544922,44.878525 198.246750,43.392689 
	C179.523682,41.951130 160.894760,39.007622 142.022995,40.111359 
	C127.914459,40.936520 114.218468,43.299473 102.136810,51.265137 
	C97.483910,54.332886 93.933319,58.622059 94.348267,64.390305 
	C94.790840,70.542534 99.297867,73.836807 104.845253,75.843521 
	C106.290932,76.366470 107.751282,76.446411 109.193413,76.764709 
	C115.660172,78.192001 122.082939,77.070076 128.539703,76.777618 
	C143.194122,76.113861 157.743805,77.143547 172.195328,79.789673 
	C179.762466,81.175247 182.187866,82.745171 182.437332,88.405357 
	C183.022507,101.681931 185.900131,114.403221 191.008911,126.639267 
	C191.935516,128.858582 192.219147,130.907089 189.816422,132.288528 
	C187.508789,133.615280 185.266174,133.207733 183.458069,131.302750 
	C182.328842,130.112991 181.629150,128.488983 180.430130,127.396194 
	C168.544632,116.563728 154.924210,108.877106 139.270676,104.911392 
	C129.445999,102.422386 120.228989,102.767052 112.322807,110.173431 
	C98.712608,122.923248 84.993240,135.557434 71.466080,148.394409 
	C67.823990,151.850662 64.885269,156.053406 64.121941,161.185242 
	C63.120388,167.918671 62.311913,174.652039 62.122978,181.519211 
	C61.855396,191.244720 64.108421,200.722168 64.023064,210.378113 
	C63.997715,213.245392 65.810631,214.000748 68.124199,214.423904 
	C75.846451,215.836258 83.297516,218.126404 90.339333,221.617722 
	C92.759789,222.817764 94.564842,222.524399 95.552948,219.931549 
	C98.326195,212.654343 100.895996,205.372681 102.119614,197.565689 
	C103.071068,191.495178 103.256012,184.999466 107.866089,179.911041 
	C112.119019,175.216812 115.384537,169.860794 118.175507,164.089218 
	C121.688461,156.824600 126.510437,154.981781 134.047165,157.830795 
	C143.392441,161.363480 152.922699,163.032639 162.862869,162.475006 
	C165.669159,162.317566 168.059860,163.210571 168.768173,165.976700 
	C169.571640,169.114334 167.556961,170.912216 163.850479,171.945847 
M53.501141,193.648087 
	C45.031418,198.490952 37.091408,203.854950 33.739365,213.733185 
	C33.003307,215.902328 33.433510,218.034393 34.155628,220.070847 
	C35.791451,224.684021 39.664127,225.577133 43.183228,222.168823 
	C45.963345,219.476227 49.132301,217.386353 52.717445,216.009369 
	C54.469822,215.336319 55.834610,214.647095 55.131245,212.498581 
	C53.172413,206.515076 54.430801,200.304123 53.501141,193.648087 
M104.091660,223.690094 
	C102.480423,226.549500 103.649605,228.174911 106.313789,229.602997 
	C111.567673,232.419235 116.661339,235.532684 121.862114,238.450424 
	C124.183899,239.752991 126.314163,241.565552 129.178101,242.066986 
	C128.858322,233.252426 127.818176,225.580582 117.112389,224.313736 
	C114.439575,223.997452 111.786728,222.470779 109.400902,221.039902 
	C106.546593,219.328049 105.170029,220.230316 104.091660,223.690094 
z"/>
</svg>