<svg version="1.1" id="Layer_1" xmlns="http://www.w3.org/2000/svg" xmlns:xlink="http://www.w3.org/1999/xlink" x="0px" y="0px"
	 width="100%" viewBox="0 0 384 384" enable-background="new 0 0 384 384" xml:space="preserve">
<path fill="#000000" opacity="1.000000" stroke="none" 
	d="
M103.380821,344.823334 
	C97.647903,339.904816 96.018646,333.052216 93.355942,326.885132 
	C81.863655,300.268097 72.683540,272.878510 67.326294,244.327774 
	C64.648552,230.057068 63.794502,215.534943 64.258728,201.088852 
	C65.110069,174.595734 58.039570,149.746048 50.089828,124.979919 
	C44.095459,106.305435 38.014591,87.639404 35.079594,68.173302 
	C34.288315,62.925220 34.198940,57.496716 35.237995,52.238197 
	C36.923710,43.707001 43.856659,36.510349 51.881218,35.657135 
	C60.804127,34.708405 66.524559,40.259445 70.891029,47.086765 
	C79.291771,60.222000 84.244896,74.979813 90.015450,89.331253 
	C94.609802,100.757500 98.739098,112.361794 102.221062,124.186188 
	C102.442680,124.938759 102.918907,125.616356 103.465256,126.704361 
	C108.082703,124.481262 112.364632,122.274811 117.370384,121.365601 
	C122.728035,120.392471 127.524963,121.563828 132.439194,122.680763 
	C134.586014,123.168716 135.837265,123.095924 136.940872,121.097946 
	C145.174042,106.192612 159.971024,104.076950 173.933121,113.346466 
	C176.796646,115.247589 179.608856,117.226013 182.933792,119.503860 
	C183.825378,114.409317 184.850739,109.947517 186.833878,105.749260 
	C196.961914,84.308372 218.695938,84.562096 233.211044,99.120987 
	C241.745651,107.681351 245.127945,118.909424 248.992722,129.901001 
	C252.338272,139.415909 255.369400,149.079071 260.842865,158.756866 
	C265.793732,153.649368 268.567596,147.786392 272.016205,142.493073 
	C281.277802,128.277359 289.444855,113.242302 302.027496,101.518051 
	C313.671112,90.668755 326.897095,83.265533 343.552216,83.955078 
	C356.699249,84.499382 365.857513,93.851822 365.017670,106.317551 
	C364.701019,111.017891 362.228241,114.859085 359.216919,118.213226 
	C346.867096,131.969009 334.689575,145.779877 325.318298,161.910172 
	C313.966034,181.450333 305.219238,202.043640 298.301056,223.495056 
	C290.643402,247.239151 285.714630,271.711792 278.877716,295.669586 
	C274.759094,310.102081 269.149780,323.844391 260.773865,336.539612 
	C254.982803,345.316986 246.121246,347.661621 237.313019,350.299713 
	C222.215500,354.821350 206.740707,357.080292 190.962616,358.402740 
	C178.899796,359.413727 166.977737,358.946594 155.185913,357.744843 
	C137.539078,355.946381 120.319382,351.455048 103.380821,344.823334 
M356.300964,102.087624 
	C354.502502,97.193359 350.698822,94.947395 345.834595,93.870300 
	C340.618530,92.715286 335.526398,93.449844 330.571045,94.859344 
	C315.302185,99.202400 304.784851,109.830612 296.198273,122.380562 
	C286.799530,136.117615 277.955383,150.245453 269.226898,164.423004 
	C266.563995,168.748276 262.908936,171.255447 258.401611,171.084030 
	C254.775146,170.946121 253.965164,166.578690 252.557800,163.625015 
	C246.757690,151.452225 241.978745,138.881012 237.854446,126.046448 
	C235.499329,118.717491 232.419647,111.711990 227.177017,105.909088 
	C215.976303,93.511414 201.190689,95.919014 194.568924,111.181870 
	C192.195175,116.653297 192.296844,122.491241 191.783737,128.289810 
	C190.218658,145.976242 191.219330,163.138931 200.183548,179.074112 
	C202.538269,183.259949 205.434784,186.843567 209.777008,188.920242 
	C215.498062,191.656311 220.741135,188.406815 220.857132,182.128937 
	C220.971054,175.964386 220.920837,169.795975 220.883118,163.629623 
	C220.827194,154.489212 221.134567,145.347183 219.968002,136.225403 
	C219.610275,133.428223 220.806686,130.781052 224.340439,130.758987 
	C227.952148,130.736404 229.142502,133.042175 229.254868,136.323288 
	C229.510849,143.799408 229.479385,151.312592 230.268112,158.735992 
	C231.154465,167.078064 230.872742,175.435913 230.956619,184.244003 
	C233.400467,182.903259 235.299301,181.902130 237.158112,180.831528 
	C239.532120,179.464188 241.362549,180.354462 242.796265,182.275696 
	C245.960083,186.515305 242.400879,188.330994 239.629913,190.003769 
	C221.146011,201.162094 204.237701,214.318649 188.864822,229.472107 
	C169.573975,248.487610 154.418457,269.651764 153.056107,298.020081 
	C152.925812,300.733093 151.878708,302.568909 148.928268,302.571777 
	C145.953613,302.574677 144.890366,300.633270 144.794647,297.993225 
	C144.541000,290.996857 144.826050,284.123260 146.949127,277.292664 
	C149.239975,269.922424 152.408005,262.941437 155.937836,255.695816 
	C144.813126,257.439880 136.730347,253.560913 130.646118,245.128082 
	C128.012009,241.477158 125.607742,237.691330 123.616570,233.630203 
	C115.558395,217.195084 106.926910,201.024765 100.362701,183.897690 
	C94.713295,169.157471 90.130890,154.260422 96.153984,138.435150 
	C96.773003,136.808731 96.092163,135.595764 95.656090,134.164276 
	C89.696030,114.599197 82.944786,95.323410 74.879280,76.517387 
	C71.336693,68.257263 67.827896,59.962906 63.319019,52.189171 
	C60.959179,48.120583 57.768494,44.357052 52.186398,45.327129 
	C48.058582,46.044483 44.979752,50.633965 44.259632,56.378860 
	C43.694469,60.887512 43.822384,65.429871 44.712666,69.820160 
	C48.584160,88.911880 54.471607,107.459900 60.462086,125.960426 
	C68.034286,149.345810 74.249550,173.094193 73.900017,197.794037 
	C73.543732,222.971649 76.350792,247.490906 83.374336,271.673676 
	C89.425743,292.509247 96.602058,312.873291 105.842911,332.504059 
	C106.933609,334.821075 108.299904,336.714630 110.894508,337.700195 
	C129.484222,344.761749 148.899857,348.268127 168.565247,349.531738 
	C191.782822,351.023621 214.535461,347.135590 236.912689,340.832581 
	C245.830933,338.320557 252.442993,333.947479 257.041565,325.387634 
	C263.731445,312.935059 268.247009,299.786133 271.851532,286.309906 
	C278.189758,262.613220 283.100006,238.566635 291.187073,215.303482 
	C303.909851,178.705399 321.032043,144.836151 348.302002,116.723785 
	C352.094849,112.813797 355.939148,108.720139 356.300964,102.087624 
M153.702545,205.663330 
	C150.206604,195.121338 146.514893,184.639267 143.265640,174.021774 
	C139.444977,161.537155 134.046509,149.415314 133.900192,136.017914 
	C133.876358,133.836197 132.397369,132.669159 130.706116,131.932816 
	C118.335228,126.546677 107.457222,133.510437 104.121582,143.535904 
	C101.513092,151.375839 102.196640,158.891052 104.431923,166.544754 
	C109.165466,182.752655 116.433754,197.910751 123.713043,213.054489 
	C128.393982,222.792664 132.659744,232.795807 139.628128,241.244843 
	C146.538864,249.623962 158.447723,247.846634 162.707291,237.855682 
	C164.201645,234.350647 164.131042,230.834473 163.507019,227.109558 
	C162.195557,219.281128 156.474716,213.591263 153.702545,205.663330 
M163.570450,205.812668 
	C164.701096,207.651566 165.639542,209.647598 166.993607,211.303833 
	C175.739212,222.001190 188.729691,220.462982 194.336090,207.722733 
	C197.576462,200.359238 196.388184,192.774704 192.733109,185.620834 
	C190.917450,182.067123 188.923584,178.574875 187.457840,174.877426 
	C182.665314,162.788071 181.573090,150.120911 181.983704,137.243713 
	C182.056595,134.957733 182.460281,132.507584 180.653381,130.579132 
	C176.190979,125.816551 171.501389,121.304237 165.299896,118.859016 
	C155.177246,114.867714 147.356644,119.306915 143.875565,129.337723 
	C141.510025,136.154037 143.305252,142.262665 145.014694,148.227493 
	C150.500854,167.370377 156.559784,186.355377 163.570450,205.812668 
z"/>
</svg>